<?xml version="1.0" encoding="UTF-8"?>
<svg id="IdentifyCustomer" xmlns="http://www.w3.org/2000/svg" viewBox="0 0 1001 1078.01">
  <defs>
    <style>
      .cls-1 {
        fill: none;
        stroke-width: 4px;
      }

      .cls-1, .cls-2, .cls-3, .cls-4 {
        isolation: isolate;
        opacity: .68;
      }

      .cls-1, .cls-5, .cls-4 {
        stroke-miterlimit: 10;
      }

      .cls-1, .cls-3, .cls-4 {
        stroke: #03ff60;
      }

      .cls-2, .cls-3, .cls-4, .cls-6 {
        fill: #22bee6;
      }

      .cls-2, .cls-6, .cls-7, .cls-8, .cls-9 {
        stroke-width: 0px;
      }

      .cls-5, .cls-10, .cls-11 {
        stroke: #24f06f;
      }

      .cls-10 {
        stroke-miterlimit: 10;
        stroke-width: 1px;
      }

      .cls-11 {
        stroke-miterlimit: 10;
        stroke-width: 1px;
      }

      .cls-3 {
        stroke-miterlimit: 10;
        stroke-width: 1px;
      }

      .cls-7 {
        fill: #7ed2e8;
      }

      .cls-8 {
        fill: #91cad9;
      }

      .cls-9 {
        fill: #fff;
      }
    </style>
  </defs>
  <path class="cls-6" d="m194.74,271.1c-7.88,7.6-7.75,18.1-7.51,23.8.74,15.8,3.82,33.2,15.02,62.9,4.19,11.1,5.91,14.3,7.51,14.2,3.82-.3,4.43-20.2,5.05-39,.62-24,6.65-38.4-.62-54.3-1.6-3.5-5.29-11.4-11.2-11.7-3.69-.1-6.77,2.7-8.25,4.1Zm-164.7,25.9c-13.05-18.7-18.22-35.3-20.56-46.7-2.83-13.9-8.12-39.4,6.89-47.7,4.92-2.7,12.19-3.7,17.48-1.5,2.58,1.1,8.12,4.3,9.97,21.8,1.35,12.9-.12,25.6-6.89,50.7-2.71,9.8-5.17,17.8-6.89,23.4h0ZM359.06,98.6c-15.02-23.4-20.56-43.4-22.89-56.7-2.46-13.8-5.17-30.2,5.79-36.5,4.55-2.6,11.2-3.3,16.25-1.6,9.72,3.4,11.32,15.1,13.42,29.5,3.45,24.9-2.71,43.2-4.8,48.9-2.71,7.1-5.66,12.6-7.75,16.4h0Zm627.02,102.5c-9.23-11.5-21.42-30.6-17.23-49.7.86-4,2.46-11.4,8.62-13.2,6.03-1.8,14.28,2.6,18.22,7.8,3.94,5.2,2.83,10.7-.98,24.9-2.34,8.8-5.17,19-8.62,30.2Z"/>
  <ellipse class="cls-9" cx="199.78" cy="303.8" rx="8.86" ry="11.7"/>
  <ellipse class="cls-9" cx="27.1" cy="232.2" rx="7.2" ry="11.2"/>
  <ellipse class="cls-9" cx="352.54" cy="40.6" rx="9.35" ry="14.8"/>
  <ellipse class="cls-9" cx="806.3" cy="159.8" rx="5" ry="5.1"/>
  <path class="cls-2" d="m562.65,378.2h-232.03c-8.12,0-14.77-5.4-14.77-12v-37.5c0-6.6,6.65-12,14.77-12h232.03c8.12,0,14.77,5.4,14.77,12v37.5c0,6.6-6.65,12-14.77,12Zm-173.43,112.6h-43.08c-8.12,0-14.77-5.4-14.77-12v-58.5c0-6.6,6.65-12,14.77-12h43.08c8.12,0,14.77,5.4,14.77,12v58.5c0,6.6-6.65,12-14.77,12Z"/>
  <path class="cls-4" d="m584.44,404.9c-.12.5-4.31.1-10.83.9-3.32.3-7.14,1-11.45,1.7-4.31.8-9.11,1.7-14.4,2.3-10.46,1.3-20.31.2-26.83-1.4-6.65-1.6-10.22-3.5-10.09-3.9.25-.5,4.19.6,10.71,1.6s15.63,1.7,25.6.4c5.05-.6,9.85-1.4,14.28-2s8.49-1,11.94-1.1c7.02-.1,11.2,1.2,11.08,1.5Zm-49.61,13.9c.12.9-5.79,2.2-13.29,2.7s-13.66,0-13.66-.9,5.91-1.9,13.29-2.4c7.51-.5,13.54-.3,13.66.6h0Zm52.31,8.8c0,.9-13.91,1.5-31.02,2.3-17.11.7-31.02,1.3-31.14.4s13.66-2.9,30.9-3.6c17.23-.8,31.27.1,31.27.9h0Z"/>
  <ellipse class="cls-3" cx="531.21" cy="441.18" rx="15.26" ry="1.6" transform="translate(-3.77 4.57) rotate(-.49)"/>
  <ellipse class="cls-4" cx="548.87" cy="454.9" rx="33.73" ry="1.6"/>
  <path class="cls-1" d="m960.85,336.3h-185.74c-8.12,0-14.77-5.4-14.77-12v-8.9c0-6.6,6.65-12,14.77-12h185.74c8.12,0,14.77,5.4,14.77,12v8.9c0,6.6-6.65,12-14.77,12Z"/>
  <path class="cls-4" d="m935,312.5c0,.4-8.74,1.2-22.89,1.9-14.16.7-33.73,1.4-55.39,1.8s-41.24.4-55.39.2-23.02-.6-23.02-1c0-.5,8.74-.9,22.89-1.3s33.73-.8,55.39-1.2c21.66-.4,41.24-.7,55.39-.8,14.28-.2,23.02-.1,23.02.4Z"/>
  <ellipse class="cls-4" cx="799.48" cy="321.6" rx=".49" ry="1.6"/>
  <path class="cls-4" d="m853.89,322c.12.9-12.19,2.3-27.45,2.4s-27.57-1.3-27.45-2.1c.12-.9,12.31-1.1,27.45-1.1,15.14-.1,27.45-.1,27.45.8h0Zm85.67,4.9c-.12.5-3.82.2-9.72-.1-2.95-.2-6.52-.3-10.46-.4s-8.25-.1-12.8-.1c-9.11.1-17.36.2-23.26.3-6.03,0-9.72-.2-9.72-.6s3.57-1.1,9.6-1.7c5.91-.6,14.28-1.2,23.51-1.2,4.55,0,8.99.1,13.05.4,3.94.3,7.51.6,10.59,1.1,5.79.8,9.35,1.8,9.23,2.3h0Zm37.79,30.5c0,.9-20.56,2.3-46.04,1.8-25.48-.5-45.91-2.9-45.79-3.7.12-.9,20.56,0,45.91.5,25.36.5,45.91.5,45.91,1.4h0Zm-72.01,8.9c0,.9-8,1.6-17.85,1.6-6.4,0-12.06-.3-15.14-.8l.86-1.4c.12.4.62.7.86.8.37.2.62.3.62.4s-.12.4-.74.5-1.6,0-2.46-.7l-1.23-1.1,2.09-.3c3.2-.5,8.74-.8,15.14-.8,9.85.1,17.85.9,17.85,1.8h0Zm72.13,6.9c.12.9-23.88,3-53.42,4.7-29.66,1.7-53.67,2.4-53.79,1.5s23.88-3,53.42-4.7c29.54-1.8,53.67-2.4,53.79-1.5Zm-55.02,14.1c.12.9-7.51,2.4-16.99,2.6-9.6.3-17.23-.8-17.23-1.7s7.63-1.3,17.11-1.6c9.23-.1,16.99-.2,17.11.7Zm46.9,11.3c-.12.5-5.79-.2-14.77-.4-1.11,0-2.34-.1-3.57-.1h-3.82c-2.71,0-5.54.1-8.49.1-6.03.2-12.56.6-19.57,1.2-13.91,1.2-26.46,2.6-35.57,3.2-9.23.6-14.89.6-14.89.2,0-.5,5.54-1.2,14.65-2.4,8.99-1.2,21.54-2.9,35.57-4.1,7.02-.6,13.79-.9,19.82-1,3.08,0,6.03,0,8.74.2,1.35.1,2.71.1,3.94.2s2.46.2,3.57.3c8.99.8,14.4,2.3,14.4,2.6h0Zm-9.11,11.3c-.12.5-4.19,0-10.59.1h-2.58c-.86,0-1.85.1-2.71.1-1.85.1-3.94.3-6.03.4-4.31.4-8.86,1-13.79,1.6-4.92.7-9.6,1.3-14.03,1.8-4.31.5-8.25.7-11.57.8-6.65.1-10.71-.5-10.71-.9,0-.5,4.06-.7,10.46-1.4,3.2-.3,7.02-.9,11.32-1.5s8.86-1.3,13.91-2c4.92-.7,9.72-1.2,14.16-1.4,2.22-.1,4.31-.2,6.28-.1.98,0,1.97,0,2.83.1.86.1,1.85.1,2.58.2,6.77.5,10.59,1.8,10.46,2.2h0Z"/>
  <path class="cls-8" d="m411.99,385.1c1.72,7.7,5.29,18.2,12.68,29.5,9.97,15.4,22.65,25.5,31.14,31.4,7.26,18,16.86,37.9,29.66,59.1,17.85,29.6,37.54,54,55.64,73.6.25-11.7,1.48-24.9,4.43-39.2,1.85-9.1,4.19-17.6,6.65-25.3-4.31-3.2-10.22-7.9-17.11-13.9-20.56-18-35.94-31.5-43.08-50.6-2.58-7,.25-3.2-5.91-36.8-4.92-26.7-4.55-17.4-5.91-27.7-1.23-8.7-1.48-15.8-4.43-16.3-2.71-.4-6.15,5.1-6.65,6-4.8,7.7-2.58,14.9-3.69,15.1-1.48.2-5.54-12.5-10.34-25.9-4.92-13.9-7.75-20.2-14.89-22.9-.98-.4-5.54-2.1-9.6-.6s-5.54,5.6-6.65,10.3c-2.58,10.5-4.68,18.8-1.48,32.6,2.71,11.9,7.26,18.7,5.91,19.3-.98.2-4.55-2.4-16.37-17.7h0Zm189.19,433.6c-6.65,10.2-14.65,25.1-18.59,44-2.46,12-2.83,22.7-2.22,31.4,16.37,30.8,32.62,61.5,48.99,92.3,4.68-2,11.69-4.4,20.8-5.4,13.29-1.5,24,.8,29.66,2.4-3.69-15.4-6.4-27.9-8.12-36.2-5.91-27.9-6.89-37.3-12.68-52.5-5.05-13.4-10.83-23.7-14.89-30.1,3.57-3.2,8.37-7.9,13.42-13.9,10.96-13,16.49-19.7,16.37-28.3-.25-10.4-8.86-22.5-22.28-26.5-17.36-5.3-41.11,3.5-50.47,22.8h0Zm170.73,18.1c2.34,5.3,5.54,13.2,8.12,22.9,1.72,6.3,2.83,11.9,5.17,28.9,3.69,26.1,2.95,25.9,4.43,33.2,1.85,8.8,5.42,21.3,13.42,36.2,7.02-1.1,15.51-1.9,25.23-1.8,6.65.1,12.56.5,17.85,1.2-.25-8.2-.86-19.8-2.22-33.8-3.82-39.5-8-41.2-17.11-93.5-5.17-29.4-5.66-39.8-15.63-43.4-11.2-4.1-27.2,3-35.57,11.5-10.22,10.3-11.69,25.3-3.69,38.6h0Zm14.77-423.9c3.08,8.4,7.88,13.3,11.82,16.3,6.65,5,11.57,4.9,14.89,10.3.98,1.6,1.35,2.9,2.95,13.9.62,4.1,1.11,7.6,1.48,10.3,9.97,13.1,19.82,26.1,29.66,39.2,6.65,8.8,13.42,17.7,20.06,26.5.86-13.2-.25-24.3-1.48-32.6-1.23-8-3.57-22-11.08-38.6-5.54-12.1-8.49-13.9-11.08-24.1-2.46-9.6-.62-11.3-3.69-22.9-.98-3.7-3.69-9.7-8.86-21.7-3.2-7.4-5.17-11.4-10.34-13.9-1.35-.6-5.54-2.4-9.6-1.8-8,1.2-14.77,11.4-14.16,25.3,3.94,9.4,4.19,16.6.74,18.1-3.32,1.3-8.99-2.7-11.32-4.3h0Z"/>
  <path class="cls-7" d="m656.82,307.9c-7.14,21.2-8.62,38.6-8.62,50.8,0,23.7,5.66,36.4,1.97,60.2-2.34,14.4-6.89,26-10.59,33.6,5.42-2.1,10.96-4.2,16.37-6.3.12,4.5.62,10.8,2.83,18,1.48,4.8,4.55,14.3,13.42,24.2,8.49,9.4,17.85,14.5,23.14,17.2,16.12,8.5,22.4,4.2,46.16,12.5,16.99,5.9,18.09,9.4,24.99,8.6,15.88-1.8,27.33-21.6,29.79-37.5.62-3.9,1.23-10.7-6.77-38.3-5.42-18.7-7.51-22-11.57-35.2-12.56-41.2-15.39-71.9-15.39-71.9-.86-8.9-1.6-22.6-13.42-32.8-3.2-2.8-6.28-4.5-12.56-7.8-13.29-7.2-22.89-12.4-36.56-13.3-4.8-.3-18.34-1-30.77,6.3-6.65,3.9-10.46,8.7-12.43,11.7h0Z"/>
  <path class="cls-6" d="m559.33,591.7c-4.31-2.1-6.4-7.2-4.55-36.9.98-15,2.46-27.5,3.57-36.4,18.46-10.3,32.74-18.6,42.1-24,7.63-3.1,13.54-6.4,17.73-9.1,7.02-4.4,10.59-6.6,12.19-9.1,1.48-2.2,2.46-4.9,5.79-6.3,2.09-.9,4.31-.9,5.79-.8,1.35,4.9,4.55,13.4,12.68,21.5,15.39,15.3,41.11,21.9,44.68,18.1,2.34-2.5-4.43-9-3.08-9.8s8,6.5,16,11.7c16.74,10.6,45.05,14.7,58.22,5.1,4.68-3.4,8.74-9.4,10.09-15.4.74-3.6,2.22-14.1,5.05-18.5,2.46-3.8,4.19-4.4,5.91-6.9,3.57-5-8-26.2-4.19-28.8,1.97-1.3,8.74,1.6,19.45,9.6,12.43,9.3,22.65,20.1,38.77,43.2,10.09,14.4,15.14,21.6,17.23,27.6,5.17,15,3.45,27.3,1.48,40.6-2.46,17-3.82,26.7-11.32,28.9-11.57,3.4-28.31-13.8-29.05-14.6,1.35,8.6,3.57,22.7,6.52,40.1,9.85,59.1,11.57,64.7,10.96,80.9-.86,25.4-1.85,38.1-4.31,46.8-.86,3-3.32,10.8-2.22,20.9.74,7.4,3.08,13.4,4.92,17.2,0,2.4,0,5.8-.37,9.9-.74,9-1.23,14-3.82,18.2-2.83,4.5-8.12,8.1-18.22,11.3-58.84,18.9-121.86,12.7-121.86,12.7-23.26-2.3-56.5-7.5-94.53-20.6,2.46-8,6.65-19.6,12.92-33.1,5.05-10.6,9.6-18.6,21.42-37.8,27.57-44.8,27.33-41.9,30.4-49.4,7.26-18,7.39-31.7,7.63-56.5.12-17.5.12-52-16.86-58.3-2.09-.8-5.54-1.5-10.09-4.1-6.77-3.9-9.6-12.7-15.14-13.7-3.45-.6-5.79,2.1-11.82,5.9-4.8,3.1-10.83,5.6-22.89,10.5-18.96,8.2-30.28,12.8-37.17,9.4h0Zm73.85,393.6c10.46,18.2,18.09,33.2,23.51,44.2,4.06,8.2,7.75,16.5,4.92,18.1-2.46,1.4-8.86-2.7-14.16-6.5-16.74,6.6-29.05,11.4-35.82,14-18.83,7.4-29.54,11.5-29.05,16.1.25,2.3,3.08,3.9,5.54,5,53.91-3.5,86.29-4.2,106.23-3.5,5.29.2,19.82.8,22.89-4.5,1.97-3.5-1.72-7.8-4.92-12-7.26-9.6-11.69-19.6-20.43-39.6-9.23-21.1-4.68-25.8-12.31-31.1-6.52-4.6-19.2-7.7-46.41-.2h0Zm172.33-26.5c3.45,9.4,5.17,17.3,6.15,23.1,2.09,12.2,3.94,24.1-2.46,27.1-2.95,1.4-4.55-.5-9.85,0-9.23.8-15.26,7.2-24.13,16.6-3.82,4-8.74,9.9-13.54,17.6,17.6.2,35.94.1,55.02-.5,11.2-.4,22.16-.9,32.74-1.5.37-17.3-.37-35.9-2.46-55.7-.98-9.2-2.22-18.1-3.69-26.6-12.68-.1-25.23-.1-37.79-.1Z"/>
  <path class="cls-5" d="m639.71,456.7c.12,0,0,.7-.74,1.7s-1.97,2.5-4.31,3.9c-.25.1-.62.4-1.11.6-.37.2-.86.4-1.23.6-.86.4-1.85.6-2.83.9-.49.1-.98.2-1.6.4-.25.1-.62.1-.86.2,0-.2.12-.4.12-.6.12-.4.25-.9.37-1.3,0-.2.12-.4.12-.7.12-.3.12-.5.25-.8.62-1.7,1.23-3.5,1.97-5.5.49-1.7.98-3.5,1.48-5.5,2.09-7.7,3.69-16.9,4.55-27.3s.98-21.8.86-33.8c-.12-12-.25-23.6.25-34,.12-2.6.25-5.2.49-7.7s.49-4.9.74-7.2c.74-4.6,1.11-9,2.09-12.9.86-3.9,2.22-7.5,3.82-10.4,1.6-3,3.45-5.3,5.29-7s3.57-2.8,4.8-3.4,1.97-.8,2.09-.7c.25.3-2.46,1.5-5.66,5-1.6,1.7-3.2,4-4.43,6.9s-2.34,6.3-3.08,10.1c-.74,3.8-1.11,8.2-1.6,12.7-.12,2.3-.37,4.7-.49,7.1-.12,2.5-.25,5-.25,7.6-.25,10.4-.12,21.9,0,33.9.12,12.1-.12,23.6-1.23,34.1-.98,10.5-3.08,19.9-5.42,27.6-.62,1.9-1.23,3.8-1.85,5.5-.37.9-.74,1.7-.98,2.5-.37,1-.49,1.1-.74,1.6-.25.5-.37.9-.62,1.3l-.12.3h.37c.25,0,.49-.1.74-.1.49-.1.98-.2,1.35-.4.25-.1.49-.2.62-.3.25-.1.37-.2.74-.3,2.22-1.1,3.57-2.4,4.55-3.2.98-.9,1.35-1.4,1.48-1.4h0Zm120.51,62.2c0,.1-.49.2-1.48.4-.49.1-1.11.2-1.72.3-.74.1-1.48.2-2.46.2-3.69.3-9.23.3-15.88-.5-6.77-.8-14.65-2.7-22.89-6-4.06-1.7-8.25-3.8-12.19-6.3-.74-.4-1.35-.9-2.09-1.3-.25-.2-.49-.3-.74-.5l-.62-.5-.12-.1.12.1c.12.1.12.3.25.4.25.5.37.9.49,1.5l.37,2.7.12,1.3v1l-.37-.1c-1.11-.2-2.09-.2-3.2-.5-.98-.2-1.97-.3-2.95-.5-12.56-2.3-23.39-7.5-31.51-13.5-.49-.4-.98-.7-1.48-1.1-.49-.4-.98-.8-1.35-1.2-.98-.8-1.85-1.6-2.71-2.3-.86-.8-1.6-1.6-2.46-2.4-.86-.8-1.6-1.6-2.22-2.4-1.35-1.6-2.83-3.2-3.82-4.8-.62-.8-1.11-1.6-1.6-2.4-.49-.8-.86-1.6-1.35-2.3-.49-.8-.86-1.5-1.23-2.2-.37-.8-.62-1.5-.98-2.2s-.62-1.4-.86-2.1c-.25-.7-.49-1.4-.74-2-.37-1.3-.86-2.5-1.11-3.6-.25-1.1-.37-2.2-.62-3.1-.25-.9-.25-1.8-.25-2.5v-1.8c0-1,.12-1.5.25-1.5s.37.5.62,1.4c.12.5.25,1.1.37,1.8.12.7.25,1.5.62,2.4.25.9.62,1.9.86,3s.86,2.2,1.35,3.4c.25.6.49,1.3.86,1.9.37.6.74,1.3.98,2l1.11,2.1c.49.7.86,1.4,1.35,2.1.49.7.86,1.5,1.48,2.2s1.11,1.5,1.72,2.2c1.11,1.5,2.46,3,3.82,4.5.62.8,1.48,1.5,2.22,2.3.74.7,1.6,1.5,2.46,2.3l2.71,2.2,1.35,1.1c.49.3.98.7,1.48,1,7.88,5.6,18.09,10.4,29.91,12.6.49.1.86.1,1.35.2v-.7l-.12-.6c0-.3-.12-.5-.25-.7-.12-.5-.25-.9-.49-1.4-.12-.5-.37-1-.62-1.5l-.37-.8-.62-1-1.35-2.3-1.72-2.7c-1.35-2-2.58-4.1-3.82-6.1l1.6,1.3.74.6.25.1.12.1.37.3,1.35,1.1c1.72,1.5,3.45,3,5.17,4.4,1.72,1.5,3.57,2.9,5.29,4.3.37.3.86.6,1.23.9l1.11.7c.49.3.98.6,1.35.9,3.82,2.4,7.63,4.5,11.57,6.2,7.75,3.4,15.26,5.4,21.79,6.5,6.4,1.1,11.82,1.4,15.39,1.4.86,0,1.72.1,2.46,0h1.85c0-.1.49,0,.49.1h0Zm-35.94-221.8c0,.2-.98.3-2.71,0-1.72-.3-4.06-1.1-6.77-2.1-1.35-.5-2.83-1.1-4.31-1.6-1.6-.5-3.32-.9-5.05-1.3-3.69-.7-7.75-1.1-12.19-.9-4.31.2-8.49.9-12.06,1.9s-6.65,2.3-9.11,3.5c-4.92,2.5-7.51,4.7-7.88,4.4-.37-.2,1.48-3,6.28-6.2,2.46-1.5,5.66-3.2,9.48-4.4,3.82-1.3,8.25-2.1,13.05-2.4,4.8-.2,9.35.3,13.29,1.3,3.94,1,7.39,2.4,9.85,3.8,2.58,1.3,4.43,2.3,5.91,3,1.48.4,2.34.8,2.22,1h0Z"/>
  <path class="cls-5" d="m765.14,526.6c-.25-.1,2.46-4.1,6.4-11.4,3.94-7.3,8.99-18.2,12.19-32.2l1.48-6.5,1.48,6.6c.62,2.6,1.11,5.3,1.72,8.1l-3.08-.2c2.22-5.5,3.57-11.6,3.82-18,.25-6.5-.49-13.2-2.09-20.2-2.95-14-8.86-28.6-13.17-44.3-2.58-9.5-4.43-18.8-6.15-27.8-1.6-9-3.08-17.7-4.68-26-1.6-8.2-3.2-16.1-5.29-23.2-.98-3.6-2.34-7-3.82-10.1s-3.32-6-5.54-8.5c-4.31-5-10.09-8.3-15.51-10.3-5.54-2.1-10.59-3.2-14.77-4s-7.51-1.3-9.72-1.7c-2.22-.4-3.45-.6-3.45-.7s1.23-.1,3.57.1,5.66.5,9.97,1.1c4.31.7,9.6,1.6,15.39,3.6,2.95,1,5.91,2.3,8.86,4.1,2.95,1.7,5.66,4,8.12,6.6,2.34,2.6,4.43,5.7,6.15,8.9,1.6,3.3,3.08,6.8,4.19,10.4,2.22,7.3,3.94,15.1,5.66,23.4,3.45,16.5,5.91,34.8,10.96,53.6,4.31,15.5,10.22,30.2,13.05,44.5,1.48,7.1,2.22,14.1,1.85,20.8-.37,6.7-1.85,13.1-4.31,18.7l-2.09,4.8-.98-5.1c-.49-2.8-1.11-5.5-1.6-8.1h2.95c-3.57,14.1-9.23,25-13.66,32.3-2.22,3.6-4.19,6.4-5.54,8.2-1.35,1.7-2.22,2.6-2.34,2.5h0Zm-210.61-16.8c-.25-.4,4.19-2.5,11.2-6.1,3.45-1.8,7.63-4,12.06-6.5s9.35-5.4,14.28-8.5c9.97-6.3,18.83-12.2,25.36-16.4s10.71-6.7,11.08-6.3c.37.3-3.2,3.4-9.23,8.1-6.03,4.7-14.65,10.9-24.74,17.3-5.05,3.2-10.09,6-14.77,8.4s-8.99,4.5-12.68,6c-7.39,3-12.31,4.4-12.56,4h0Zm-5.05,96.9c-.49.1-2.83-5-4.92-13.5-.25-1.1-.49-2.2-.86-3.4-.25-1.2-.49-2.4-.74-3.7-.49-2.5-.86-5.3-1.23-8.1-.62-5.8-.86-12.1-.49-18.8s1.23-13,2.46-18.7c.62-2.8,1.23-5.5,1.97-8,.37-1.2.74-2.5,1.11-3.6l1.11-3.3c2.95-8.4,5.79-13.3,6.28-13.1.62.2-1.23,5.3-3.57,13.7-.25,1.1-.62,2.2-.86,3.3s-.49,2.4-.86,3.6c-.62,2.5-1.11,5.1-1.6,7.9-.98,5.6-1.72,11.8-2.09,18.4-.25,6.5-.12,12.8.25,18.4.25,2.8.49,5.5.86,8,.12,1.3.25,2.5.49,3.6.25,1.2.37,2.3.49,3.3,1.48,8.6,2.83,13.9,2.22,14h0Z"/>
  <path class="cls-5" d="m654.36,550.4c.37.3-4.68,4.4-13.42,10.3-4.43,3-9.72,6.3-15.88,9.9-6.15,3.6-13.05,7.3-20.43,11s-14.65,6.9-21.29,9.7c-6.65,2.8-12.8,5.1-18.09,7-10.46,3.7-17.11,5.4-17.36,5-.25-.4,6.03-2.9,16.12-7.1,5.05-2.1,10.96-4.6,17.48-7.5s13.66-6.2,20.93-9.9c7.39-3.7,14.16-7.3,20.43-10.7,6.15-3.4,11.69-6.6,16.25-9.3,9.23-5.3,14.89-8.7,15.26-8.4Zm-227.96-147c-.49.2-5.17-5.1-12.31-13.9-1.72-2.2-3.69-4.6-5.79-7.2-.37-.4-.74-.9-1.11-1.4-.12-.2-.37-.4-.49-.6l-.25-.3v.4c.12.6.12,1.1.25,1.6l.12.4.12.8c.12.9.37,1.8.62,2.7.25.9.37,1.8.62,2.8.25.9.62,1.8.86,2.8.25.9.49,1.9.86,2.8s.74,1.9,1.11,2.8c2.95,7.5,7.02,14.4,11.32,20.3,4.31,6,8.62,11.1,12.56,15.2,7.75,8.4,13.29,13.1,12.92,13.5-.37.3-6.65-3.9-15.14-12-4.31-4-8.99-9.1-13.54-15.1-4.55-6-8.86-13-11.94-20.9-.37-1-.74-2-1.11-2.9-.37-1-.62-2-.86-2.9-.25-1-.62-1.9-.86-2.9s-.37-1.9-.62-2.9-.49-1.9-.49-2.8c-.12-.7-.12-1.3-.25-2-.12-.8-.25-1.6-.25-2.3s-.12-1.4-.12-2.1-.12-1.5-.12-2.2c-.12-1.4-.12-2.9-.25-4.3v-1.5c0-.1-.12-.5.12-.2.49.6.86,1.2,1.35,1.7l2.58,3.3c1.72,2.3,3.45,4.6,5.05,6.7,1.97,2.7,3.82,5.2,5.42,7.4,6.28,9.2,10.09,14.9,9.6,15.2h0Zm15.26-11.4c-.49.1-2.46-5.2-5.66-13.7-1.6-4.3-3.57-9.4-5.79-15-1.11-2.8-2.34-5.8-3.69-8.9-.37-.7-.62-1.5-.98-2.2l-.25-.6c-.12-.4-.37-.7-.49-1.1-.12.3-.12.6-.25.9l-.12.6c-.12.6-.25,1.1-.37,1.7-.37,1.8-.62,3.5-.98,5.2-.49,3.4-.98,6.7-1.11,9.9-.37,6.3,0,12,.86,16.7,1.72,9.5,5.05,14.9,4.43,15.1-.25.1-1.23-1.2-2.83-3.6-1.48-2.5-3.2-6.3-4.43-11.1s-1.97-10.7-1.72-17.2c.12-3.3.49-6.7.86-10.2.25-1.7.49-3.5.98-5.3l.25-1.4c.12-.7.37-1.5.49-2.3.37-1.6.74-3.1,1.11-4.7.62-2.2,1.11-4.4,1.72-6.5,1.23,2.9,2.46,5.7,3.69,8.5.62,1.4,1.23,2.8,1.72,4.1.37.8.62,1.7.98,2.5,1.23,3.1,2.34,6.1,3.45,9,2.09,5.8,3.69,11,5.05,15.3,2.58,8.7,3.57,14.2,3.08,14.3h0Z"/>
  <path class="cls-5" d="m449.41,389.2c-1.11.1-4.19-13.3-10.09-29.4-1.6-4.4-3.2-8.6-4.68-12.3-.74-1.9-1.48-3.5-2.46-4.7-.25-.3-.49-.5-.86-.8-.25-.2-.62-.4-.74-.5-.37-.2-.86-.4-1.23-.2-.37.2-.37.4-.62.7-.12.1-.12.4-.25.6-.12.2-.12.4-.25.6-.25.8-.49,1.6-.62,2.2-.25,1.2-.37,1.9-.62,2-.25,0-.62-.7-.74-2-.12-.7-.12-1.5,0-2.5,0-.2.12-.5.12-.7,0-.3.12-.5.25-.9.25-.7.49-1.6,1.23-2.1.49-.3,1.11-.4,1.85-.4.37,0,.62.1.98.1.37.1.74.2.98.3.74.3,1.11.5,1.72.8.49.3.86.7,1.35,1,1.6,1.5,2.58,3.4,3.45,5.3,1.72,3.7,3.57,7.9,5.17,12.3,5.79,16.7,7.02,30.6,6.03,30.6Z"/>
  <path class="cls-5" d="m464.06,394.1c-.62.1-1.48-3.6-3.2-9.3-1.72-5.7-4.55-13.5-8.99-21.7-2.22-4.1-4.55-7.9-6.77-11.3-2.22-3.3-5.05-7-5.42-7.5-.12-.2-.25-.4-.37-.5l-.25-.3c-.12-.1-.12-.3-.12-.1-.12.2-.37.5-.49.7-.25.5-.49,1.1-.62,1.7,0,.1-.12.3-.12.5s0,.3-.12.5c0,.3-.12.6-.12.8-.12.4-.12.7-.25.7s-.37-.2-.49-.6c-.12-.2-.12-.5-.25-.8,0-.2-.12-.3-.12-.5s-.12-.4-.12-.7c-.12-1.1,0-2.5.49-4,.25-.8.49-1.6.86-2.5.12-.4.25,0,.49.1.12.2.37.3.49.5.37.3.74.7,1.11,1.1.37.4.86.8,1.23,1.1.25.2.37.4.62.6s.49.5.74.7c.74.8,1.35,1.6,2.09,2.4,1.23,1.5,2.58,3,3.82,4.7,2.58,3.4,5.05,7.3,7.26,11.5,4.43,8.5,7.02,16.6,8,22.5,1.35,5.9,1.11,9.6.62,9.7h0Zm29.3,58.7c-.25.1-1.35-1.1-2.95-3.5-1.48-2.4-3.2-6.2-4.31-11-1.11-4.8-1.6-10.6-1.85-17-.12-3.2-.25-6.5-.49-9.9-.12-1.7-.37-3.4-.49-5.2-.25-1.7-.49-3.5-.98-5.2-.37-1.8-.98-3.5-1.48-5.1-.62-1.7-1.35-3.3-1.97-4.9-1.35-3.3-2.71-6.6-3.08-10-.12-.9-.12-1.7,0-2.5,0-.8.12-1.7.37-2.4.12-.7.25-1.4.25-2s-.12-1.1-.37-1.5-.62-.8-1.11-1-.74-.2-1.11-.2c-.49,0-1.48,1.3-2.22,2.2-2.95,4-4.31,7.7-5.05,10.2-.74,2.6-.86,4.1-1.11,4.1s-.62-1.5-.37-4.3c.25-2.7,1.23-6.8,4.06-11.2.37-.6.74-1.1,1.23-1.7.25-.3.49-.6.86-.9s.98-.7,1.48-.8c1.23-.4,2.71-.2,3.69.3s1.85,1.1,2.46,2c1.23,1.8.86,3.6.74,5.1-.12.8-.25,1.5-.25,2.2s0,1.4.12,2.2c.37,2.9,1.72,6,3.08,9.2.74,1.6,1.48,3.3,2.09,5.1.62,1.8,1.23,3.6,1.6,5.5.49,1.9.74,3.7.98,5.5.12,1.8.37,3.6.49,5.3.25,3.5.25,6.9.25,10,0,6.4.25,12,.98,16.7s1.97,8.4,2.95,10.9c1.11,2.3,1.72,3.7,1.48,3.8h0Zm42.96,124.2c-.25.2-1.97-1.2-5.17-3.7l-2.58-2.1c-.86-.8-1.85-1.7-2.95-2.7-2.09-1.9-4.55-4.1-6.89-6.6-1.23-1.3-2.46-2.6-3.82-4s-2.58-2.9-3.94-4.4c-2.83-3-5.42-6.5-8.37-10-5.54-7.2-11.2-15.4-16.62-24.1-10.71-17.6-18.71-34.1-24.13-46.1-5.42-12-8.37-19.6-7.88-19.7.49-.2,4.43,7.1,10.59,18.9,6.15,11.8,14.4,28.1,25.11,45.5,5.42,8.7,10.96,16.8,16.25,24,2.71,3.6,5.29,7,7.88,10.1,1.35,1.5,2.46,3.1,3.69,4.5s2.46,2.8,3.57,4.1c2.22,2.6,4.43,4.9,6.4,6.9.98,1,1.85,1.9,2.71,2.8.86.8,1.6,1.6,2.34,2.3,2.58,2.6,4.06,4.2,3.82,4.3h0Z"/>
  <path class="cls-5" d="m550.71,512.9c0,.1-.25.3-.98.4-.74.1-1.97-.2-2.95-.9-.49-.3-1.11-.7-1.6-1.2s-1.11-1-1.6-1.5c-1.23-1.1-2.46-2.3-3.94-3.7-5.66-5.5-13.29-13.4-21.17-22.3-15.76-17.9-26.71-33.5-25.73-33.9.98-.5,13.29,14.2,29.05,32,7.88,8.9,15.02,17,20.19,22.8,1.23,1.5,2.46,2.8,3.45,4,.49.6.98,1.1,1.35,1.6s.74.9,1.23,1.2c.74.7,1.48,1,1.97,1.2.37.2.74.2.74.3h0Zm163.46-22.1c-.37.3-5.79-4.1-13.17-12.1-.86-1-1.85-2.1-2.83-3.2-.98-1.1-1.85-2.3-2.95-3.5-2.09-2.4-3.94-5.2-6.03-8-4.06-5.8-8-12.3-11.57-19.4-3.57-7.1-6.28-14.1-8.37-20.5-.98-3.2-1.97-6.3-2.58-9.2-.37-1.4-.74-2.8-.98-4.2-.25-1.4-.49-2.6-.74-3.9-1.72-9.9-1.48-16.1-.98-16.1.62,0,1.48,6.1,3.82,15.8.25,1.2.62,2.5.98,3.8s.74,2.7,1.23,4.1c.74,2.8,1.85,5.8,2.83,9,2.22,6.3,5.05,13,8.49,20,3.57,6.9,7.39,13.4,11.2,19.1,1.97,2.8,3.82,5.6,5.66,8,.98,1.2,1.72,2.5,2.71,3.6l2.58,3.3c6.52,8.2,11.2,13.1,10.71,13.4h0Zm153.74,40.4c-.49.2-4.68-4.8-11.2-13.2-3.2-4.2-7.02-9.2-11.2-14.8s-8.62-11.8-13.42-18.2-9.72-12.4-14.52-17.5-9.72-9.4-14.16-12.6c-4.43-3.3-8.49-5.5-11.2-7.1-2.83-1.5-4.43-2.3-4.31-2.6.12-.2,1.97.3,5.05,1.5,3.08,1.3,7.51,3.3,12.31,6.4,4.8,3.1,10.09,7.4,15.26,12.5,5.17,5.1,10.22,11.2,15.02,17.6,4.92,6.5,9.23,12.7,13.17,18.4,3.94,5.7,7.51,10.8,10.46,15.2,5.79,8.6,9.23,14.1,8.74,14.4h0Zm-7.88,54.8c-1.23-.3,3.69-13.2,4.19-29.5.62-16.4-3.32-29.4-2.22-29.7.49-.1,2.09,3,3.69,8.4.74,2.7,1.48,5.9,1.97,9.5s.74,7.6.62,11.8-.62,8.2-1.35,11.8-1.6,6.8-2.58,9.4c-1.97,5.3-3.82,8.4-4.31,8.3Zm-266.37,223.8c-.25,0,0-2.1.74-5.7.25-.9.37-1.9.62-3s.62-2.3.98-3.6c.74-2.5,1.48-5.5,2.71-8.6.49-1.6,1.11-3.2,1.72-5,.62-1.7,1.35-3.5,2.09-5.3,1.48-3.7,3.2-7.6,5.17-11.7,3.94-8.1,8.62-16.9,14.16-25.9,11.08-18,22.65-33.5,31.27-44.6s14.28-17.8,14.77-17.5c.49.2-4.31,7.4-12.31,18.7-8,11.4-19.08,27.1-30.03,44.9-5.42,8.9-10.22,17.6-14.28,25.6-1.97,4-3.82,7.8-5.42,11.4-.74,1.8-1.6,3.5-2.34,5.2-.74,1.7-1.35,3.3-1.97,4.9-1.35,3.1-2.22,5.9-3.2,8.4-.49,1.2-.86,2.4-1.23,3.5s-.74,2.1-.98,2.9c-1.35,3.5-2.22,5.4-2.46,5.4h0Z"/>
  <path class="cls-5" d="m841.95,812.1c.12.1-.49.7-1.85,1.7-.62.5-1.48,1.2-2.46,1.9s-2.22,1.5-3.57,2.4c-5.42,3.6-13.66,8.3-24.86,12.7-5.66,2.1-11.94,4.3-18.96,6.1-7.02,1.8-14.52,3.4-22.65,4.5-16.25,2.4-34.47,2.9-53.3,1.7s-36.68-4.1-52.56-7.2c-8-1.6-15.39-3.2-22.4-4.8-7.02-1.6-13.54-3.2-19.33-4.9s-11.08-3.6-15.39-5.6-7.75-4.1-10.34-6c-.62-.5-1.23-.9-1.72-1.4s-1.11-.9-1.48-1.3c-.86-.8-1.6-1.5-2.09-2.1-.98-1.2-1.48-1.9-1.35-2,.25-.2,2.46,2.4,7.88,5.8,2.71,1.7,6.15,3.6,10.46,5.4,4.31,1.8,9.35,3.5,15.26,5,5.79,1.5,12.31,3,19.33,4.5,7.02,1.5,14.52,3,22.4,4.5,15.76,2.9,33.36,5.6,51.94,6.9,18.59,1.2,36.43.8,52.31-1.4,8-1.1,15.39-2.5,22.28-4.1s13.05-3.6,18.71-5.6c11.2-4,19.57-8.4,25.11-11.6,1.35-.8,2.71-1.5,3.69-2.2,1.11-.7,1.97-1.2,2.71-1.7,1.35-.8,2.22-1.2,2.22-1.2h0Z"/>
  <path class="cls-5" d="m835.3,813.1c-1.11-.3,2.09-9,2.34-20,.37-11-2.22-19.8-1.11-20.1.49-.1,1.85,2,3.08,5.6.62,1.8,1.11,4,1.6,6.5.37,2.5.62,5.2.49,8.1-.12,2.9-.49,5.6-.98,8.1s-1.23,4.6-1.97,6.4c-1.48,3.5-2.95,5.5-3.45,5.4Zm-112.01,2.3c-.49-.2,1.72-3.9,6.15-9.3,2.22-2.7,5.05-5.9,8.37-9.3,3.32-3.4,7.14-7,11.45-10.6s8.49-6.9,12.56-9.7c4.06-2.8,7.75-5.3,11.08-7.2,6.52-3.8,10.96-5.8,11.2-5.4.74.8-15.26,10.3-32,24.6-16.74,14.1-27.82,27.5-28.8,26.9Zm-76.32,51c-.49-.1-.37-2,.62-4.8s2.83-6.6,5.66-10.5c2.71-3.9,5.79-7.1,8.25-9.3,2.46-2.1,4.31-3.2,4.8-2.9.86.6-4.31,6.3-9.6,13.8-5.17,7.5-8.62,14-9.72,13.7h0Zm65.24,188.9c-.25.1-1.97-2.3-4.92-6.9-2.83-4.5-6.77-11.2-11.08-19.6-4.31-8.4-8.99-18.6-13.42-30.2-4.43-11.5-8.62-24.4-11.82-38.1-3.32-13.7-5.66-26.8-8.25-38.6-2.46-11.8-5.17-22.4-7.88-31.2-2.83-8.8-5.54-15.8-7.75-20.5-.49-1.2-.98-2.3-1.48-3.2-.37-.9-.74-1.7-.98-2.3-.49-1.3-.74-2-.62-2s.62.6,1.35,1.7c.37.6.86,1.3,1.35,2.2s1.23,1.9,1.72,3.1c2.58,4.7,5.79,11.6,8.99,20.4,3.2,8.8,6.15,19.4,8.86,31.3,2.71,11.9,5.17,24.9,8.49,38.5,3.2,13.6,7.26,26.4,11.45,37.9,4.19,11.5,8.62,21.7,12.56,30.2s7.39,15.3,9.85,20c2.46,4.6,3.82,7.2,3.57,7.3h0Zm-137.12-168.4c-.49,0-.86-4-.49-10.5.12-3.2.62-7.1,1.23-11.4.74-4.3,1.6-8.9,2.95-13.8,1.35-4.8,2.83-9.4,4.31-13.5,1.6-4.1,3.08-7.8,4.68-10.8,2.95-6,5.29-9.6,5.79-9.4,1.11.4-5.91,15.3-10.83,34.4-5.17,19.2-6.4,35.1-7.63,35Zm86.29,160.8c-.25.1-1.97-1.9-4.8-5.6-1.48-1.9-3.08-4.2-5.05-6.9-1.97-2.7-4.19-5.8-6.4-9.2-4.68-6.9-10.09-15.1-16-24.4-5.79-9.3-11.94-19.6-18.09-30.5s-11.69-21.4-16.62-31c-4.8-9.6-8.99-18.4-12.31-25.7-1.72-3.7-3.08-7-4.43-10-1.23-2.9-2.34-5.5-3.08-7.6-1.6-4.2-2.46-6.5-2.22-6.6s1.48,2.1,3.57,6.2,5.05,9.9,8.74,17.2,8.12,15.9,13.05,25.4c5.05,9.5,10.71,20,16.86,30.8,6.15,10.9,12.19,21.2,17.85,30.5,5.66,9.3,10.71,17.7,15.14,24.6,4.43,7,7.88,12.7,10.34,16.6s3.69,6.1,3.45,6.2h0Z"/>
  <path class="cls-5" d="m684.39,985.6c-.25.4-3.69-.8-9.48-2s-13.91-2.2-22.89-1.2c-4.43.4-8.62,1.3-12.31,2.4-.98.2-1.85.6-2.71.8-.86.3-1.72.6-2.46.9-1.48.6-2.83,1.3-3.94,2-2.22,1.4-3.45,3-3.94,4.2s-.49,2-.86,2c-.25,0-.74-.7-.74-2.3.12-1.5,1.23-3.7,3.57-5.6,1.11-1,2.58-1.9,4.19-2.7.86-.4,1.72-.8,2.58-1.1.86-.3,1.85-.7,2.83-1,3.82-1.3,8.37-2.3,13.17-2.8,9.6-1,18.46.4,24.25,2.3,5.91,1.7,8.99,3.8,8.74,4.1h0Zm-101.92,88.4c-.12,0-.37-.1-.62-.7-.25-.5-.12-1.4.37-2.3.49-.9,1.48-1.8,2.71-2.7,1.23-.8,2.46-1.7,3.94-2.7,5.91-4,14.4-9.3,24.5-14.3s20.06-8.6,27.57-10.3c1.85-.4,3.57-.9,5.17-1.1,1.6-.2,2.95-.3,4.19-.2,2.34.2,3.32,1,3.2,1.2s-1.23-.1-3.32.1c-1.97.1-4.8.9-8.37,2.1-7.02,2.3-16.49,6-26.46,10.9s-18.59,9.9-24.99,13.4c-1.6.9-3.08,1.6-4.31,2.3-1.23.6-2.09,1.3-2.71,1.9-.98,1.3-.62,2.3-.86,2.4h0Zm135.03-2.9c0,.4-7.39,1.3-19.2,2.2-11.94,1-28.43,2.1-46.65,3.1-18.22,1-34.96,1.3-46.9,1-12.06-.4-19.45-1.2-19.45-1.7s7.51-.4,19.45-.7c11.94-.2,28.43-.9,46.65-1.9s34.83-1.8,46.77-2.1c11.82-.3,19.33-.3,19.33.1Z"/>
  <path class="cls-5" d="m716.27,1071.7c-1.11-.4-.12-3.9-.98-8.1-.74-4.2-2.95-7.4-2.09-8,.37-.3,1.6.2,2.95,1.5s2.58,3.4,3.08,6,0,4.9-.74,6.5c-.74,1.5-1.72,2.3-2.22,2.1Zm91.58-62c-.74,0-1.11-9.2-5.05-23.7-1.85-7.2-4.68-15.8-8-25.2-3.32-9.4-7.26-19.8-10.59-30.9-3.32-11.1-5.66-21.9-6.4-31.8-.49-5-.37-9.7-.49-14,0-4.4-.12-8.4-.37-12.1-.25-3.7-.86-7-1.6-9.8-.25-.7-.37-1.4-.62-2-.25-.7-.49-1.3-.62-1.9-.37-1.2-.98-2.3-1.35-3.2-.98-1.9-1.72-3.4-2.34-4.3-.62-1-.86-1.5-.74-1.6s.62.4,1.48,1.2c.86.9,1.97,2.3,3.08,4.2.49,1,1.23,2,1.72,3.2.25.6.62,1.2.86,1.9l.74,2.1c.98,2.9,1.72,6.3,2.22,10s.74,7.9.86,12.2c.25,4.4.25,9,.74,13.9.86,9.7,3.32,20.3,6.65,31.3s7.14,21.3,10.22,30.9c3.2,9.5,5.79,18.2,7.26,25.6.49,1.8.74,3.6.98,5.3.25,1.7.62,3.2.74,4.7.37,3,.62,5.5.74,7.6.25,4.1.12,6.4-.12,6.4h0Zm40.37,31.5c-.25,0-.49-3-.74-8.5s-.49-13.4-.86-23.2c-.25-4.9-.37-10.3-.74-16-.25-5.8-.62-11.9-1.11-18.4-.86-12.9-1.97-27.1-3.45-42-1.48-14.9-3.2-29.1-4.92-41.9-.86-6.4-1.72-12.5-2.58-18.3-.86-5.7-1.72-11-2.46-15.9-1.6-9.7-2.83-17.6-3.82-23-.86-5.4-1.23-8.5-.98-8.5s1.11,2.9,2.46,8.3c.74,2.7,1.48,6,2.34,9.8.86,3.8,1.85,8.2,2.71,13.1.98,4.8,1.97,10.2,2.95,15.9.98,5.7,1.97,11.8,2.95,18.3,1.97,12.9,3.82,27.1,5.29,42,1.48,14.9,2.46,29.2,3.2,42.2.25,6.5.62,12.6.74,18.4.12,5.8.25,11.1.25,16.1s0,9.3-.12,13.2c0,3.9-.12,7.3-.25,10-.25,5.3-.62,8.4-.86,8.4h0Zm-87.89,4.4c-.49-.1-.12-3.2,1.97-7.9.25-.6.62-1.2.86-1.8.37-.6.74-1.3,1.11-1.9.74-1.3,1.72-2.7,2.71-4.1,2.09-2.8,4.8-5.8,8-8.6,3.32-2.8,6.77-5.1,10.09-7,1.72-.9,3.32-1.8,4.92-2.5.86-.3,1.6-.7,2.34-1s1.48-.6,2.22-.8c5.66-2,9.48-2.4,9.6-2,.25.5-3.2,1.7-8.37,4.1-.62.3-1.35.6-1.97,1-.74.3-1.35.7-2.09,1.1-1.48.7-2.95,1.7-4.43,2.6-3.08,1.9-6.28,4.2-9.35,6.8-3.08,2.6-5.66,5.4-7.88,8-.98,1.3-2.09,2.6-2.95,3.8-.37.6-.86,1.2-1.23,1.8-.37.6-.74,1.1-1.11,1.7-2.58,4-3.94,6.8-4.43,6.7h0Z"/>
  <ellipse class="cls-10" cx="799.85" cy="1042.2" rx="1.6" ry="28.68" transform="translate(-249.77 1832.29) rotate(-89.47)"/>
  <path class="cls-5" d="m852.78,961.5c-.49.9-11.57-2.5-25.97-3.1-14.4-.8-25.97,1.4-26.22.5-.12-.4,2.58-1.5,7.39-2.5,2.34-.5,5.29-.9,8.49-1.2,3.2-.2,6.89-.3,10.59-.1,3.82.2,7.26.6,10.46,1.2s6.03,1.3,8.25,2c4.68,1.5,7.26,2.8,7.02,3.2h0Zm-197.93-375.2c-.62.7-7.63-2.8-14.16-8.8-6.65-6-10.09-12-9.11-12.5s5.79,4.5,12.06,10.3c6.4,5.8,11.94,10.3,11.2,11Z"/>
  <path class="cls-5" d="m660.88,693.1c-.62-.1.86-6.7,2.22-17.5.12-1.3.37-2.8.49-4.2.12-1.5.25-3,.37-4.6.37-3.2.37-6.6.62-10.1.25-7.2.12-15-.62-23.3-.74-8.2-1.97-16-3.32-23.1-.74-3.5-1.48-6.9-2.34-10-.37-1.6-.74-3.1-1.11-4.5s-.86-2.8-1.23-4.1c-3.2-10.5-5.66-17-5.05-17.1.49-.1,3.94,6,7.88,16.5.49,1.3.98,2.7,1.48,4.1.49,1.4.86,3,1.35,4.5.98,3.1,1.85,6.5,2.71,10.1,1.6,7.1,2.95,15,3.69,23.4.62,8.4.62,16.3.25,23.6-.25,3.6-.49,7.1-.98,10.3-.25,1.6-.37,3.2-.62,4.6-.25,1.5-.49,2.9-.74,4.3-2.22,10.7-4.68,17.2-5.05,17.1Zm161.13-124.3c-.98.2-6.28-13.7-8-31.5-1.85-17.8.74-32.2,1.72-32.2,1.23.1.49,14.4,2.34,31.9,1.72,17.5,5.17,31.6,3.94,31.8Z"/>
  <path class="cls-5" d="m828.65,795c-.25-.1.37-3.3,1.72-9.2.37-1.5.74-3.1,1.23-4.9.37-1.8.74-3.8,1.11-5.9.74-4.2,1.85-9,2.46-14.3.37-2.7.74-5.4,1.23-8.3.37-2.9.62-5.9.86-9.1.74-6.3.86-13,1.23-20,.25-14.1-.12-29.7-1.48-45.9-1.35-16.3-3.57-31.7-5.66-45.8-1.11-7-2.22-13.7-3.32-19.9-1.11-6.2-2.09-12-3.08-17.3-1.97-10.6-3.57-19.2-4.55-25.1-.98-5.9-1.48-9.2-1.23-9.3.25,0,1.23,3.2,2.71,9.1,1.48,5.9,3.57,14.4,5.91,25,1.11,5.3,2.46,11.1,3.57,17.3,1.23,6.2,2.46,12.9,3.69,19.9,2.34,14.1,4.68,29.6,6.03,45.9,1.35,16.4,1.6,32,1.11,46.2-.49,7.1-.74,13.9-1.6,20.2-.37,3.1-.62,6.2-1.11,9.1-.49,2.9-.98,5.7-1.48,8.4-.86,5.3-2.09,10.1-3.08,14.3-.49,2.1-.98,4-1.48,5.8-.62,1.8-1.11,3.4-1.48,4.8-1.85,5.8-3.08,9-3.32,9h0Z"/>
  <path class="cls-5" d="m858.32,587.8c.25-.1.74.4.98,1.6.12.6.12,1.3-.12,2.1s-.74,1.7-1.48,2.6c-.74.9-1.72,1.7-2.95,2.4s-2.95,1.3-4.55,1.5c-3.45.5-7.14-.1-10.59-1.3-6.77-2.4-11.57-6.1-14.52-9-2.95-3-4.06-5.2-3.57-5.4.49-.3,2.34,1.4,5.66,3.8,1.6,1.2,3.69,2.6,6.03,3.9,2.34,1.3,5.05,2.7,8,3.7s5.91,1.6,8.49,1.3c2.46-.2,4.55-1.2,5.91-2.4.62-.6,1.23-1.2,1.48-1.7.37-.6.62-1.1.62-1.6.37-.9.25-1.5.62-1.5h0Zm-48.01-150.1c.98-.3,4.06,5.3,5.42,12.6,1.35,7.3.37,13.4-.74,13.3-1.11,0-1.97-5.8-3.2-12.9-1.35-7-2.58-12.7-1.48-13h0Zm-8.62-17.4c-.37.4-4.06-1.3-9.97-4.3-1.48-.8-3.08-1.6-4.8-2.5l-.62-.3-.25-.1c-.12-.1-.25-.1-.49-.2s-.49-.2-.74-.4l-.12-.1s-.12-.1-.12,0l.12.4c.12.3.25.5.37.8.25.7.49,1.3.74,2,.37,1,.74,2,1.23,3,1.6,4,3.69,7.6,6.03,10.6s5.05,5.4,7.51,7.2c5.05,3.5,9.35,4.4,9.11,4.9,0,.2-1.23.3-3.2-.1s-4.68-1.3-7.75-2.9c-2.95-1.7-6.15-4.1-8.86-7.3s-4.92-7.1-6.65-11.2c-.49-1-.86-2.1-1.23-3.1-.12-.5-.37-1-.49-1.5-.25-.8-.49-1.6-.86-2.4-.49-1.7-1.11-3.3-1.6-4.9-.25-.8-.49-1.6-.74-2.3-.37-.7.37-.1.74.1s.86.5,1.23.7c1.6.9,3.08,1.8,4.68,2.7.74.4,1.48.9,2.22,1.3.62.4,1.11.7,1.72,1,1.6,1,3.08,2,4.43,2.8,5.42,3.4,8.62,5.8,8.37,6.1h0Z"/>
  <path class="cls-5" d="m809.08,368.9c1.11.5-5.54,10.6-8.62,24.2-3.2,13.6-1.48,25-2.71,25.1-.49.1-1.6-2.7-2.22-7.4-.37-2.3-.49-5.1-.37-8.3.12-3.1.49-6.5,1.35-10.1.86-3.5,1.97-6.8,3.2-9.8,1.23-2.9,2.58-5.5,3.94-7.6,2.71-4,4.92-6.3,5.42-6.1h0Z"/>
  <path class="cls-5" d="m814.38,414.9c-1.11-.1-1.23-10.2-2.95-22.7-1.72-12.4-4.43-22.4-3.32-22.6.98-.3,5.54,9.5,7.39,22.3,1.72,12.7,0,23.1-1.11,23h0Z"/>
  <path class="cls-5" d="m824.84,419.9c-1.23-.1-.49-11.4-3.57-25.1-.74-3.4-1.6-6.6-2.46-9.5-.49-1.5-.86-2.8-1.35-4.1-.49-1.3-.74-2.5-1.35-3.4-.98-2-2.34-3.3-3.45-3.8-1.11-.6-2.09-.5-2.09-.7,0-.1.12-.2.62-.4.49-.1,1.23-.2,2.09-.1,1.85.3,3.94,1.8,5.54,4,.37.5.74,1.1,1.11,1.7s.62,1.2.86,1.9c.62,1.3,1.11,2.7,1.72,4.2,1.11,3,2.09,6.3,2.83,9.8,1.48,7,1.72,13.5,1.35,18.2-.49,4.5-1.23,7.3-1.85,7.3Zm10.96,3.5c-.62,0-1.11-2.9-1.6-7.5s-.98-10.9-2.71-17.7c-1.6-6.8-4.31-12.6-6.89-16.6s-4.68-6.3-4.31-6.6c.37-.3,3.32,1.5,6.65,5.4,3.32,3.9,6.77,10.1,8.37,17.2,1.72,7.1,1.72,13.6,1.6,18.3-.12,4.6-.62,7.5-1.11,7.5h0Z"/>
  <path class="cls-5" d="m842.32,425c-1.11,0-1.6-7-4.06-15.2-2.34-8.3-5.54-14.7-4.55-15.1.49-.2,1.97,1.2,3.69,3.8,1.72,2.6,3.57,6.3,4.8,10.7,1.23,4.3,1.6,8.4,1.35,11.3-.12,2.7-.62,4.5-1.23,4.5h0Zm26.71,110c-.62,0-1.35-6.4-2.71-16.8-.62-5.2-1.48-11.3-2.46-18.2-1.11-6.8-2.09-14.3-3.82-22.1-.86-3.9-1.97-7.6-3.32-11.1s-2.95-6.8-4.55-10c-1.6-3.2-3.08-6.2-4.43-9.1-1.35-2.9-2.34-5.7-3.2-8.2-1.6-5.2-1.85-9.6-1.48-12.5.12-.7.12-1.4.25-2s.25-1,.37-1.4c.25-.8.49-1.1.62-1.1s.25.4.25,1.2v1.4c0,.6,0,1.2.12,1.9.12,2.9.74,7,2.58,11.9.98,2.4,2.09,5.1,3.57,7.9,1.48,2.8,3.08,5.8,4.68,9,1.72,3.2,3.45,6.6,4.92,10.2,1.48,3.6,2.58,7.5,3.57,11.4,1.85,7.9,2.71,15.5,3.57,22.3.86,6.9,1.35,13.1,1.6,18.3.62,10.6.37,17-.12,17h0Zm-548.37-9.2c-.25,0-.98-3.1-1.97-8.6-.98-5.6-2.22-13.7-3.57-23.7-2.83-20-6.28-47.7-9.35-78.4-3.08-30.6-5.17-58.4-6.4-78.6-.62-10.1-.98-18.2-1.11-23.8-.12-5.6-.12-8.8.12-8.8s.74,3.1,1.35,8.7,1.48,13.7,2.46,23.8c1.97,20.1,4.68,47.8,7.63,78.4,3.2,30.6,6.03,58.3,8.12,78.4,1.11,10,1.85,18.2,2.34,23.8.49,5.7.62,8.8.37,8.8h0Zm157.68-6.4c0,.5-7.75.5-20.19.4-12.43,0-29.66,0-48.62.5s-36.07,1.4-48.5,2c-12.43.7-20.06,1.1-20.19.6-.12-.4,7.51-1.6,19.94-2.9,12.43-1.3,29.54-2.5,48.62-3s36.31-.2,48.74.5c12.56.6,20.19,1.4,20.19,1.9h0Zm108.57-238.4c0,.2-3.94.2-11.08,0-1.72-.1-3.82-.1-5.91-.2-2.22,0-4.55-.1-7.02-.2-5.05-.1-10.83-.3-17.23-.4-3.2-.1-6.52-.1-9.97-.2-3.45,0-7.14-.1-10.83-.1-7.51-.1-15.51,0-23.88,0-16.86.2-35.33.6-54.78,1.4-19.45.9-37.91,2.1-54.65,3.4-8.37.7-16.37,1.3-23.76,2.1-3.69.4-7.26.7-10.83,1-3.45.4-6.77.7-9.97,1-6.28.6-12.06,1.3-17.11,1.9-2.46.3-4.8.5-7.02.8-2.09.3-4.06.5-5.91.7-7.02.8-10.96,1.2-11.08.9,0-.2,3.82-1,10.83-2.2,1.72-.3,3.69-.6,5.79-1,2.09-.3,4.43-.7,7.02-1,5.05-.7,10.71-1.6,16.99-2.4,3.2-.4,6.52-.8,9.97-1.3,3.45-.4,7.02-.8,10.83-1.2,7.39-.9,15.39-1.6,23.88-2.4,16.86-1.5,35.33-2.8,54.78-3.7,19.45-.8,38.04-1.2,55.02-1.2,8.49.1,16.49.1,24,.3,3.82.1,7.39.1,10.83.3,3.45.1,6.77.3,9.97.4,6.4.2,12.19.6,17.23.9,2.58.2,4.92.3,7.02.4,2.22.2,4.19.3,5.91.5,7.02.9,10.96,1.3,10.96,1.5h0Zm20.93,194.2c-.25,0-.86-2.5-1.6-7.1-.86-4.6-1.85-11.3-2.95-19.5-2.22-16.5-4.68-39.4-6.65-64.7-1.97-25.3-2.83-48.2-3.2-64.8-.12-8.3-.12-15,0-19.7.12-4.6.25-7.2.62-7.2.25,0,.62,2.6.98,7.2s.86,11.3,1.35,19.6c.98,16.6,2.46,39.4,4.31,64.7,1.97,25.3,3.94,48.1,5.42,64.7.74,8.3,1.35,15,1.6,19.6.37,4.6.37,7.2.12,7.2h0Zm130.85-176.3c-1.11.2-2.58-2.2-2.71-5.4-.12-3.2,1.23-5.7,2.22-5.6,1.11.1,1.6,2.6,1.72,5.4.25,3-.12,5.4-1.23,5.6h0Zm252.71-18.3c0,.2-3.45.6-9.6,1-6.15.5-15.26,1-26.34,1.6-22.28,1.2-53.05,2.7-87.03,4.1-16.99.7-33.23,1.3-47.88,1.9-14.77.5-28.06,1-39.27.9s-20.31-.7-26.46-1.4-9.6-1.4-9.48-1.6c0-.2,3.45.1,9.72.4,6.15.3,15.14.6,26.34.4,11.08-.2,24.37-.9,39.02-1.6,14.77-.7,30.9-1.4,47.88-2.1,33.97-1.4,64.75-2.5,87.03-3.1,11.2-.3,20.19-.5,26.46-.6s9.6-.2,9.6.1h0Zm6.28,178.6c-.25,0-.74-2.2-1.48-6.3s-1.6-10-2.46-17.3c-1.85-14.6-3.69-34.9-4.68-57.3-.98-22.4-.98-42.7-.62-57.4.25-7.3.49-13.3.86-17.4.37-4.1.62-6.4.86-6.4s.49,2.3.62,6.4.25,10,.37,17.4c.25,14.7.74,34.9,1.72,57.3.98,22.4,2.46,42.6,3.57,57.2.49,7.3.98,13.2,1.23,17.3.25,4.2.25,6.5,0,6.5h0Zm-23.51-2.6c0,.5-6.15,1-16.12,1.7s-23.76,1.7-39.02,2.7c-15.26.9-29.05,1.6-39.14,1.9-10.09.3-16.25.3-16.25-.2,0-.4,6.15-1.2,16.12-2.1,9.97-.9,23.76-1.9,39.02-2.9,15.26-1,29.17-1.6,39.14-1.7,9.97-.1,16.12.2,16.25.6Zm-765.25-79.9c-.25,0,0-3.3.62-9.3s1.6-14.6,3.08-25.3c.74-5.3,1.48-11.2,2.22-17.4.74-6.3,1.6-12.9,1.72-19.9.25-7-.25-14.4-2.09-21.8-.86-3.7-2.09-7.5-4.55-10.4-1.23-1.5-2.71-2.7-4.68-3.4-1.85-.8-4.06-1.1-5.91-.8-1.85.3-3.45,1.3-4.68,2.8-1.23,1.4-2.22,3.3-3.08,5.1-1.85,3.6-3.32,7.2-4.31,10.9-1.11,3.7-1.72,7.4-2.09,11s-.49,7.2-.25,10.7c.74,14,5.05,26.3,9.48,36.2,4.55,10,9.11,17.8,12.19,23.2,3.2,5.4,4.92,8.4,4.68,8.5s-2.46-2.7-6.03-8-8.62-13-13.54-23c-2.46-5-4.8-10.6-6.77-16.8-1.97-6.2-3.32-12.9-3.82-20.1-.25-3.6-.25-7.3.12-11.1.37-3.8.98-7.6,2.09-11.4s2.58-7.7,4.43-11.5c.98-1.9,1.97-3.8,3.57-5.7.74-.9,1.72-1.8,2.95-2.6,1.23-.7,2.71-1.3,4.19-1.6,6.15-1,11.82,1.9,14.77,5.6,1.48,1.8,2.58,3.8,3.32,5.8.74,2,1.23,3.9,1.72,5.8,1.85,7.7,2.22,15.3,1.85,22.5s-1.23,13.9-2.09,20.2c-.98,6.3-1.97,12.1-2.71,17.4-1.72,10.6-3.2,19.2-4.31,25.1-1.11,6.1-1.85,9.4-2.09,9.3h0ZM29.8,298.8c-.25-.1.49-3.1,2.09-8.7,1.48-5.5,3.94-13.5,6.28-23.4,1.23-4.9,2.34-10.4,3.2-16.3.86-5.9,1.48-12.2,1.6-18.8,0-3.3-.12-6.7-.37-10.1-.25-1.7-.37-3.5-.62-5.2s-.74-3.4-1.35-5.1c-1.11-3.3-2.95-6.6-5.91-8.9-2.95-2.3-7.14-3.2-11.2-2.3-4.06.9-7.51,3.2-10.22,6-1.35,1.4-2.58,2.9-3.45,4.4-.49.8-.86,1.6-1.35,2.4-.49.8-.74,1.7-1.11,2.5-1.35,3.3-2.34,6.7-2.71,10.1l-.12,1.3-.12,1.3c0,.8-.12,1.7-.12,2.5,0,1.7,0,3.3.12,5,.49,6.5,1.97,12.7,3.82,18.4,1.72,5.7,3.82,11,5.79,15.8,3.82,9.6,8.12,17,11.69,21.8s6.15,7.2,5.79,7.4c-.12.1-3.08-2-7.14-6.7s-8.74-12.1-13.05-21.7c-2.09-4.8-4.43-10-6.4-15.8-1.97-5.8-3.69-12.1-4.19-18.9-.25-1.7-.25-3.4-.25-5.2,0-.9.12-1.8.12-2.7l.12-1.3.12-1.3c.37-3.6,1.35-7.2,2.83-10.8.37-.9.74-1.8,1.23-2.7.49-.9.98-1.7,1.48-2.6,1.11-1.8,2.34-3.4,3.94-5,1.48-1.6,3.32-3,5.29-4.3,2.09-1.2,4.43-2.3,7.02-2.8,2.58-.6,5.42-.6,8,0,2.58.5,5.05,1.7,6.89,3.1,3.82,3,5.79,6.7,7.02,10.4.62,1.8,1.11,3.7,1.35,5.5.37,1.9.37,3.6.62,5.4.25,3.5.37,7,.25,10.4-.12,6.8-.98,13.2-1.97,19.1-1.11,5.9-2.34,11.4-3.82,16.4-2.71,9.9-5.54,17.8-7.63,23.2-2.09,5.3-3.32,8.2-3.57,8.2h0ZM360.91,103c-.25-.1.62-3.1,2.09-8.5s3.57-13.2,5.29-23c.86-4.9,1.72-10.3,2.34-16,.62-5.8.98-11.9.62-18.4-.49-6.4-1.85-13.1-5.05-19.5-1.6-3.2-3.82-6.3-6.4-9-2.58-2.6-6.15-4.8-9.97-4.8s-7.26,2.2-9.6,5c-1.23,1.4-2.09,2.9-2.95,4.5-.37.8-.74,1.6-.98,2.5-.37.8-.62,1.7-.86,2.5-2.22,6.7-2.46,13.5-1.85,19.9.37,3.2.86,6.3,1.48,9.4.62,3,1.35,6,2.22,8.8,1.6,5.6,3.45,10.9,5.29,15.5,3.57,9.4,7.75,16.6,11.2,21.4,3.45,4.8,5.91,7.1,5.54,7.3-.12.1-.86-.5-2.09-1.5-.62-.5-1.35-1.3-2.22-2.1-.74-.9-1.72-1.8-2.71-3-3.94-4.6-8.62-11.9-12.68-21.3-1.97-4.7-3.94-9.9-5.79-15.6-.86-2.8-1.72-5.8-2.46-8.9s-1.23-6.3-1.6-9.6c-.62-6.6-.49-13.8,1.72-21,.25-.9.49-1.8.98-2.7.37-.9.62-1.8,1.11-2.7.86-1.8,1.97-3.5,3.32-5.2,1.35-1.6,3.08-3.2,5.17-4.4,2.09-1.2,4.8-2,7.63-2.1,2.83,0,5.42.8,7.63,1.9s3.94,2.6,5.54,4.1c2.95,3.1,5.17,6.4,7.02,9.8,3.45,6.9,4.8,13.9,5.17,20.6s-.25,13-.98,18.8c-.74,5.8-1.72,11.2-2.83,16.1-2.09,9.8-4.68,17.6-6.65,23-2.09,5.4-3.45,8.3-3.69,8.2h0Zm624.19,99.6c-.25-.1.49-2,1.85-5.6,1.35-3.5,3.32-8.6,5.42-14.9.98-3.2,2.22-6.6,3.08-10.4.86-3.7,1.48-7.8,1.35-12s-1.23-8.6-3.82-12.4c-1.35-1.9-3.08-3.7-5.17-4.9-2.09-1.3-4.68-2.1-7.39-2.2-1.35-.1-2.71.1-3.82.3-1.23.3-2.34.8-3.32,1.4-.98.7-1.72,1.4-2.46,2.3-.62.9-1.11,1.9-1.48,2.9-.74,2.1-.98,4.3-.98,6.5s.25,4.3.49,6.5c.98,8.6,2.71,16.3,4.55,22.6.86,3.2,1.72,6.1,2.71,8.5.98,2.4,2.22,4.4,3.45,5.8,1.23,1.5,2.46,2.4,3.32,3s1.48.9,1.35,1c0,.1-.74,0-1.85-.5s-2.58-1.3-4.19-2.8c-1.6-1.4-3.08-3.5-4.31-6s-2.34-5.4-3.45-8.6c-2.22-6.4-4.19-14.2-5.42-22.9-.62-4.3-1.23-9.2.37-14.2.49-1.2.98-2.5,1.85-3.7s1.97-2.3,3.32-3.2,2.95-1.6,4.68-2,3.45-.6,5.29-.5c3.57.2,6.89,1.2,9.6,2.9,2.71,1.6,4.68,3.8,6.28,6,2.95,4.5,3.94,9.4,4.06,13.9.12,4.5-.74,8.7-1.85,12.6-1.11,3.8-2.34,7.3-3.57,10.5-2.46,6.3-4.92,11.3-6.65,14.7-1.85,3.6-3.08,5.4-3.32,5.4h0ZM72.51,276.8c.86.6-1.72,4.4-4.8,9s-5.79,8.4-6.77,8c-.98-.3,0-4.8,3.32-9.6,3.2-4.9,7.39-7.9,8.25-7.4Z"/>
  <path class="cls-5" d="m16.99,241.6c.25-.2.98.5,2.71.7.86.1,1.85.1,3.08-.2,1.11-.3,2.34-.8,3.45-1.6.49-.4.98-.9,1.35-1.5s.62-1.2.86-1.9c.37-1.4.37-3,.12-4.7-.12-.9-.37-1.7-.62-2.6s-.62-1.7-.98-2.6c-.86-1.6-2.22-3.3-3.82-4.1-1.6-.8-3.45-.6-4.8.3-1.35.9-2.34,2.6-2.95,4.2-1.11,3.3-1.11,6.5-.49,9.1s1.85,4.4,3.2,5.3,2.34,1.2,2.34,1.5c0,.2-1.23.4-3.2-.4-1.97-.7-4.06-2.9-5.17-5.8-.98-2.9-1.48-6.5-.25-10.4.62-1.9,1.6-4.1,3.94-5.8,1.23-.9,2.83-1.5,4.43-1.6,1.72-.2,3.57.2,4.92.9,1.48.7,2.58,1.7,3.45,2.6.86,1,1.48,2,1.97,3,.49,1,.86,2.1,1.11,3.1s.37,2,.49,3c.25,2,0,3.9-.62,5.7-.37.9-.86,1.7-1.35,2.5-.62.7-1.35,1.4-2.09,1.9-3.2,2-6.77,2-8.74,1.3-2.09-.8-2.58-1.8-2.34-1.9h0Zm179.96,69c.25-.1.98.6,2.34,1.9.62.6,1.23,1.4,2.09,2.2.12.1.25.2.37.4l.12.2s0,.1.12.1l.12-.1c.37-.2.74-.4.98-.7l.25-.2c.12-.1.25-.3.37-.4.25-.3.37-.6.49-.9.37-.6.62-1.4.74-2.1.12-.8.25-1.6.25-2.5v-2.8c-.12-1.9-.25-3.9-.62-5.9s-.74-4.2-1.72-5.8c-.25-.4-.49-.8-.86-1.1-.25-.3-.62-.5-1.11-.7-.86-.4-1.72-.5-2.34-.4s-1.23.5-1.72,1.2-.98,1.5-1.35,2.4c-1.48,3.4-1.72,6.8-1.35,9.6.37,2.8,1.23,5,1.97,6.5s1.23,2.3.98,2.5c-.25.1-1.11-.5-2.34-1.9s-2.58-3.7-3.32-6.7c-.74-3-.86-6.9.74-10.9.49-1,.86-2,1.6-3.1.74-1,2.09-2.2,4.06-2.6s3.82,0,5.29.7c.74.4,1.48.8,2.09,1.4.62.5.98,1.1,1.35,1.7.74,1.2,1.11,2.4,1.35,3.6.25,1.1.49,2.2.62,3.3.25,2.2.37,4.3.37,6.3,0,1-.12,2-.12,2.9-.12,1-.25,1.9-.62,2.9-.25.9-.62,1.8-1.11,2.6-.25.4-.49.8-.86,1.2-.12.2-.37.4-.49.5l-.74.6c-.98.8-2.22,1.1-3.2,1.4l-.37.1c-.12,0-.12-.2-.25-.2-.12-.2-.25-.4-.49-.5-.25-.3-.62-.7-.86-1.1-.62-.8-.74-1.2-1.11-1.7-.25-.5-.49-.9-.74-1.2-.86-1.7-1.23-2.6-.98-2.7h0ZM352.05,53c.12,0,.25.3.49.6s.86.7,1.85.9c.86.2,2.22.1,3.08-.6.98-.7,1.6-1.9,1.97-3.4.62-3.1,1.11-7.1.49-11.3-.25-2.1-.86-4.2-1.97-6.2-.49-1-1.23-2-1.97-2.9-.86-.9-1.72-1.8-2.71-2.2-.98-.5-1.97-.6-2.83-.4s-1.85.8-2.58,1.6c-.74.8-1.35,1.7-1.72,2.7-.37,1-.74,1.9-.74,2.9-.49,4.2.25,8,1.35,11.1,2.34,6.2,5.79,9.3,5.29,9.7-.25.1-1.23-.5-2.83-1.9s-3.57-3.8-5.17-7-2.71-7.4-2.34-12.1c.12-2.4,1.11-5,3.08-7.3.98-1.1,2.46-2.2,4.55-2.7s4.43-.1,6.03.8c1.72.9,2.83,2,3.82,3.1s1.85,2.3,2.34,3.5c1.23,2.4,1.85,4.9,2.09,7.2.25,2.3.12,4.5-.25,6.5-.25,2-.74,3.8-1.23,5.6-.62,1.7-1.6,3.4-3.32,4.3-.86.5-1.85.7-2.71.7s-1.6-.2-2.22-.4c-1.23-.5-1.97-1.3-1.97-1.9-.25-.6,0-.9.12-.9h0Z"/>
  <circle class="cls-11" cx="804.99" cy="164.95" r="1.6" transform="translate(41.2 467.99) rotate(-33.22)"/>
  <path class="cls-5" d="m981.66,167c-.37-.4,1.85-1.8,2.95-5,.49-1.5.62-3.5-.12-5.4-.37-.9-1.11-1.7-1.97-2-.74-.3-1.48-.2-2.46.4-.62.4-1.23,1-1.72,1.7s-.86,1.4-1.23,2.2c-.74,1.5-.98,2.9-.86,4.1.12.6.25,1.1.62,1.5.37.5.74.8,1.11,1.1.86.6,1.85.8,2.58.7l-.37,1.3c-1.11-1.3-1.6-2.1-1.35-2.3.25-.2,1.23.3,2.71,1.2l1.11.7-1.48.6c-1.23.4-3.08.4-4.68-.3-.86-.4-1.6-.9-2.22-1.6-.62-.7-1.11-1.6-1.35-2.5-.49-1.8-.12-3.8.62-5.6.37-.9.74-1.8,1.48-2.8.62-.9,1.48-1.8,2.58-2.6.86-.6,1.97-1,3.2-1.2s2.46.1,3.57.5c2.09,1,3.08,2.5,3.57,3.8.98,2.8.37,5.3-.74,7.1s-2.46,3-3.57,3.6c-1.11.9-1.85,1-1.97.8ZM119.53,234.5c.49.8-4.92,3.6-10.46,7.9-5.66,4.2-9.35,8.4-10.34,8-.49-.2-.12-1.6,1.11-3.6s3.45-4.5,6.52-6.8,6.28-3.9,8.74-4.8c2.58-.9,4.19-1.1,4.43-.7h0Zm55.64-36.3c.49.8-2.83,2.9-6.89,5.2-4.06,2.3-7.63,4.2-8.37,3.5-.74-.6,1.72-3.7,6.15-6.2,4.31-2.5,8.74-3.3,9.11-2.5h0Zm73.12-33.6c.37.9-6.15,3.7-14.28,7s-14.89,5.8-15.39,5c-.62-.8,5.29-4.6,13.66-7.9,8.25-3.4,15.63-4.9,16-4.1Zm77.3-15.4c0,.9-7.75,1.9-17.23,3.4s-17.23,2.9-17.6,2c-.37-.8,7.02-3.7,16.86-5.2,9.72-1.6,17.97-1.1,17.97-.2Zm81.86-4.3c-.12.9-9.11.6-20.19.6s-19.94.4-20.19-.5c-.12-.9,8.74-2.7,20.19-2.8,11.32,0,20.31,1.9,20.19,2.7Zm94.78,13.3c-.25.9-10.22-.5-22.53-2.2-12.19-1.7-22.28-3.1-22.16-4s10.34-.9,22.77.8c12.56,1.7,22.16,4.6,21.91,5.4Zm78.65,16.6c-.37.9-9.85-1.4-21.54-3.7-11.69-2.4-21.29-4-21.17-4.9s10.09-.7,22.03,1.7c12.06,2.4,21.05,6,20.68,6.9Zm78.41,34.7c-.86.7-8.86-4.8-19.94-9.9-11.08-5.2-20.93-8.1-20.56-9,.12-.4,2.83-.2,7.02.7,4.19,1,9.85,2.8,15.51,5.5,5.79,2.7,10.46,5.7,13.66,8.2,3.2,2.4,4.68,4.2,4.31,4.5h0Zm46.16,34.4c-.86.6-6.52-4-14.4-8.6-7.75-4.7-14.89-7.6-14.52-8.5.25-.4,2.34-.2,5.42.8,3.08.9,7.26,2.6,11.45,5.1s7.39,5.1,9.48,7.3c2.09,2,2.95,3.6,2.58,3.9h0Zm30.4,40.9c-.98.4-5.17-4.3-10.22-10-5.17-5.7-9.35-10.4-8.62-11s6.52,3.2,11.82,9.1c5.29,5.9,8,11.5,7.02,11.9h0Zm-263.17-51.3c1.11.3-1.11,6.6-3.32,14.4-2.34,7.7-4.06,14.1-5.17,14s-1.11-6.8,1.35-14.8c2.22-8,6.15-13.9,7.14-13.6h0Zm49.24-78.8c.86.6-2.58,4.5-6.4,9.2-3.94,4.7-6.89,8.7-8,8.4-.98-.3.49-5.2,4.68-10.2,4.06-5,8.99-8,9.72-7.4Zm68.68-45.1c.49.8-5.42,3.6-12.56,6.9-7.14,3.3-13.05,6-13.79,5.2-.62-.7,4.31-4.7,11.82-8.1,7.39-3.3,14.16-4.8,14.52-4h0Zm106.84-27.3c.12.9-10.34,2.8-23.26,5.2-12.92,2.3-23.39,4.3-23.63,3.4-.37-.8,9.72-4.2,22.77-6.6,13.05-2.5,24-2.9,24.13-2h0Zm92.56,8.8c-.37.9-9.35-.8-20.68-1.6-11.2-.9-20.56-.8-20.68-1.7,0-.4,2.22-1.1,6.03-1.5s9.11-.6,15.02-.1c5.79.5,11.08,1.5,14.65,2.5,3.69,1,5.79,2,5.66,2.4h0Zm70.9,21.9c-.74.7-7.39-2.7-16-6.2s-16-5.9-15.63-6.8c.25-.8,8.49.2,17.48,3.9,8.99,3.7,14.89,8.5,14.16,9.1Zm62.41,44.3c-1.11.4-4.8-5.5-12.06-10.7-7.14-5.3-14.77-7.7-14.4-8.6.12-.4,2.34-.4,5.54.5,1.6.4,3.45,1.1,5.54,2,1.97.9,4.06,2.1,6.03,3.5s3.57,3,5.05,4.5c1.35,1.5,2.34,2.9,3.08,4.2,1.48,2.6,1.72,4.4,1.23,4.6Zm50.71,55.1c-.98.4-5.66-5.6-12.43-12.4-6.65-6.8-12.92-11.8-12.19-12.6.37-.3,2.34.5,5.29,2.3,2.83,1.8,6.52,4.7,10.09,8.2,3.45,3.5,6.15,7.1,7.63,9.8,1.6,2.6,2.09,4.5,1.6,4.7ZM388.97,95.4c.86.6-2.46,4.9-6.4,10.1-3.94,5.2-7.14,9.5-8.12,9.2s.62-5.4,4.8-10.9c4.06-5.4,8.86-8.9,9.72-8.4h0Zm63.02-50.6c.62.8-7.51,5.5-16.49,12.3-8.99,6.7-15.26,13-16.25,12.5-.49-.3.62-2.2,2.95-5s6.03-6.4,10.59-9.9c4.68-3.5,9.35-6.2,12.92-7.9,3.57-1.7,6.03-2.4,6.28-2h0Zm60.07-25.6c.37.9-6.89,4-15.88,7.8-8.99,3.8-16.37,6.8-16.99,6-.62-.7,6.03-5.1,15.14-8.9,9.23-3.8,17.36-5.7,17.73-4.9Zm71.88-12.5c0,.9-9.11,1.4-20.06,2.5s-19.82,2.4-20.19,1.5c-.37-.8,8.37-3.6,19.69-4.8,11.45-1.1,20.68-.1,20.56.8Zm64.38,14.3c-.74.7-7.39-2.8-16.25-5.9-8.86-3.2-16.49-4.8-16.37-5.7.12-.4,2.22-.6,5.54-.2s7.75,1.3,12.43,2.9c4.68,1.7,8.62,3.7,11.08,5.5,2.58,1.7,3.82,3,3.57,3.4Zm78.16,28.5c-.98.6-7.63-6.3-18.09-12.9-10.22-6.7-20.06-10.4-19.69-11.3.25-.4,2.95,0,7.14,1.4s9.6,3.8,15.02,7.3c5.42,3.5,9.6,7.2,12.19,10.2,2.71,3,3.82,5,3.45,5.3h0Zm76.07,110.6c-.62.1-1.48-2.5-2.58-6.6s-2.46-9.8-4.68-15.8c-1.11-3-2.34-5.8-3.57-8.3-.74-1.2-1.23-2.4-1.97-3.5-.37-.5-.62-1.1-.98-1.6s-.62-1-.98-1.4c-2.46-3.6-4.43-5.7-3.94-6,.37-.3,3.08,1.3,6.28,4.7.37.4.86.9,1.23,1.4s.74,1,1.23,1.6c.86,1.1,1.6,2.3,2.46,3.6,1.48,2.6,2.95,5.5,4.06,8.7,2.22,6.3,3.2,12.1,3.57,16.4.49,4.1.37,6.8-.12,6.8h0Zm12.56,55.7c-1.11-.1-1.23-7.2-2.58-15.9-1.23-8.7-3.2-15.6-2.09-15.9.98-.3,4.8,6.5,6.03,15.5,1.35,9.1-.25,16.4-1.35,16.3h0Zm-12.31,67.2c-1.11-.4.86-5.3,1.48-11.5s-.37-11.3.74-11.5c.49-.1,1.48,1.1,2.22,3.2.74,2.1,1.35,5.2.98,8.6-.37,3.4-1.48,6.4-2.58,8.4-1.23,1.9-2.34,2.9-2.83,2.8Z"/>
</svg>