<?xml version="1.0" encoding="utf-8"?>
<!-- Generator: Adobe Illustrator 27.8.1, SVG Export Plug-In . SVG Version: 6.00 Build 0)  -->
<svg version="1.1" id="IdentifyCustomer" xmlns="http://www.w3.org/2000/svg" xmlns:xlink="http://www.w3.org/1999/xlink" x="0px"
	 y="0px" viewBox="0 0 1600 1200" style="enable-background:new 0 0 1600 1200;" xml:space="preserve">
<style type="text/css">
	.st0{fill:#22BEE6;}
	.st1{fill:#FFFFFF;}
	.st2{opacity:0.68;fill:#22BEE6;enable-background:new    ;}
	.st3{opacity:0.68;fill:#22BEE6;stroke:#03FF60;stroke-miterlimit:10;enable-background:new    ;}
	.st4{opacity:0.68;fill:#22BEE6;stroke:#03FF60;stroke-width:1;stroke-miterlimit:9.9996;enable-background:new    ;}
	.st5{opacity:0.68;fill:none;stroke:#03FF60;stroke-width:4;stroke-miterlimit:10;enable-background:new    ;}
	.st6{fill:#91CAD9;}
	.st7{fill:#7ED2E8;}
	.st8{stroke:#24F06F;stroke-miterlimit:10;}
</style>
<path class="st0" d="M655.4,344.6c-6.3,7.6-6.2,18.1-6,23.8c0.6,15.8,3.1,33.2,12,62.9c3.3,11.1,4.7,14.3,6,14.2
	c3.1-0.3,3.5-20.2,4-39c0.5-24,5.3-38.4-0.5-54.3c-1.3-3.5-4.2-11.4-9-11.7C659,340.4,656.6,343.2,655.4,344.6z M523.6,370.5
	c-10.4-18.7-14.6-35.3-16.4-46.7c-2.3-13.9-6.5-39.4,5.5-47.7c3.9-2.7,9.7-3.7,14-1.5c2.1,1.1,6.5,4.3,8,21.8
	c1.1,12.9-0.1,25.6-5.5,50.7C527,356.9,525,364.9,523.6,370.5L523.6,370.5z M786.9,172.1c-12-23.4-16.4-43.4-18.3-56.7
	c-2-13.8-4.1-30.2,4.6-36.5c3.6-2.6,9-3.3,13-1.6c7.8,3.4,9.1,15.1,10.7,29.5c2.8,24.9-2.2,43.2-3.8,48.9
	C790.9,162.8,788.5,168.3,786.9,172.1L786.9,172.1z M1288.5,274.6c-7.4-11.5-17.1-30.6-13.8-49.7c0.7-4,2-11.4,6.9-13.2
	c4.8-1.8,11.4,2.6,14.6,7.8s2.3,10.7-0.8,24.9C1293.5,253.2,1291.2,263.4,1288.5,274.6z"/>
<ellipse class="st1" cx="659.4" cy="377.3" rx="7.1" ry="11.7"/>
<ellipse class="st1" cx="526.6" cy="305.7" rx="7.2" ry="11.2"/>
<ellipse class="st1" cx="781.6" cy="114.1" rx="7.5" ry="14.8"/>
<ellipse class="st1" cx="1144.6" cy="233.3" rx="4" ry="5.1"/>
<path class="st2" d="M949.7,451.7H764.1c-6.5,0-11.8-5.4-11.8-12v-37.5c0-6.6,5.3-12,11.8-12h185.6c6.5,0,11.8,5.4,11.8,12v37.5
	C961.5,446.3,956.2,451.7,949.7,451.7z M811,564.3h-34.5c-6.5,0-11.8-5.4-11.8-12v-58.5c0-6.6,5.3-12,11.8-12H811
	c6.5,0,11.8,5.4,11.8,12v58.5C822.8,558.9,817.5,564.3,811,564.3z"/>
<path class="st3" d="M967.2,478.4c-0.1,0.5-3.4,0.1-8.7,0.9c-2.7,0.3-5.7,1-9.2,1.7c-3.4,0.8-7.3,1.7-11.5,2.3
	c-8.4,1.3-16.2,0.2-21.5-1.4c-5.3-1.6-8.2-3.5-8.1-3.9c0.2-0.5,3.3,0.6,8.6,1.6c5.2,1,12.5,1.7,20.5,0.4c4-0.6,7.9-1.4,11.4-2
	s6.8-1,9.6-1.1C963.9,476.8,967.3,478.1,967.2,478.4z M927.5,492.3c0.1,0.9-4.6,2.2-10.6,2.7s-10.9,0-10.9-0.9s4.7-1.9,10.6-2.4
	C922.5,491.2,927.4,491.4,927.5,492.3L927.5,492.3z M969.3,501.1c0,0.9-11.1,1.5-24.8,2.3c-13.7,0.7-24.8,1.3-24.9,0.4
	s10.9-2.9,24.7-3.6C958.1,499.4,969.3,500.3,969.3,501.1L969.3,501.1z"/>
<ellipse transform="matrix(0.9999 -1.079090e-02 1.079090e-02 0.9999 -5.5 10.0069)" class="st4" cx="924.6" cy="514.7" rx="12.2" ry="1.6"/>
<ellipse class="st3" cx="938.7" cy="528.4" rx="27" ry="1.6"/>
<path class="st5" d="M1268.3,409.8h-148.6c-6.5,0-11.8-5.4-11.8-12v-8.9c0-6.6,5.3-12,11.8-12h148.6c6.5,0,11.8,5.4,11.8,12v8.9
	C1280.1,404.4,1274.8,409.8,1268.3,409.8z"/>
<path class="st3" d="M1247.6,386c0,0.4-7,1.2-18.3,1.9c-11.3,0.7-27,1.4-44.3,1.8c-17.3,0.4-33,0.4-44.3,0.2s-18.4-0.6-18.4-1
	c0-0.5,7-0.9,18.3-1.3s27-0.8,44.3-1.2c17.3-0.4,33-0.7,44.3-0.8C1240.6,385.4,1247.6,385.5,1247.6,386z"/>
<ellipse class="st3" cx="1139.2" cy="395.1" rx="0.4" ry="1.6"/>
<path class="st3" d="M1182.7,395.5c0.1,0.9-9.7,2.3-22,2.4s-22.1-1.3-22-2.1c0.1-0.9,9.8-1.1,22-1.1
	C1172.9,394.6,1182.7,394.6,1182.7,395.5L1182.7,395.5z M1251.2,400.4c-0.1,0.5-3.1,0.2-7.8-0.1c-2.4-0.2-5.2-0.3-8.4-0.4
	c-3.2-0.1-6.6-0.1-10.2-0.1c-7.3,0.1-13.9,0.2-18.6,0.3c-4.8,0-7.8-0.2-7.8-0.6s2.9-1.1,7.7-1.7c4.7-0.6,11.4-1.2,18.8-1.2
	c3.6,0,7.2,0.1,10.4,0.4c3.2,0.3,6,0.6,8.5,1.1C1248.5,398.9,1251.3,399.9,1251.2,400.4L1251.2,400.4z M1281.5,430.9
	c0,0.9-16.4,2.3-36.8,1.8s-36.7-2.9-36.6-3.7c0.1-0.9,16.4,0,36.7,0.5C1265,430,1281.5,430,1281.5,430.9L1281.5,430.9z
	 M1223.9,439.8c0,0.9-6.4,1.6-14.3,1.6c-5.1,0-9.7-0.3-12.1-0.8l0.7-1.4c0.1,0.4,0.5,0.7,0.7,0.8c0.3,0.2,0.5,0.3,0.5,0.4
	s-0.1,0.4-0.6,0.5c-0.5,0.1-1.3,0-2-0.7l-1-1.1l1.7-0.3c2.6-0.5,7-0.8,12.1-0.8C1217.5,438.1,1223.9,438.9,1223.9,439.8
	L1223.9,439.8z M1281.6,446.7c0.1,0.9-19.1,3-42.7,4.7c-23.7,1.7-42.9,2.4-43,1.5c-0.1-0.9,19.1-3,42.7-4.7
	C1262.2,446.4,1281.5,445.8,1281.6,446.7z M1237.6,460.8c0.1,0.9-6,2.4-13.6,2.6c-7.7,0.3-13.8-0.8-13.8-1.7c0-0.9,6.1-1.3,13.7-1.6
	C1231.3,460,1237.5,459.9,1237.6,460.8z M1275.1,472.1c-0.1,0.5-4.6-0.2-11.8-0.4c-0.9,0-1.9-0.1-2.9-0.1h-3.1
	c-2.2,0-4.4,0.1-6.8,0.1c-4.8,0.2-10,0.6-15.7,1.2c-11.1,1.2-21.2,2.6-28.5,3.2c-7.4,0.6-11.9,0.6-11.9,0.2c0-0.5,4.4-1.2,11.7-2.4
	c7.2-1.2,17.2-2.9,28.5-4.1c5.6-0.6,11-0.9,15.9-1c2.5,0,4.8,0,7,0.2c1.1,0.1,2.2,0.1,3.2,0.2s2,0.2,2.9,0.3
	C1270.7,470.3,1275.1,471.8,1275.1,472.1L1275.1,472.1z M1267.8,483.4c-0.1,0.5-3.3,0-8.5,0.1h-2.1c-0.7,0-1.5,0.1-2.2,0.1
	c-1.5,0.1-3.2,0.3-4.8,0.4c-3.4,0.4-7.1,1-11,1.6c-3.9,0.7-7.7,1.3-11.2,1.8c-3.4,0.5-6.6,0.7-9.3,0.8c-5.3,0.1-8.6-0.5-8.6-0.9
	c0-0.5,3.2-0.7,8.4-1.4c2.6-0.3,5.6-0.9,9.1-1.5c3.4-0.6,7.1-1.3,11.1-2c3.9-0.7,7.8-1.2,11.3-1.4c1.8-0.1,3.4-0.2,5-0.1
	c0.8,0,1.6,0,2.3,0.1s1.5,0.1,2.1,0.2C1264.8,481.7,1267.9,483,1267.8,483.4L1267.8,483.4z"/>
<path class="st6" d="M829.2,458.6c1.4,7.7,4.2,18.2,10.1,29.5c8,15.4,18.1,25.5,24.9,31.4c5.8,18,13.5,37.9,23.7,59.1
	c14.3,29.6,30,54,44.5,73.6c0.2-11.7,1.2-24.9,3.5-39.2c1.5-9.1,3.3-17.6,5.3-25.3c-3.4-3.2-8.2-7.9-13.7-13.9
	c-16.4-18-28.8-31.5-34.5-50.6c-2.1-7,0.2-3.2-4.7-36.8c-3.9-26.7-3.6-17.4-4.7-27.7c-1-8.7-1.2-15.8-3.5-16.3
	c-2.2-0.4-4.9,5.1-5.3,6c-3.8,7.7-2.1,14.9-3,15.1c-1.2,0.2-4.4-12.5-8.3-25.9c-3.9-13.9-6.2-20.2-11.9-22.9
	c-0.8-0.4-4.4-2.1-7.7-0.6c-3.2,1.5-4.4,5.6-5.3,10.3c-2.1,10.5-3.7,18.8-1.2,32.6c2.2,11.9,5.8,18.7,4.7,19.3
	C841.5,476.5,838.6,473.9,829.2,458.6L829.2,458.6z M980.5,892.2c-5.3,10.2-11.7,25.1-14.9,44c-2,12-2.3,22.7-1.8,31.4
	c13.1,30.8,26.1,61.5,39.2,92.3c3.7-2,9.4-4.4,16.6-5.4c10.6-1.5,19.2,0.8,23.7,2.4c-3-15.4-5.1-27.9-6.5-36.2
	c-4.7-27.9-5.5-37.3-10.1-52.5c-4-13.4-8.7-23.7-11.9-30.1c2.9-3.2,6.7-7.9,10.7-13.9c8.8-13,13.2-19.7,13.1-28.3
	c-0.2-10.4-7.1-22.5-17.8-26.5C1007,864.1,988,872.9,980.5,892.2L980.5,892.2z M1117.1,910.3c1.9,5.3,4.4,13.2,6.5,22.9
	c1.4,6.3,2.3,11.9,4.1,28.9c3,26.1,2.4,25.9,3.5,33.2c1.5,8.8,4.3,21.3,10.7,36.2c5.6-1.1,12.4-1.9,20.2-1.8
	c5.3,0.1,10,0.5,14.3,1.2c-0.2-8.2-0.7-19.8-1.8-33.8c-3.1-39.5-6.4-41.2-13.7-93.5c-4.1-29.4-4.5-39.8-12.5-43.4
	c-9-4.1-21.8,3-28.5,11.5C1111.9,882,1110.7,897,1117.1,910.3L1117.1,910.3z M1128.9,486.4c2.5,8.4,6.3,13.3,9.5,16.3
	c5.3,5,9.3,4.9,11.9,10.3c0.8,1.6,1.1,2.9,2.4,13.9c0.5,4.1,0.9,7.6,1.2,10.3c8,13.1,15.9,26.1,23.7,39.2
	c5.3,8.8,10.7,17.7,16.1,26.5c0.7-13.2-0.2-24.3-1.2-32.6c-1-8-2.9-22-8.9-38.6c-4.4-12.1-6.8-13.9-8.9-24.1c-2-9.6-0.5-11.3-3-22.9
	c-0.8-3.7-3-9.7-7.1-21.7c-2.6-7.4-4.1-11.4-8.3-13.9c-1.1-0.6-4.4-2.4-7.7-1.8c-6.4,1.2-11.8,11.4-11.3,25.3
	c3.2,9.4,3.3,16.6,0.6,18.1C1135.3,492,1130.8,488,1128.9,486.4L1128.9,486.4z"/>
<path class="st7" d="M1025.1,381.4c-5.7,21.2-6.9,38.6-6.9,50.8c0,23.7,4.5,36.4,1.6,60.2c-1.9,14.4-5.5,26-8.5,33.6
	c4.3-2.1,8.8-4.2,13.1-6.3c0.1,4.5,0.5,10.8,2.3,18c1.2,4.8,3.6,14.3,10.7,24.2c6.8,9.4,14.3,14.5,18.5,17.2
	c12.9,8.5,17.9,4.2,36.9,12.5c13.6,5.9,14.5,9.4,20,8.6c12.7-1.8,21.9-21.6,23.8-37.5c0.5-3.9,1-10.7-5.4-38.3
	c-4.3-18.7-6-22-9.3-35.2c-10-41.2-12.3-71.9-12.3-71.9c-0.7-8.9-1.3-22.6-10.7-32.8c-2.6-2.8-5-4.5-10-7.8
	c-10.6-7.2-18.3-12.4-29.2-13.3c-3.8-0.3-14.7-1-24.6,6.3C1029.7,373.6,1026.6,378.4,1025.1,381.4L1025.1,381.4z"/>
<path class="st0" d="M947.1,665.2c-3.4-2.1-5.1-7.2-3.6-36.9c0.8-15,2-27.5,2.9-36.4c14.8-10.3,26.2-18.6,33.7-24
	c6.1-3.1,10.8-6.4,14.2-9.1c5.6-4.4,8.5-6.6,9.7-9.1c1.2-2.2,2-4.9,4.6-6.3c1.7-0.9,3.4-0.9,4.6-0.8c1.1,4.9,3.6,13.4,10.1,21.5
	c12.3,15.3,32.9,21.9,35.7,18.1c1.9-2.5-3.5-9-2.5-9.8s6.4,6.5,12.8,11.7c13.4,10.6,36,14.7,46.6,5.1c3.7-3.4,7-9.4,8.1-15.4
	c0.6-3.6,1.8-14.1,4-18.5c2-3.8,3.3-4.4,4.7-6.9c2.9-5-6.4-26.2-3.3-28.8c1.6-1.3,7,1.6,15.6,9.6c9.9,9.3,18.1,20.1,31,43.2
	c8.1,14.4,12.1,21.6,13.8,27.6c4.1,15,2.8,27.3,1.2,40.6c-2,17-3.1,26.7-9.1,28.9c-9.3,3.4-22.6-13.8-23.2-14.6
	c1.1,8.6,2.9,22.7,5.2,40.1c7.9,59.1,9.3,64.7,8.8,80.9c-0.7,25.4-1.5,38.1-3.4,46.8c-0.7,3-2.7,10.8-1.8,20.9
	c0.6,7.4,2.5,13.4,3.9,17.2c0,2.4,0,5.8-0.3,9.9c-0.6,9-1,14-3.1,18.2c-2.3,4.5-6.5,8.1-14.6,11.3c-47.1,18.9-97.5,12.7-97.5,12.7
	c-18.6-2.3-45.2-7.5-75.6-20.6c2-8,5.3-19.6,10.3-33.1c4-10.6,7.7-18.6,17.1-37.8c22.1-44.8,21.9-41.9,24.3-49.4
	c5.8-18,5.9-31.7,6.1-56.5c0.1-17.5,0.1-52-13.5-58.3c-1.7-0.8-4.4-1.5-8.1-4.1c-5.4-3.9-7.7-12.7-12.1-13.7
	c-2.8-0.6-4.6,2.1-9.5,5.9c-3.8,3.1-8.7,5.6-18.3,10.5C961.6,664,952.6,668.6,947.1,665.2L947.1,665.2z M1006.1,1058.8
	c8.4,18.2,14.5,33.2,18.8,44.2c3.2,8.2,6.2,16.5,3.9,18.1c-2,1.4-7.1-2.7-11.3-6.5c-13.4,6.6-23.2,11.4-28.7,14
	c-15.1,7.4-23.6,11.5-23.2,16.1c0.2,2.3,2.5,3.9,4.4,5c43.1-3.5,69-4.2,85-3.5c4.2,0.2,15.9,0.8,18.3-4.5c1.6-3.5-1.4-7.8-3.9-12
	c-5.8-9.6-9.4-19.6-16.3-39.6c-7.4-21.1-3.7-25.8-9.8-31.1C1038.1,1054.4,1027.9,1051.3,1006.1,1058.8L1006.1,1058.8z M1144,1032.3
	c2.8,9.4,4.1,17.3,4.9,23.1c1.7,12.2,3.2,24.1-2,27.1c-2.4,1.4-3.6-0.5-7.9,0c-7.4,0.8-12.2,7.2-19.3,16.6c-3.1,4-7,9.9-10.8,17.6
	c14.1,0.2,28.8,0.1,44-0.5c9-0.4,17.7-0.9,26.2-1.5c0.3-17.3-0.3-35.9-2-55.7c-0.8-9.2-1.8-18.1-3-26.6
	C1164.1,1032.3,1154.1,1032.3,1144,1032.3z"/>
<path class="st8" d="M1011.4,530.2c0.1,0,0,0.7-0.6,1.7c-0.6,1-1.6,2.5-3.4,3.9c-0.2,0.1-0.5,0.4-0.9,0.6c-0.3,0.2-0.7,0.4-1,0.6
	c-0.7,0.4-1.5,0.6-2.3,0.9c-0.4,0.1-0.8,0.2-1.3,0.4c-0.2,0.1-0.5,0.1-0.7,0.2c0-0.2,0.1-0.4,0.1-0.6c0.1-0.4,0.2-0.9,0.3-1.3
	c0-0.2,0.1-0.4,0.1-0.7c0.1-0.3,0.1-0.5,0.2-0.8c0.5-1.7,1-3.5,1.6-5.5c0.4-1.7,0.8-3.5,1.2-5.5c1.7-7.7,3-16.9,3.6-27.3
	s0.8-21.8,0.7-33.8c-0.1-12-0.2-23.6,0.2-34c0.1-2.6,0.2-5.2,0.4-7.7s0.4-4.9,0.6-7.2c0.6-4.6,0.9-9,1.7-12.9
	c0.7-3.9,1.8-7.5,3.1-10.4c1.3-3,2.8-5.3,4.2-7c1.5-1.7,2.9-2.8,3.8-3.4c1-0.6,1.6-0.8,1.7-0.7c0.2,0.3-2,1.5-4.5,5
	c-1.3,1.7-2.6,4-3.5,6.9s-1.9,6.3-2.5,10.1c-0.6,3.8-0.9,8.2-1.3,12.7c-0.1,2.3-0.3,4.7-0.4,7.1c-0.1,2.5-0.2,5-0.2,7.6
	c-0.2,10.4-0.1,21.9,0,33.9c0.1,12.1-0.1,23.6-1,34.1c-0.8,10.5-2.5,19.9-4.3,27.6c-0.5,1.9-1,3.8-1.5,5.5c-0.3,0.9-0.6,1.7-0.8,2.5
	c-0.3,1-0.4,1.1-0.6,1.6c-0.2,0.5-0.3,0.9-0.5,1.3l-0.1,0.3h0.3c0.2,0,0.4-0.1,0.6-0.1c0.4-0.1,0.8-0.2,1.1-0.4
	c0.2-0.1,0.4-0.2,0.5-0.3c0.2-0.1,0.3-0.2,0.6-0.3c1.8-1.1,2.9-2.4,3.6-3.2C1011,530.7,1011.3,530.2,1011.4,530.2L1011.4,530.2z
	 M1107.8,592.4c0,0.1-0.4,0.2-1.2,0.4c-0.4,0.1-0.9,0.2-1.4,0.3c-0.6,0.1-1.2,0.2-2,0.2c-3,0.3-7.4,0.3-12.7-0.5
	c-5.4-0.8-11.7-2.7-18.3-6c-3.2-1.7-6.6-3.8-9.7-6.3c-0.6-0.4-1.1-0.9-1.7-1.3c-0.2-0.2-0.4-0.3-0.6-0.5l-0.5-0.5l-0.1-0.1l0.1,0.1
	c0.1,0.1,0.1,0.3,0.2,0.4c0.2,0.5,0.3,0.9,0.4,1.5l0.3,2.7l0.1,1.3v1l-0.3-0.1c-0.9-0.2-1.7-0.2-2.6-0.5c-0.8-0.2-1.6-0.3-2.4-0.5
	c-10-2.3-18.7-7.5-25.2-13.5c-0.4-0.4-0.8-0.7-1.2-1.1c-0.4-0.4-0.8-0.8-1.1-1.2c-0.8-0.8-1.5-1.6-2.2-2.3c-0.7-0.8-1.3-1.6-2-2.4
	c-0.7-0.8-1.3-1.6-1.8-2.4c-1.1-1.6-2.3-3.2-3.1-4.8c-0.5-0.8-0.9-1.6-1.3-2.4c-0.4-0.8-0.7-1.6-1.1-2.3c-0.4-0.8-0.7-1.5-1-2.2
	c-0.3-0.8-0.5-1.5-0.8-2.2s-0.5-1.4-0.7-2.1c-0.2-0.7-0.4-1.4-0.6-2c-0.3-1.3-0.7-2.5-0.9-3.6c-0.2-1.1-0.3-2.2-0.5-3.1
	c-0.2-0.9-0.2-1.8-0.2-2.5v-1.8c0-1,0.1-1.5,0.2-1.5s0.3,0.5,0.5,1.4c0.1,0.5,0.2,1.1,0.3,1.8c0.1,0.7,0.2,1.5,0.5,2.4
	c0.2,0.9,0.5,1.9,0.7,3s0.7,2.2,1.1,3.4c0.2,0.6,0.4,1.3,0.7,1.9c0.3,0.6,0.6,1.3,0.8,2l0.9,2.1c0.4,0.7,0.7,1.4,1.1,2.1
	c0.4,0.7,0.7,1.5,1.2,2.2s0.9,1.5,1.4,2.2c0.9,1.5,2,3,3.1,4.5c0.5,0.8,1.2,1.5,1.8,2.3c0.6,0.7,1.3,1.5,2,2.3l2.2,2.2l1.1,1.1
	c0.4,0.3,0.8,0.7,1.2,1c6.3,5.6,14.5,10.4,23.9,12.6c0.4,0.1,0.7,0.1,1.1,0.2v-0.7l-0.1-0.6c0-0.3-0.1-0.5-0.2-0.7
	c-0.1-0.5-0.2-0.9-0.4-1.4c-0.1-0.5-0.3-1-0.5-1.5l-0.3-0.8l-0.5-1l-1.1-2.3l-1.4-2.7c-1.1-2-2.1-4.1-3.1-6.1l1.3,1.3l0.6,0.6
	l0.2,0.1l0.1,0.1l0.3,0.3l1.1,1.1c1.4,1.5,2.8,3,4.1,4.4c1.4,1.5,2.9,2.9,4.2,4.3c0.3,0.3,0.7,0.6,1,0.9l0.9,0.7
	c0.4,0.3,0.8,0.6,1.1,0.9c3.1,2.4,6.1,4.5,9.3,6.2c6.2,3.4,12.2,5.4,17.4,6.5c5.1,1.1,9.5,1.4,12.3,1.4c0.7,0,1.4,0.1,2,0h1.5
	C1107.4,592.2,1107.8,592.3,1107.8,592.4L1107.8,592.4z M1079,370.6c0,0.2-0.8,0.3-2.2,0s-3.2-1.1-5.4-2.1c-1.1-0.5-2.3-1.1-3.4-1.6
	c-1.3-0.5-2.7-0.9-4-1.3c-3-0.7-6.2-1.1-9.7-0.9c-3.4,0.2-6.8,0.9-9.7,1.9s-5.3,2.3-7.3,3.5c-3.9,2.5-6,4.7-6.3,4.4
	c-0.3-0.2,1.2-3,5-6.2c2-1.5,4.5-3.2,7.6-4.4c3.1-1.3,6.6-2.1,10.4-2.4c3.8-0.2,7.5,0.3,10.6,1.3c3.2,1,5.9,2.4,7.9,3.8
	c2.1,1.3,3.5,2.3,4.7,3C1078.4,370,1079.1,370.4,1079,370.6L1079,370.6z"/>
<path class="st8" d="M1111.7,600.1c-0.2-0.1,2-4.1,5.1-11.4c3.2-7.3,7.2-18.2,9.7-32.2l1.2-6.5l1.2,6.6c0.5,2.6,0.9,5.3,1.4,8.1
	l-2.5-0.2c1.8-5.5,2.9-11.6,3.1-18c0.2-6.5-0.4-13.2-1.7-20.2c-2.4-14-7.1-28.6-10.5-44.3c-2.1-9.5-3.5-18.8-4.9-27.8
	c-1.3-9-2.5-17.7-3.7-26c-1.3-8.2-2.6-16.1-4.2-23.2c-0.8-3.6-1.9-7-3.1-10.1c-1.2-3.1-2.7-6-4.4-8.5c-3.4-5-8.1-8.3-12.4-10.3
	c-4.4-2.1-8.5-3.2-11.8-4c-3.3-0.8-6-1.3-7.8-1.7c-1.8-0.4-2.8-0.6-2.8-0.7s1-0.1,2.9,0.1s4.5,0.5,8,1.1c3.4,0.7,7.7,1.6,12.3,3.6
	c2.4,1,4.7,2.3,7.1,4.1c2.4,1.7,4.5,4,6.5,6.6c1.9,2.6,3.5,5.7,4.9,8.9c1.3,3.3,2.5,6.8,3.3,10.4c1.8,7.3,3.2,15.1,4.5,23.4
	c2.8,16.5,4.7,34.8,8.8,53.6c3.4,15.5,8.2,30.2,10.4,44.5c1.2,7.1,1.8,14.1,1.5,20.8c-0.3,6.7-1.5,13.1-3.4,18.7l-1.7,4.8l-0.8-5.1
	c-0.4-2.8-0.9-5.5-1.3-8.1h2.4c-2.9,14.1-7.4,25-10.9,32.3c-1.8,3.6-3.3,6.4-4.4,8.2C1112.5,599.3,1111.8,600.2,1111.7,600.1
	L1111.7,600.1z M943.2,583.3c-0.2-0.4,3.3-2.5,9-6.1c2.8-1.8,6.1-4,9.7-6.5s7.5-5.4,11.4-8.5c8-6.3,15.1-12.2,20.3-16.4
	c5.2-4.2,8.6-6.7,8.9-6.3c0.3,0.3-2.6,3.4-7.4,8.1c-4.8,4.7-11.7,10.9-19.8,17.3c-4,3.2-8.1,6-11.8,8.4s-7.2,4.5-10.1,6
	C947.4,582.3,943.4,583.7,943.2,583.3L943.2,583.3z M939.2,680.2c-0.4,0.1-2.3-5-3.9-13.5c-0.2-1.1-0.4-2.2-0.7-3.4
	c-0.2-1.2-0.4-2.4-0.6-3.7c-0.4-2.5-0.7-5.3-1-8.1c-0.5-5.8-0.7-12.1-0.4-18.8s1-13,2-18.7c0.5-2.8,1-5.5,1.6-8
	c0.3-1.2,0.6-2.5,0.9-3.6l0.9-3.3c2.4-8.4,4.6-13.3,5-13.1c0.5,0.2-1,5.3-2.9,13.7c-0.2,1.1-0.5,2.2-0.7,3.3s-0.4,2.4-0.7,3.6
	c-0.5,2.5-0.9,5.1-1.3,7.9c-0.8,5.6-1.4,11.8-1.7,18.4c-0.2,6.5-0.1,12.8,0.2,18.4c0.2,2.8,0.4,5.5,0.7,8c0.1,1.3,0.2,2.5,0.4,3.6
	c0.2,1.2,0.3,2.3,0.4,3.3C938.6,674.8,939.7,680.1,939.2,680.2L939.2,680.2z"/>
<path class="st8" d="M1023.1,623.9c0.3,0.3-3.7,4.4-10.7,10.3c-3.5,3-7.8,6.3-12.7,9.9c-4.9,3.6-10.4,7.3-16.3,11s-11.7,6.9-17,9.7
	c-5.3,2.8-10.2,5.1-14.5,7c-8.4,3.7-13.7,5.4-13.9,5c-0.2-0.4,4.8-2.9,12.9-7.1c4-2.1,8.8-4.6,14-7.5s10.9-6.2,16.7-9.9
	c5.9-3.7,11.3-7.3,16.3-10.7c4.9-3.4,9.4-6.6,13-9.3C1018.3,627,1022.8,623.6,1023.1,623.9z M840.7,476.9c-0.4,0.2-4.1-5.1-9.8-13.9
	c-1.4-2.2-3-4.6-4.6-7.2c-0.3-0.4-0.6-0.9-0.9-1.4c-0.1-0.2-0.3-0.4-0.4-0.6l-0.2-0.3v0.4c0.1,0.6,0.1,1.1,0.2,1.6l0.1,0.4l0.1,0.8
	c0.1,0.9,0.3,1.8,0.5,2.7c0.2,0.9,0.3,1.8,0.5,2.8c0.2,0.9,0.5,1.8,0.7,2.8c0.2,0.9,0.4,1.9,0.7,2.8s0.6,1.9,0.9,2.8
	c2.4,7.5,5.6,14.4,9.1,20.3c3.4,6,6.9,11.1,10,15.2c6.2,8.4,10.6,13.1,10.3,13.5c-0.3,0.3-5.3-3.9-12.1-12c-3.4-4-7.2-9.1-10.8-15.1
	s-7.1-13-9.6-20.9c-0.3-1-0.6-2-0.9-2.9c-0.3-1-0.5-2-0.7-2.9c-0.2-1-0.5-1.9-0.7-2.9s-0.3-1.9-0.5-2.9s-0.4-1.9-0.4-2.8
	c-0.1-0.7-0.1-1.3-0.2-2c-0.1-0.8-0.2-1.6-0.2-2.3c0-0.7-0.1-1.4-0.1-2.1s-0.1-1.5-0.1-2.2c-0.1-1.4-0.1-2.9-0.2-4.3v-1.5
	c0-0.1-0.1-0.5,0.1-0.2c0.4,0.6,0.7,1.2,1.1,1.7l2.1,3.3c1.4,2.3,2.8,4.6,4,6.7c1.6,2.7,3.1,5.2,4.3,7.4
	C838.1,470.9,841.1,476.6,840.7,476.9L840.7,476.9z M852.9,465.5c-0.4,0.1-2-5.2-4.5-13.7c-1.3-4.3-2.9-9.4-4.6-15
	c-0.9-2.8-1.9-5.8-3-8.9c-0.3-0.7-0.5-1.5-0.8-2.2l-0.2-0.6c-0.1-0.4-0.3-0.7-0.4-1.1c-0.1,0.3-0.1,0.6-0.2,0.9l-0.1,0.6
	c-0.1,0.6-0.2,1.1-0.3,1.7c-0.3,1.8-0.5,3.5-0.8,5.2c-0.4,3.4-0.8,6.7-0.9,9.9c-0.3,6.3,0,12,0.7,16.7c1.4,9.5,4,14.9,3.5,15.1
	c-0.2,0.1-1-1.2-2.3-3.6c-1.2-2.5-2.6-6.3-3.5-11.1s-1.6-10.7-1.4-17.2c0.1-3.3,0.4-6.7,0.7-10.2c0.2-1.7,0.4-3.5,0.8-5.3l0.2-1.4
	c0.1-0.7,0.3-1.5,0.4-2.3c0.3-1.6,0.6-3.1,0.9-4.7c0.5-2.2,0.9-4.4,1.4-6.5c1,2.9,2,5.7,3,8.5c0.5,1.4,1,2.8,1.4,4.1
	c0.3,0.8,0.5,1.7,0.8,2.5c1,3.1,1.9,6.1,2.8,9c1.7,5.8,3,11,4,15.3C852.5,459.9,853.3,465.4,852.9,465.5L852.9,465.5z"/>
<path class="st8" d="M859.1,462.7c-0.9,0.1-3.3-13.3-8.1-29.4c-1.3-4.4-2.6-8.6-3.7-12.3c-0.6-1.9-1.2-3.5-2-4.7
	c-0.2-0.3-0.4-0.5-0.7-0.8c-0.2-0.2-0.5-0.4-0.6-0.5c-0.3-0.2-0.7-0.4-1-0.2c-0.3,0.2-0.3,0.4-0.5,0.7c-0.1,0.1-0.1,0.4-0.2,0.6
	c-0.1,0.2-0.1,0.4-0.2,0.6c-0.2,0.8-0.4,1.6-0.5,2.2c-0.2,1.2-0.3,1.9-0.5,2c-0.2,0-0.5-0.7-0.6-2c-0.1-0.7-0.1-1.5,0-2.5
	c0-0.2,0.1-0.5,0.1-0.7c0-0.3,0.1-0.5,0.2-0.9c0.2-0.7,0.4-1.6,1-2.1c0.4-0.3,0.9-0.4,1.5-0.4c0.3,0,0.5,0.1,0.8,0.1
	c0.3,0.1,0.6,0.2,0.8,0.3c0.6,0.3,0.9,0.5,1.4,0.8c0.4,0.3,0.7,0.7,1.1,1c1.3,1.5,2.1,3.4,2.8,5.3c1.4,3.7,2.9,7.9,4.1,12.3
	C858.9,448.8,859.9,462.7,859.1,462.7z"/>
<path class="st8" d="M870.8,467.6c-0.5,0.1-1.2-3.6-2.6-9.3c-1.4-5.7-3.6-13.5-7.2-21.7c-1.8-4.1-3.6-7.9-5.4-11.3
	c-1.8-3.3-4-7-4.3-7.5c-0.1-0.2-0.2-0.4-0.3-0.5l-0.2-0.3c-0.1-0.1-0.1-0.3-0.1-0.1c-0.1,0.2-0.3,0.5-0.4,0.7
	c-0.2,0.5-0.4,1.1-0.5,1.7c0,0.1-0.1,0.3-0.1,0.5s0,0.3-0.1,0.5c0,0.3-0.1,0.6-0.1,0.8c-0.1,0.4-0.1,0.7-0.2,0.7s-0.3-0.2-0.4-0.6
	c-0.1-0.2-0.1-0.5-0.2-0.8c0-0.2-0.1-0.3-0.1-0.5s-0.1-0.4-0.1-0.7c-0.1-1.1,0-2.5,0.4-4c0.2-0.8,0.4-1.6,0.7-2.5
	c0.1-0.4,0.2,0,0.4,0.1c0.1,0.2,0.3,0.3,0.4,0.5c0.3,0.3,0.6,0.7,0.9,1.1c0.3,0.4,0.7,0.8,1,1.1c0.2,0.2,0.3,0.4,0.5,0.6
	s0.4,0.5,0.6,0.7c0.6,0.8,1.1,1.6,1.7,2.4c1,1.5,2.1,3,3.1,4.7c2.1,3.4,4,7.3,5.8,11.5c3.5,8.5,5.6,16.6,6.4,22.5
	C871.4,463.8,871.2,467.5,870.8,467.6L870.8,467.6z M894.3,526.3c-0.2,0.1-1.1-1.1-2.4-3.5c-1.2-2.4-2.6-6.2-3.4-11
	c-0.9-4.8-1.3-10.6-1.5-17c-0.1-3.2-0.2-6.5-0.4-9.9c-0.1-1.7-0.3-3.4-0.4-5.2c-0.2-1.7-0.4-3.5-0.8-5.2c-0.3-1.8-0.8-3.5-1.2-5.1
	c-0.5-1.7-1.1-3.3-1.6-4.9c-1.1-3.3-2.2-6.6-2.5-10c-0.1-0.9-0.1-1.7,0-2.5c0-0.8,0.1-1.7,0.3-2.4c0.1-0.7,0.2-1.4,0.2-2
	s-0.1-1.1-0.3-1.5s-0.5-0.8-0.9-1s-0.6-0.2-0.9-0.2c-0.4,0-1.2,1.3-1.8,2.2c-2.4,4-3.4,7.7-4,10.2c-0.6,2.6-0.7,4.1-0.9,4.1
	s-0.5-1.5-0.3-4.3c0.2-2.7,1-6.8,3.2-11.2c0.3-0.6,0.6-1.1,1-1.7c0.2-0.3,0.4-0.6,0.7-0.9s0.8-0.7,1.2-0.8c1-0.4,2.2-0.2,3,0.3
	c0.8,0.5,1.5,1.1,2,2c1,1.8,0.7,3.6,0.6,5.1c-0.1,0.8-0.2,1.5-0.2,2.2s0,1.4,0.1,2.2c0.3,2.9,1.4,6,2.5,9.2c0.6,1.6,1.2,3.3,1.7,5.1
	c0.5,1.8,1,3.6,1.3,5.5c0.4,1.9,0.6,3.7,0.8,5.5c0.1,1.8,0.3,3.6,0.4,5.3c0.2,3.5,0.2,6.9,0.2,10c0,6.4,0.2,12,0.8,16.7
	s1.6,8.4,2.4,10.9C894,524.8,894.5,526.2,894.3,526.3L894.3,526.3z M928.7,650.5c-0.2,0.2-1.6-1.2-4.1-3.7l-2.1-2.1
	c-0.7-0.8-1.5-1.7-2.4-2.7c-1.7-1.9-3.6-4.1-5.5-6.6c-1-1.3-2-2.6-3.1-4c-1.1-1.4-2.1-2.9-3.2-4.4c-2.3-3-4.3-6.5-6.7-10
	c-4.4-7.2-9-15.4-13.3-24.1c-8.6-17.6-15-34.1-19.3-46.1c-4.3-12-6.7-19.6-6.3-19.7c0.4-0.2,3.5,7.1,8.5,18.9
	c4.9,11.8,11.5,28.1,20.1,45.5c4.3,8.7,8.8,16.8,13,24c2.2,3.6,4.2,7,6.3,10.1c1.1,1.5,2,3.1,3,4.5s2,2.8,2.9,4.1
	c1.8,2.6,3.5,4.9,5.1,6.9c0.8,1,1.5,1.9,2.2,2.8c0.7,0.8,1.3,1.6,1.9,2.3C927.7,648.8,928.8,650.4,928.7,650.5L928.7,650.5z"/>
<path class="st8" d="M940.2,586.4c0,0.1-0.2,0.3-0.8,0.4c-0.6,0.1-1.6-0.2-2.4-0.9c-0.4-0.3-0.9-0.7-1.3-1.2s-0.9-1-1.3-1.5
	c-1-1.1-2-2.3-3.2-3.7c-4.5-5.5-10.6-13.4-16.9-22.3c-12.6-17.9-21.4-33.5-20.6-33.9c0.8-0.5,10.6,14.2,23.2,32
	c6.3,8.9,12,17,16.1,22.8c1,1.5,2,2.8,2.8,4c0.4,0.6,0.8,1.1,1.1,1.6c0.3,0.5,0.6,0.9,1,1.2c0.6,0.7,1.2,1,1.6,1.2
	C939.9,586.3,940.2,586.3,940.2,586.4L940.2,586.4z M1070.9,564.3c-0.3,0.3-4.6-4.1-10.5-12.1c-0.7-1-1.5-2.1-2.3-3.2
	c-0.8-1.1-1.5-2.3-2.4-3.5c-1.7-2.4-3.2-5.2-4.8-8c-3.2-5.8-6.4-12.3-9.3-19.4c-2.9-7.1-5-14.1-6.7-20.5c-0.8-3.2-1.6-6.3-2.1-9.2
	c-0.3-1.4-0.6-2.8-0.8-4.2c-0.2-1.4-0.4-2.6-0.6-3.9c-1.4-9.9-1.2-16.1-0.8-16.1c0.5,0,1.2,6.1,3.1,15.8c0.2,1.2,0.5,2.5,0.8,3.8
	c0.3,1.3,0.6,2.7,1,4.1c0.6,2.8,1.5,5.8,2.3,9c1.8,6.3,4,13,6.8,20c2.9,6.9,5.9,13.4,9,19.1c1.6,2.8,3.1,5.6,4.5,8
	c0.8,1.2,1.4,2.5,2.2,3.6l2.1,3.3C1067.6,559.1,1071.3,564,1070.9,564.3L1070.9,564.3z M1193.9,604.7c-0.4,0.2-3.7-4.8-9-13.2
	c-2.6-4.2-5.6-9.2-9-14.8c-3.3-5.6-6.9-11.8-10.7-18.2s-7.8-12.4-11.6-17.5s-7.8-9.4-11.3-12.6c-3.5-3.3-6.8-5.5-9-7.1
	c-2.3-1.5-3.5-2.3-3.4-2.6c0.1-0.2,1.6,0.3,4,1.5c2.5,1.3,6,3.3,9.8,6.4c3.8,3.1,8.1,7.4,12.2,12.5c4.1,5.1,8.2,11.2,12,17.6
	c3.9,6.5,7.4,12.7,10.5,18.4c3.2,5.7,6,10.8,8.4,15.2C1191.6,598.9,1194.3,604.4,1193.9,604.7L1193.9,604.7z M1187.6,659.5
	c-1-0.3,3-13.2,3.3-29.5c0.5-16.4-2.7-29.4-1.8-29.7c0.4-0.1,1.7,3,3,8.4c0.6,2.7,1.2,5.9,1.6,9.5s0.6,7.6,0.5,11.8
	c-0.1,4.2-0.5,8.2-1.1,11.8s-1.3,6.8-2.1,9.4C1189.5,656.5,1188,659.6,1187.6,659.5z M974.5,883.3c-0.2,0,0-2.1,0.6-5.7
	c0.2-0.9,0.3-1.9,0.5-3s0.5-2.3,0.8-3.6c0.6-2.5,1.2-5.5,2.2-8.6c0.4-1.6,0.9-3.2,1.4-5c0.5-1.7,1.1-3.5,1.7-5.3
	c1.2-3.7,2.6-7.6,4.1-11.7c3.2-8.1,6.9-16.9,11.3-25.9c8.9-18,18.1-33.5,25-44.6c6.9-11.1,11.4-17.8,11.8-17.5
	c0.4,0.2-3.4,7.4-9.8,18.7c-6.4,11.4-15.3,27.1-24,44.9c-4.3,8.9-8.2,17.6-11.4,25.6c-1.6,4-3.1,7.8-4.3,11.4
	c-0.6,1.8-1.3,3.5-1.9,5.2c-0.6,1.7-1.1,3.3-1.6,4.9c-1.1,3.1-1.8,5.9-2.6,8.4c-0.4,1.2-0.7,2.4-1,3.5c-0.3,1.1-0.6,2.1-0.8,2.9
	C975.4,881.4,974.7,883.3,974.5,883.3L974.5,883.3z"/>
<path class="st8" d="M1173.2,885.6c0.1,0.1-0.4,0.7-1.5,1.7c-0.5,0.5-1.2,1.2-2,1.9s-1.8,1.5-2.9,2.4c-4.3,3.6-10.9,8.3-19.9,12.7
	c-4.5,2.1-9.6,4.3-15.2,6.1c-5.6,1.8-11.6,3.4-18.1,4.5c-13,2.4-27.6,2.9-42.6,1.7c-15.1-1.2-29.3-4.1-42-7.2
	c-6.4-1.6-12.3-3.2-17.9-4.8s-10.8-3.2-15.5-4.9c-4.6-1.7-8.9-3.6-12.3-5.6s-6.2-4.1-8.3-6c-0.5-0.5-1-0.9-1.4-1.4
	c-0.4-0.5-0.9-0.9-1.2-1.3c-0.7-0.8-1.3-1.5-1.7-2.1c-0.8-1.2-1.2-1.9-1.1-2c0.2-0.2,2,2.4,6.3,5.8c2.2,1.7,4.9,3.6,8.4,5.4
	c3.4,1.8,7.5,3.5,12.2,5c4.6,1.5,9.8,3,15.5,4.5s11.6,3,17.9,4.5c12.6,2.9,26.7,5.6,41.6,6.9c14.9,1.2,29.1,0.8,41.9-1.4
	c6.4-1.1,12.3-2.5,17.8-4.1s10.4-3.6,15-5.6c9-4,15.7-8.4,20.1-11.6c1.1-0.8,2.2-1.5,3-2.2c0.9-0.7,1.6-1.2,2.2-1.7
	C1172.5,886,1173.2,885.6,1173.2,885.6L1173.2,885.6z"/>
<path class="st8" d="M1167.8,886.6c-0.9-0.3,1.7-9,1.9-20c0.3-11-1.8-19.8-0.9-20.1c0.4-0.1,1.5,2,2.5,5.6c0.5,1.8,0.9,4,1.3,6.5
	c0.3,2.5,0.5,5.2,0.4,8.1c-0.1,2.9-0.4,5.6-0.8,8.1c-0.4,2.5-1,4.6-1.6,6.4C1169.4,884.7,1168.2,886.7,1167.8,886.6z M1078.2,888.9
	c-0.4-0.2,1.4-3.9,4.9-9.3c1.8-2.7,4-5.9,6.7-9.3c2.7-3.4,5.7-7,9.2-10.6s6.8-6.9,10-9.7c3.2-2.8,6.2-5.3,8.9-7.2
	c5.2-3.8,8.8-5.8,9-5.4c0.6,0.8-12.2,10.3-25.6,24.6C1087.9,876.1,1079,889.5,1078.2,888.9z M1017.2,939.9c-0.4-0.1-0.3-2,0.5-4.8
	c0.8-2.8,2.3-6.6,4.5-10.5c2.2-3.9,4.6-7.1,6.6-9.3c2-2.1,3.4-3.2,3.8-2.9c0.7,0.6-3.4,6.3-7.7,13.8
	C1020.8,933.7,1018.1,940.2,1017.2,939.9L1017.2,939.9z M1069.4,1128.8c-0.2,0.1-1.6-2.3-3.9-6.9c-2.3-4.5-5.4-11.2-8.9-19.6
	s-7.2-18.6-10.7-30.2c-3.5-11.5-6.9-24.4-9.5-38.1c-2.7-13.7-4.5-26.8-6.6-38.6c-2-11.8-4.1-22.4-6.3-31.2
	c-2.3-8.8-4.4-15.8-6.2-20.5c-0.4-1.2-0.8-2.3-1.2-3.2c-0.3-0.9-0.6-1.7-0.8-2.3c-0.4-1.3-0.6-2-0.5-2s0.5,0.6,1.1,1.7
	c0.3,0.6,0.7,1.3,1.1,2.2s1,1.9,1.4,3.1c2.1,4.7,4.6,11.6,7.2,20.4c2.6,8.8,4.9,19.4,7.1,31.3c2.2,11.9,4.1,24.9,6.8,38.5
	c2.6,13.6,5.8,26.4,9.2,37.9c3.3,11.5,6.9,21.7,10,30.2c3.2,8.5,5.9,15.3,7.9,20C1068.5,1126.1,1069.6,1128.7,1069.4,1128.8
	L1069.4,1128.8z M959.7,960.4c-0.4,0-0.7-4-0.4-10.5c0.1-3.2,0.5-7.1,1-11.4c0.6-4.3,1.3-8.9,2.4-13.8c1.1-4.8,2.3-9.4,3.4-13.5
	c1.3-4.1,2.5-7.8,3.7-10.8c2.4-6,4.2-9.6,4.6-9.4c0.9,0.4-4.7,15.3-8.7,34.4C961.6,944.6,960.7,960.5,959.7,960.4z M1028.7,1121.2
	c-0.2,0.1-1.6-1.9-3.8-5.6c-1.2-1.9-2.5-4.2-4-6.9c-1.6-2.7-3.3-5.8-5.1-9.2c-3.7-6.9-8.1-15.1-12.8-24.4
	c-4.6-9.3-9.6-19.6-14.5-30.5c-4.9-10.9-9.4-21.4-13.3-31c-3.8-9.6-7.2-18.4-9.8-25.7c-1.4-3.7-2.5-7-3.5-10c-1-2.9-1.9-5.5-2.5-7.6
	c-1.3-4.2-2-6.5-1.8-6.6s1.2,2.1,2.9,6.2c1.7,4.1,4,9.9,7,17.2s6.5,15.9,10.4,25.4c4,9.5,8.6,20,13.5,30.8
	c4.9,10.9,9.7,21.2,14.3,30.5c4.5,9.3,8.6,17.7,12.1,24.6c3.5,7,6.3,12.7,8.3,16.6C1027.9,1118.9,1028.9,1121.1,1028.7,1121.2
	L1028.7,1121.2z"/>
<path class="st8" d="M1183.9,1059.1c-0.2,0.4-3.7-0.8-9.5-2c-5.8-1.2-13.9-2.2-22.9-1.2c-4.4,0.4-8.6,1.3-12.3,2.4
	c-1,0.2-1.8,0.6-2.7,0.8c-0.9,0.3-1.7,0.6-2.5,0.9c-1.5,0.6-2.8,1.3-3.9,2c-2.2,1.4-3.4,3-3.9,4.2s-0.5,2-0.9,2
	c-0.2,0-0.7-0.7-0.7-2.3c0.1-1.5,1.2-3.7,3.6-5.6c1.1-1,2.6-1.9,4.2-2.7c0.9-0.4,1.7-0.8,2.6-1.1c0.9-0.3,1.8-0.7,2.8-1
	c3.8-1.3,8.4-2.3,13.2-2.8c9.6-1,18.5,0.4,24.2,2.3C1181.1,1056.7,1184.1,1058.8,1183.9,1059.1L1183.9,1059.1z M1082,1147.5
	c-0.1,0-0.4-0.1-0.6-0.7c-0.2-0.5-0.1-1.4,0.4-2.3c0.5-0.9,1.5-1.8,2.7-2.7c1.2-0.8,2.5-1.7,3.9-2.7c5.9-4,14.4-9.3,24.5-14.3
	c10.1-5,20.1-8.6,27.6-10.3c1.8-0.4,3.6-0.9,5.2-1.1c1.6-0.2,3-0.3,4.2-0.2c2.3,0.2,3.3,1,3.2,1.2s-1.2-0.1-3.3,0.1
	c-2,0.1-4.8,0.9-8.4,2.1c-7,2.3-16.5,6-26.5,10.9s-18.6,9.9-25,13.4c-1.6,0.9-3.1,1.6-4.3,2.3c-1.2,0.6-2.1,1.3-2.7,1.9
	C1081.8,1146.4,1082.2,1147.4,1082,1147.5L1082,1147.5z M1217,1144.6c0,0.4-7.4,1.3-19.2,2.2c-11.9,1-28.4,2.1-46.7,3.1
	s-35,1.3-46.9,1c-12.1-0.4-19.4-1.2-19.4-1.7s7.5-0.4,19.4-0.7c11.9-0.2,28.4-0.9,46.7-1.9c18.2-1,34.8-1.8,46.8-2.1
	C1209.5,1144.2,1217,1144.2,1217,1144.6z"/>
<path class="st8" d="M1072.6,1145.2c-0.9-0.4-0.1-3.9-0.8-8.1c-0.6-4.2-2.4-7.4-1.7-8c0.3-0.3,1.3,0.2,2.4,1.5s2.1,3.4,2.5,6
	s0,4.9-0.6,6.5C1073.8,1144.6,1073,1145.4,1072.6,1145.2z M1145.9,1083.2c-0.6,0-0.9-9.2-4-23.7c-1.5-7.2-3.7-15.8-6.4-25.2
	c-2.7-9.4-5.8-19.8-8.5-30.9c-2.7-11.1-4.5-21.9-5.1-31.8c-0.4-5-0.3-9.7-0.4-14c0-4.4-0.1-8.4-0.3-12.1c-0.2-3.7-0.7-7-1.3-9.8
	c-0.2-0.7-0.3-1.4-0.5-2c-0.2-0.7-0.4-1.3-0.5-1.9c-0.3-1.2-0.8-2.3-1.1-3.2c-0.8-1.9-1.4-3.4-1.9-4.3c-0.5-1-0.7-1.5-0.6-1.6
	c0.1-0.1,0.5,0.4,1.2,1.2c0.7,0.9,1.6,2.3,2.5,4.2c0.4,1,1,2,1.4,3.2c0.2,0.6,0.5,1.2,0.7,1.9l0.6,2.1c0.8,2.9,1.4,6.3,1.8,10
	c0.4,3.7,0.6,7.9,0.7,12.2c0.2,4.4,0.2,9,0.6,13.9c0.7,9.7,2.7,20.3,5.3,31.3s5.7,21.3,8.2,30.9c2.6,9.5,4.6,18.2,5.8,25.6
	c0.4,1.8,0.6,3.6,0.8,5.3c0.2,1.7,0.5,3.2,0.6,4.7c0.3,3,0.5,5.5,0.6,7.6C1146.2,1080.9,1146.1,1083.2,1145.9,1083.2L1145.9,1083.2z
	 M1178.2,1114.7c-0.2,0-0.4-3-0.6-8.5s-0.4-13.4-0.7-23.2c-0.2-4.9-0.3-10.3-0.6-16c-0.2-5.8-0.5-11.9-0.9-18.4
	c-0.7-12.9-1.6-27.1-2.8-42c-1.2-14.9-2.6-29.1-3.9-41.9c-0.7-6.4-1.4-12.5-2.1-18.3c-0.7-5.7-1.4-11-2-15.9
	c-1.3-9.7-2.3-17.6-3.1-23c-0.7-5.4-1-8.5-0.8-8.5c0.2,0,0.9,2.9,2,8.3c0.6,2.7,1.2,6,1.9,9.8s1.5,8.2,2.2,13.1
	c0.8,4.8,1.6,10.2,2.4,15.9s1.6,11.8,2.4,18.3c1.6,12.9,3.1,27.1,4.2,42s2,29.2,2.6,42.2c0.2,6.5,0.5,12.6,0.6,18.4
	c0.1,5.8,0.2,11.1,0.2,16.1c0,4.9,0,9.3-0.1,13.2c0,3.9-0.1,7.3-0.2,10C1178.7,1111.6,1178.4,1114.7,1178.2,1114.7L1178.2,1114.7z
	 M1107.9,1119.1c-0.4-0.1-0.1-3.2,1.6-7.9c0.2-0.6,0.5-1.2,0.7-1.8c0.3-0.6,0.6-1.3,0.9-1.9c0.6-1.3,1.4-2.7,2.2-4.1
	c1.7-2.8,3.8-5.8,6.4-8.6c2.7-2.8,5.4-5.1,8.1-7c1.4-0.9,2.7-1.8,3.9-2.5c0.7-0.3,1.3-0.7,1.9-1s1.2-0.6,1.8-0.8
	c4.5-2,7.6-2.4,7.7-2c0.2,0.5-2.6,1.7-6.7,4.1c-0.5,0.3-1.1,0.6-1.6,1c-0.6,0.3-1.1,0.7-1.7,1.1c-1.2,0.7-2.4,1.7-3.5,2.6
	c-2.5,1.9-5,4.2-7.5,6.8c-2.5,2.6-4.5,5.4-6.3,8c-0.8,1.3-1.7,2.6-2.4,3.8c-0.3,0.6-0.7,1.2-1,1.8c-0.3,0.6-0.6,1.1-0.9,1.7
	C1109.3,1116.4,1108.3,1119.2,1107.9,1119.1L1107.9,1119.1z"/>
<ellipse transform="matrix(9.329085e-03 -1 1 9.329085e-03 171.571 2404.5864)" class="st8" cx="1299.3" cy="1115.7" rx="1.6" ry="28.7"/>
<path class="st8" d="M1181.8,1035c-0.4,0.9-9.3-2.5-20.8-3.1c-11.5-0.8-20.8,1.4-21,0.5c-0.1-0.4,2.1-1.5,5.9-2.5
	c1.9-0.5,4.2-0.9,6.8-1.2c2.6-0.2,5.5-0.3,8.5-0.1c3.1,0.2,5.8,0.6,8.4,1.2c2.6,0.6,4.8,1.3,6.6,2
	C1180,1033.3,1182,1034.6,1181.8,1035L1181.8,1035z M1023.5,659.8c-0.5,0.7-6.1-2.8-11.3-8.8c-5.3-6-8.1-12-7.3-12.5
	s4.6,4.5,9.7,10.3C1019.6,654.6,1024.1,659.1,1023.5,659.8z"/>
<path class="st8" d="M1028.3,766.6c-0.5-0.1,0.7-6.7,1.8-17.5c0.1-1.3,0.3-2.8,0.4-4.2c0.1-1.5,0.2-3,0.3-4.6
	c0.3-3.2,0.3-6.6,0.5-10.1c0.2-7.2,0.1-15-0.5-23.3c-0.6-8.2-1.6-16-2.7-23.1c-0.6-3.5-1.2-6.9-1.9-10c-0.3-1.6-0.6-3.1-0.9-4.5
	c-0.3-1.4-0.7-2.8-1-4.1c-2.6-10.5-4.5-17-4-17.1c0.4-0.1,3.2,6,6.3,16.5c0.4,1.3,0.8,2.7,1.2,4.1c0.4,1.4,0.7,3,1.1,4.5
	c0.8,3.1,1.5,6.5,2.2,10.1c1.3,7.1,2.4,15,3,23.4c0.5,8.4,0.5,16.3,0.2,23.6c-0.2,3.6-0.4,7.1-0.8,10.3c-0.2,1.6-0.3,3.2-0.5,4.6
	c-0.2,1.5-0.4,2.9-0.6,4.3C1030.6,760.2,1028.6,766.7,1028.3,766.6z M1157.2,642.3c-0.8,0.2-5-13.7-6.4-31.5
	c-1.5-17.8,0.6-32.2,1.4-32.2c1,0.1,0.4,14.4,1.9,31.9C1155.4,628,1158.2,642.1,1157.2,642.3z"/>
<path class="st8" d="M1162.5,868.5c-0.2-0.1,0.3-3.3,1.4-9.2c0.3-1.5,0.6-3.1,1-4.9c0.3-1.8,0.6-3.8,0.9-5.9c0.6-4.2,1.5-9,2-14.3
	c0.3-2.7,0.6-5.4,1-8.3c0.3-2.9,0.5-5.9,0.7-9.1c0.6-6.3,0.7-13,1-20c0.2-14.1-0.1-29.7-1.2-45.9c-1.1-16.3-2.9-31.7-4.5-45.8
	c-0.9-7-1.8-13.7-2.7-19.9s-1.7-12-2.5-17.3c-1.6-10.6-2.9-19.2-3.6-25.1c-0.8-5.9-1.2-9.2-1-9.3c0.2,0,1,3.2,2.2,9.1
	c1.2,5.9,2.9,14.4,4.7,25c0.9,5.3,2,11.1,2.9,17.3c1,6.2,2,12.9,3,19.9c1.9,14.1,3.7,29.6,4.8,45.9c1.1,16.4,1.3,32,0.9,46.2
	c-0.4,7.1-0.6,13.9-1.3,20.2c-0.3,3.1-0.5,6.2-0.9,9.1c-0.4,2.9-0.8,5.7-1.2,8.4c-0.7,5.3-1.7,10.1-2.5,14.3c-0.4,2.1-0.8,4-1.2,5.8
	c-0.5,1.8-0.9,3.4-1.2,4.8C1163.7,865.3,1162.7,868.5,1162.5,868.5L1162.5,868.5z"/>
<path class="st8" d="M1186.3,661.3c0.2-0.1,0.6,0.4,0.8,1.6c0.1,0.6,0.1,1.3-0.1,2.1s-0.6,1.7-1.2,2.6c-0.6,0.9-1.4,1.7-2.4,2.4
	s-2.4,1.3-3.6,1.5c-2.8,0.5-5.7-0.1-8.5-1.3c-5.4-2.4-9.3-6.1-11.6-9c-2.4-3-3.2-5.2-2.9-5.4c0.4-0.3,1.9,1.4,4.5,3.8
	c1.3,1.2,3,2.6,4.8,3.9c1.9,1.3,4,2.7,6.4,3.7c2.4,1,4.7,1.6,6.8,1.3c2-0.2,3.6-1.2,4.7-2.4c0.5-0.6,1-1.2,1.2-1.7
	c0.3-0.6,0.5-1.1,0.5-1.6C1186.1,661.9,1186,661.3,1186.3,661.3L1186.3,661.3z M1147.9,511.2c0.8-0.3,3.2,5.3,4.3,12.6
	c1.1,7.3,0.3,13.4-0.6,13.3c-0.9,0-1.6-5.8-2.6-12.9C1147.9,517.2,1147,511.5,1147.9,511.2L1147.9,511.2z M1141,493.8
	c-0.3,0.4-3.2-1.3-8-4.3c-1.2-0.8-2.5-1.6-3.8-2.5l-0.5-0.3l-0.2-0.1c-0.1-0.1-0.2-0.1-0.4-0.2s-0.4-0.2-0.6-0.4l-0.1-0.1
	c0,0-0.1-0.1-0.1,0l0.1,0.4c0.1,0.3,0.2,0.5,0.3,0.8c0.2,0.7,0.4,1.3,0.6,2c0.3,1,0.6,2,1,3c1.3,4,3,7.6,4.8,10.6s4,5.4,6,7.2
	c4,3.5,7.5,4.4,7.3,4.9c0,0.2-1,0.3-2.6-0.1s-3.7-1.3-6.2-2.9c-2.4-1.7-4.9-4.1-7.1-7.3c-2.2-3.2-3.9-7.1-5.3-11.2
	c-0.4-1-0.7-2.1-1-3.1c-0.1-0.5-0.3-1-0.4-1.5c-0.2-0.8-0.4-1.6-0.7-2.4c-0.4-1.7-0.9-3.3-1.3-4.9c-0.2-0.8-0.4-1.6-0.6-2.3
	c-0.3-0.7,0.3-0.1,0.6,0.1c0.3,0.2,0.7,0.5,1,0.7c1.3,0.9,2.5,1.8,3.7,2.7c0.6,0.4,1.2,0.9,1.8,1.3c0.5,0.4,0.9,0.7,1.4,1
	c1.3,1,2.5,2,3.5,2.8C1138.6,491.1,1141.2,493.5,1141,493.8L1141,493.8z"/>
<path class="st8" d="M1146.9,442.4c0.9,0.5-4.4,10.6-6.9,24.2c-2.6,13.6-1.2,25-2.2,25.1c-0.4,0.1-1.3-2.7-1.8-7.4
	c-0.3-2.3-0.4-5.1-0.3-8.3c0.1-3.1,0.4-6.5,1.1-10.1c0.7-3.5,1.6-6.8,2.6-9.8c1-2.9,2.1-5.5,3.2-7.6
	C1144.7,444.5,1146.5,442.2,1146.9,442.4L1146.9,442.4z"/>
<path class="st8" d="M1151.1,488.4c-0.9-0.1-1-10.2-2.4-22.7c-1.4-12.4-3.5-22.4-2.7-22.6c0.8-0.3,4.4,9.5,5.9,22.3
	C1153.4,478.1,1152,488.5,1151.1,488.4L1151.1,488.4z"/>
<path class="st8" d="M1159.5,493.4c-1-0.1-0.4-11.4-2.9-25.1c-0.6-3.4-1.3-6.6-2-9.5c-0.4-1.5-0.7-2.8-1.1-4.1
	c-0.4-1.3-0.6-2.5-1.1-3.4c-0.8-2-1.9-3.3-2.8-3.8c-0.9-0.6-1.7-0.5-1.7-0.7c0-0.1,0.1-0.2,0.5-0.4c0.4-0.1,1-0.2,1.7-0.1
	c1.5,0.3,3.2,1.8,4.4,4c0.3,0.5,0.6,1.1,0.9,1.7c0.3,0.6,0.5,1.2,0.7,1.9c0.5,1.3,0.9,2.7,1.4,4.2c0.9,3,1.7,6.3,2.3,9.8
	c1.2,7,1.4,13.5,1.1,18.2C1160.6,490.6,1160,493.4,1159.5,493.4z M1168.2,496.9c-0.5,0-0.9-2.9-1.3-7.5s-0.8-10.9-2.2-17.7
	c-1.3-6.8-3.4-12.6-5.5-16.6c-2.1-4-3.7-6.3-3.4-6.6c0.3-0.3,2.7,1.5,5.3,5.4c2.7,3.9,5.4,10.1,6.7,17.2c1.4,7.1,1.4,13.6,1.3,18.3
	C1169,494,1168.6,496.9,1168.2,496.9L1168.2,496.9z"/>
<path class="st8" d="M1173.5,498.5c-0.9,0-1.3-7-3.2-15.2c-1.9-8.3-4.4-14.7-3.6-15.1c0.4-0.2,1.6,1.2,3,3.8
	c1.4,2.6,2.9,6.3,3.8,10.7c1,4.3,1.3,8.4,1.1,11.3C1174.3,496.7,1173.9,498.5,1173.5,498.5L1173.5,498.5z M1194.8,608.5
	c-0.5,0-1.1-6.4-2.2-16.8c-0.5-5.2-1.2-11.3-2-18.2c-0.9-6.8-1.7-14.3-3.1-22.1c-0.7-3.9-1.6-7.6-2.7-11.1c-1.1-3.5-2.4-6.8-3.6-10
	c-1.3-3.2-2.5-6.2-3.5-9.1c-1.1-2.9-1.9-5.7-2.6-8.2c-1.3-5.2-1.5-9.6-1.2-12.5c0.1-0.7,0.1-1.4,0.2-2c0.1-0.6,0.2-1,0.3-1.4
	c0.2-0.8,0.4-1.1,0.5-1.1c0.1,0,0.2,0.4,0.2,1.2v1.4c0,0.6,0,1.2,0.1,1.9c0.1,2.9,0.6,7,2.1,11.9c0.8,2.4,1.7,5.1,2.9,7.9
	c1.2,2.8,2.5,5.8,3.7,9c1.4,3.2,2.8,6.6,3.9,10.2c1.2,3.6,2.1,7.5,2.9,11.4c1.5,7.9,2.2,15.5,2.9,22.3c0.7,6.9,1.1,13.1,1.3,18.3
	C1195.4,602.1,1195.2,608.5,1194.8,608.5L1194.8,608.5z M756.1,599.3c-0.2,0-0.8-3.1-1.6-8.6c-0.8-5.6-1.8-13.7-2.9-23.7
	c-2.3-20-5-47.7-7.5-78.4c-2.5-30.6-4.1-58.4-5.1-78.6c-0.5-10.1-0.8-18.2-0.9-23.8c-0.1-5.6-0.1-8.8,0.1-8.8s0.6,3.1,1.1,8.7
	s1.2,13.7,2,23.8c1.6,20.1,3.7,47.8,6.1,78.4c2.6,30.6,4.8,58.3,6.5,78.4c0.9,10,1.5,18.2,1.9,23.8
	C756.2,596.2,756.3,599.3,756.1,599.3L756.1,599.3z M882.3,592.9c0,0.5-6.2,0.5-16.1,0.4c-9.9,0-23.7,0-38.9,0.5s-28.9,1.4-38.8,2
	c-9.9,0.7-16.1,1.1-16.1,0.6c-0.1-0.4,6-1.6,16-2.9c9.9-1.3,23.6-2.5,38.9-3s29-0.2,39,0.5C876.2,591.6,882.3,592.4,882.3,592.9
	L882.3,592.9z M969.1,354.5c0,0.2-3.2,0.2-8.9,0c-1.4-0.1-3.1-0.1-4.7-0.2c-1.8,0-3.6-0.1-5.6-0.2c-4-0.1-8.7-0.3-13.8-0.4
	c-2.6-0.1-5.2-0.1-8-0.2c-2.8,0-5.7-0.1-8.7-0.1c-6-0.1-12.4,0-19.1,0c-13.5,0.2-28.3,0.6-43.8,1.4c-15.6,0.9-30.3,2.1-43.7,3.4
	c-6.7,0.7-13.1,1.3-19,2.1c-3,0.4-5.8,0.7-8.7,1c-2.8,0.4-5.4,0.7-8,1c-5,0.6-9.7,1.3-13.7,1.9c-2,0.3-3.8,0.5-5.6,0.8
	c-1.7,0.3-3.2,0.5-4.7,0.7c-5.6,0.8-8.8,1.2-8.9,0.9c0-0.2,3.1-1,8.7-2.2c1.4-0.3,3-0.6,4.6-1c1.7-0.3,3.5-0.7,5.6-1
	c4-0.7,8.6-1.6,13.6-2.4c2.6-0.4,5.2-0.8,8-1.3c2.8-0.4,5.6-0.8,8.7-1.2c5.9-0.9,12.3-1.6,19.1-2.4c13.5-1.5,28.3-2.8,43.8-3.7
	c15.6-0.8,30.4-1.2,44-1.2c6.8,0.1,13.2,0.1,19.2,0.3c3.1,0.1,5.9,0.1,8.7,0.3c2.8,0.1,5.4,0.3,8,0.4c5.1,0.2,9.7,0.6,13.8,0.9
	c2.1,0.2,3.9,0.3,5.6,0.4c1.8,0.2,3.3,0.3,4.7,0.5C966,353.9,969.1,354.3,969.1,354.5L969.1,354.5z M985.9,548.7
	c-0.2,0-0.7-2.5-1.3-7.1c-0.7-4.6-1.5-11.3-2.4-19.5c-1.8-16.5-3.7-39.4-5.3-64.7c-1.6-25.3-2.3-48.2-2.6-64.8
	c-0.1-8.3-0.1-15,0-19.7c0.1-4.6,0.2-7.2,0.5-7.2c0.2,0,0.5,2.6,0.8,7.2s0.7,11.3,1.1,19.6c0.8,16.6,2,39.4,3.4,64.7
	c1.6,25.3,3.2,48.1,4.3,64.7c0.6,8.3,1.1,15,1.3,19.6C986.1,546.1,986.1,548.7,985.9,548.7L985.9,548.7z M1090.5,372.4
	c-0.9,0.2-2.1-2.2-2.2-5.4c-0.1-3.2,1-5.7,1.8-5.6c0.9,0.1,1.3,2.6,1.4,5.4C1091.7,369.8,1091.4,372.2,1090.5,372.4L1090.5,372.4z
	 M1292.7,354.1c0,0.2-2.8,0.6-7.7,1c-4.9,0.5-12.2,1-21.1,1.6c-17.8,1.2-42.4,2.7-69.6,4.1c-13.6,0.7-26.6,1.3-38.3,1.9
	c-11.8,0.5-22.5,1-31.4,0.9c-9-0.1-16.2-0.7-21.2-1.4c-4.9-0.7-7.7-1.4-7.6-1.6c0-0.2,2.8,0.1,7.8,0.4c4.9,0.3,12.1,0.6,21.1,0.4
	c8.9-0.2,19.5-0.9,31.2-1.6c11.8-0.7,24.7-1.4,38.3-2.1c27.2-1.4,51.8-2.5,69.6-3.1c9-0.3,16.1-0.5,21.2-0.6
	S1292.7,353.8,1292.7,354.1L1292.7,354.1z M1297.7,532.7c-0.2,0-0.6-2.2-1.2-6.3s-1.3-10-2-17.3c-1.5-14.6-3-34.9-3.7-57.3
	s-0.8-42.7-0.5-57.4c0.2-7.3,0.4-13.3,0.7-17.4s0.5-6.4,0.7-6.4s0.4,2.3,0.5,6.4c0.1,4.1,0.2,10,0.3,17.4
	c0.2,14.7,0.6,34.9,1.4,57.3s2,42.6,2.9,57.2c0.4,7.3,0.8,13.2,1,17.3C1297.9,530.4,1297.9,532.7,1297.7,532.7L1297.7,532.7z
	 M1278.9,530.1c0,0.5-4.9,1-12.9,1.7c-8,0.7-19,1.7-31.2,2.7c-12.2,0.9-23.2,1.6-31.3,1.9c-8.1,0.3-13,0.3-13-0.2
	c0-0.4,4.9-1.2,12.9-2.1c8-0.9,19-1.9,31.2-2.9c12.2-1,23.3-1.6,31.3-1.7C1273.9,529.4,1278.8,529.7,1278.9,530.1z M666.7,450.2
	c-0.2,0,0-3.3,0.5-9.3s1.3-14.6,2.5-25.3c0.6-5.3,1.2-11.2,1.8-17.4c0.6-6.3,1.3-12.9,1.4-19.9c0.2-7-0.2-14.4-1.7-21.8
	c-0.7-3.7-1.7-7.5-3.6-10.4c-1-1.5-2.2-2.7-3.7-3.4c-1.5-0.8-3.2-1.1-4.7-0.8c-1.5,0.3-2.8,1.3-3.7,2.8c-1,1.4-1.8,3.3-2.5,5.1
	c-1.5,3.6-2.7,7.2-3.4,10.9c-0.9,3.7-1.4,7.4-1.7,11s-0.4,7.2-0.2,10.7c0.6,14,4,26.3,7.6,36.2c3.6,10,7.3,17.8,9.7,23.2
	c2.6,5.4,3.9,8.4,3.7,8.5s-2-2.7-4.8-8c-2.9-5.3-6.9-13-10.8-23c-2-5-3.8-10.6-5.4-16.8c-1.6-6.2-2.7-12.9-3.1-20.1
	c-0.2-3.6-0.2-7.3,0.1-11.1c0.3-3.8,0.8-7.6,1.7-11.4s2.1-7.7,3.5-11.5c0.8-1.9,1.6-3.8,2.9-5.7c0.6-0.9,1.4-1.8,2.4-2.6
	c1-0.7,2.2-1.3,3.3-1.6c4.9-1,9.5,1.9,11.8,5.6c1.2,1.8,2.1,3.8,2.7,5.8c0.6,2,1,3.9,1.4,5.8c1.5,7.7,1.8,15.3,1.5,22.5
	s-1,13.9-1.7,20.2c-0.8,6.3-1.6,12.1-2.2,17.4c-1.4,10.6-2.6,19.2-3.4,25.1C667.5,447,666.9,450.3,666.7,450.2L666.7,450.2z
	 M523.4,372.3c-0.2-0.1,0.4-3.1,1.7-8.7c1.2-5.5,3.2-13.5,5-23.4c1-4.9,1.9-10.4,2.6-16.3c0.7-5.9,1.2-12.2,1.3-18.8
	c0-3.3-0.1-6.7-0.3-10.1c-0.2-1.7-0.3-3.5-0.5-5.2s-0.6-3.4-1.1-5.1c-0.9-3.3-2.4-6.6-4.7-8.9s-5.7-3.2-9-2.3c-3.2,0.9-6,3.2-8.2,6
	c-1.1,1.4-2.1,2.9-2.8,4.4c-0.4,0.8-0.7,1.6-1.1,2.4c-0.4,0.8-0.6,1.7-0.9,2.5c-1.1,3.3-1.9,6.7-2.2,10.1l-0.1,1.3l-0.1,1.3
	c0,0.8-0.1,1.7-0.1,2.5c0,1.7,0,3.3,0.1,5c0.4,6.5,1.6,12.7,3.1,18.4c1.4,5.7,3.1,11,4.6,15.8c3.1,9.6,6.5,17,9.4,21.8
	s4.9,7.2,4.6,7.4c-0.1,0.1-2.5-2-5.7-6.7s-7-12.1-10.4-21.7c-1.7-4.8-3.5-10-5.1-15.8c-1.6-5.8-3-12.1-3.3-18.9
	c-0.2-1.7-0.2-3.4-0.2-5.2c0-0.9,0.1-1.8,0.1-2.7l0.1-1.3l0.1-1.3c0.3-3.6,1.1-7.2,2.3-10.8c0.3-0.9,0.6-1.8,1-2.7
	c0.4-0.9,0.8-1.7,1.2-2.6c0.9-1.8,1.9-3.4,3.2-5c1.2-1.6,2.7-3,4.2-4.3c1.7-1.2,3.5-2.3,5.6-2.8c2.1-0.6,4.3-0.6,6.4,0
	c2.1,0.5,4,1.7,5.5,3.1c3.1,3,4.6,6.7,5.6,10.4c0.5,1.8,0.9,3.7,1.1,5.5c0.3,1.9,0.3,3.6,0.5,5.4c0.2,3.5,0.3,7,0.2,10.4
	c-0.1,6.8-0.8,13.2-1.6,19.1c-0.9,5.9-1.9,11.4-3.1,16.4c-2.2,9.9-4.4,17.8-6.1,23.2C524.6,369.4,523.6,372.3,523.4,372.3
	L523.4,372.3z M788.3,176.5c-0.2-0.1,0.5-3.1,1.7-8.5s2.9-13.2,4.2-23c0.7-4.9,1.4-10.3,1.9-16c0.5-5.8,0.8-11.9,0.5-18.4
	c-0.4-6.4-1.5-13.1-4-19.5c-1.3-3.2-3.1-6.3-5.1-9c-2.1-2.6-4.9-4.8-8-4.8s-5.8,2.2-7.7,5c-1,1.4-1.7,2.9-2.4,4.5
	c-0.3,0.8-0.6,1.6-0.8,2.5c-0.3,0.8-0.5,1.7-0.7,2.5c-1.8,6.7-2,13.5-1.5,19.9c0.3,3.2,0.7,6.3,1.2,9.4c0.5,3,1.1,6,1.8,8.8
	c1.3,5.6,2.8,10.9,4.2,15.5c2.9,9.4,6.2,16.6,9,21.4c2.8,4.8,4.7,7.1,4.4,7.3c-0.1,0.1-0.7-0.5-1.7-1.5c-0.5-0.5-1.1-1.3-1.8-2.1
	c-0.6-0.9-1.4-1.8-2.2-3c-3.2-4.6-6.9-11.9-10.1-21.3c-1.6-4.7-3.2-9.9-4.6-15.6c-0.7-2.8-1.4-5.8-2-8.9s-1-6.3-1.3-9.6
	c-0.5-6.6-0.4-13.8,1.4-21c0.2-0.9,0.4-1.8,0.8-2.7c0.3-0.9,0.5-1.8,0.9-2.7c0.7-1.8,1.6-3.5,2.7-5.2c1.1-1.6,2.5-3.2,4.1-4.4
	c1.7-1.2,3.8-2,6.1-2.1c2.3,0,4.3,0.8,6.1,1.9c1.8,1.1,3.2,2.6,4.4,4.1c2.4,3.1,4.1,6.4,5.6,9.8c2.8,6.9,3.8,13.9,4.1,20.6
	c0.3,6.7-0.2,13-0.8,18.8c-0.6,5.8-1.4,11.2-2.3,16.1c-1.7,9.8-3.7,17.6-5.3,23C789.6,173.7,788.5,176.6,788.3,176.5L788.3,176.5z
	 M1287.7,276.1c-0.2-0.1,0.4-2,1.5-5.6c1.1-3.5,2.7-8.6,4.3-14.9c0.8-3.2,1.8-6.6,2.5-10.4c0.7-3.7,1.2-7.8,1.1-12
	c-0.1-4.2-1-8.6-3.1-12.4c-1.1-1.9-2.5-3.7-4.1-4.9c-1.7-1.3-3.7-2.1-5.9-2.2c-1.1-0.1-2.2,0.1-3.1,0.3c-1,0.3-1.9,0.8-2.7,1.4
	c-0.8,0.7-1.4,1.4-2,2.3c-0.5,0.9-0.9,1.9-1.2,2.9c-0.6,2.1-0.8,4.3-0.8,6.5s0.2,4.3,0.4,6.5c0.8,8.6,2.2,16.3,3.6,22.6
	c0.7,3.2,1.4,6.1,2.2,8.5c0.8,2.4,1.8,4.4,2.8,5.8c1,1.5,2,2.4,2.7,3c0.7,0.6,1.2,0.9,1.1,1c0,0.1-0.6,0-1.5-0.5
	c-0.9-0.5-2.1-1.3-3.3-2.8c-1.3-1.4-2.5-3.5-3.4-6s-1.9-5.4-2.8-8.6c-1.8-6.4-3.3-14.2-4.3-22.9c-0.5-4.3-1-9.2,0.3-14.2
	c0.4-1.2,0.8-2.5,1.5-3.7c0.7-1.2,1.6-2.3,2.7-3.2s2.4-1.6,3.7-2c1.4-0.4,2.8-0.6,4.2-0.5c2.9,0.2,5.5,1.2,7.7,2.9
	c2.2,1.6,3.7,3.8,5,6c2.4,4.5,3.2,9.4,3.2,13.9s-0.6,8.7-1.5,12.6c-0.9,3.8-1.9,7.3-2.9,10.5c-2,6.3-3.9,11.3-5.3,14.7
	C1288.9,274.3,1287.9,276.1,1287.7,276.1L1287.7,276.1z M557.6,350.3c0.7,0.6-1.4,4.4-3.8,9s-4.6,8.4-5.4,8c-0.8-0.3,0-4.8,2.7-9.6
	C553.6,352.8,556.9,349.8,557.6,350.3z"/>
<path class="st8" d="M513.2,315.1c0.2-0.2,0.8,0.5,2.2,0.7c0.7,0.1,1.5,0.1,2.5-0.2c0.9-0.3,1.9-0.8,2.8-1.6
	c0.4-0.4,0.8-0.9,1.1-1.5s0.5-1.2,0.7-1.9c0.3-1.4,0.3-3,0.1-4.7c-0.1-0.9-0.3-1.7-0.5-2.6s-0.5-1.7-0.8-2.6
	c-0.7-1.6-1.8-3.3-3.1-4.1c-1.3-0.8-2.8-0.6-3.8,0.3s-1.9,2.6-2.4,4.2c-0.9,3.3-0.9,6.5-0.4,9.1c0.5,2.6,1.5,4.4,2.6,5.3
	c1.1,0.9,1.9,1.2,1.9,1.5c0,0.2-1,0.4-2.6-0.4c-1.6-0.7-3.2-2.9-4.1-5.8c-0.8-2.9-1.2-6.5-0.2-10.4c0.5-1.9,1.3-4.1,3.2-5.8
	c1-0.9,2.3-1.5,3.5-1.6c1.4-0.2,2.9,0.2,3.9,0.9c1.2,0.7,2.1,1.7,2.8,2.6c0.7,1,1.2,2,1.6,3c0.4,1,0.7,2.1,0.9,3.1s0.3,2,0.4,3
	c0.2,2,0,3.9-0.5,5.7c-0.3,0.9-0.7,1.7-1.1,2.5c-0.5,0.7-1.1,1.4-1.7,1.9c-2.6,2-5.4,2-7,1.3C513.4,316.2,513,315.2,513.2,315.1
	L513.2,315.1z M657.2,384.1c0.2-0.1,0.8,0.6,1.9,1.9c0.5,0.6,1,1.4,1.7,2.2c0.1,0.1,0.2,0.2,0.3,0.4l0.1,0.2c0,0,0,0.1,0.1,0.1
	l0.1-0.1c0.3-0.2,0.6-0.4,0.8-0.7l0.2-0.2c0.1-0.1,0.2-0.3,0.3-0.4c0.2-0.3,0.3-0.6,0.4-0.9c0.3-0.6,0.5-1.4,0.6-2.1
	c0.1-0.8,0.2-1.6,0.2-2.5v-2.8c-0.1-1.9-0.2-3.9-0.5-5.9c-0.3-2-0.6-4.2-1.4-5.8c-0.2-0.4-0.4-0.8-0.7-1.1c-0.2-0.3-0.5-0.5-0.9-0.7
	c-0.7-0.4-1.4-0.5-1.9-0.4s-1,0.5-1.4,1.2s-0.8,1.5-1.1,2.4c-1.2,3.4-1.4,6.8-1.1,9.6c0.3,2.8,1,5,1.6,6.5s1,2.3,0.8,2.5
	c-0.2,0.1-0.9-0.5-1.9-1.9c-1-1.4-2.1-3.7-2.7-6.7c-0.6-3-0.7-6.9,0.6-10.9c0.4-1,0.7-2,1.3-3.1c0.6-1,1.7-2.2,3.2-2.6
	s3.1,0,4.2,0.7c0.6,0.4,1.2,0.8,1.7,1.4c0.5,0.5,0.8,1.1,1.1,1.7c0.6,1.2,0.9,2.4,1.1,3.6c0.2,1.1,0.4,2.2,0.5,3.3
	c0.2,2.2,0.3,4.3,0.3,6.3c0,1-0.1,2-0.1,2.9c-0.1,1-0.2,1.9-0.5,2.9c-0.2,0.9-0.5,1.8-0.9,2.6c-0.2,0.4-0.4,0.8-0.7,1.2
	c-0.1,0.2-0.3,0.4-0.4,0.5l-0.6,0.6c-0.8,0.8-1.8,1.1-2.6,1.4l-0.3,0.1c-0.1,0-0.1-0.2-0.2-0.2c-0.1-0.2-0.2-0.4-0.4-0.5
	c-0.2-0.3-0.5-0.7-0.7-1.1c-0.5-0.8-0.6-1.2-0.9-1.7c-0.2-0.5-0.4-0.9-0.6-1.2C657.3,385.1,657,384.2,657.2,384.1L657.2,384.1z
	 M781.2,126.5c0.1,0,0.2,0.3,0.4,0.6s0.7,0.7,1.5,0.9c0.7,0.2,1.8,0.1,2.5-0.6c0.8-0.7,1.3-1.9,1.6-3.4c0.5-3.1,0.9-7.1,0.4-11.3
	c-0.2-2.1-0.7-4.2-1.6-6.2c-0.4-1-1-2-1.6-2.9c-0.7-0.9-1.4-1.8-2.2-2.2c-0.8-0.5-1.6-0.6-2.3-0.4s-1.5,0.8-2.1,1.6
	c-0.6,0.8-1.1,1.7-1.4,2.7c-0.3,1-0.6,1.9-0.6,2.9c-0.4,4.2,0.2,8,1.1,11.1c1.9,6.2,4.6,9.3,4.2,9.7c-0.2,0.1-1-0.5-2.3-1.9
	s-2.9-3.8-4.1-7c-1.3-3.2-2.2-7.4-1.9-12.1c0.1-2.4,0.9-5,2.5-7.3c0.8-1.1,2-2.2,3.6-2.7c1.7-0.5,3.5-0.1,4.8,0.8
	c1.4,0.9,2.3,2,3.1,3.1s1.5,2.3,1.9,3.5c1,2.4,1.5,4.9,1.7,7.2c0.2,2.3,0.1,4.5-0.2,6.5c-0.2,2-0.6,3.8-1,5.6
	c-0.5,1.7-1.3,3.4-2.7,4.3c-0.7,0.5-1.5,0.7-2.2,0.7c-0.7,0-1.3-0.2-1.8-0.4c-1-0.5-1.6-1.3-1.6-1.9
	C780.9,126.8,781.1,126.5,781.2,126.5L781.2,126.5z"/>
<ellipse class="st8" cx="1143.6" cy="238.4" rx="1.3" ry="1.6"/>
<path class="st8" d="M1284.9,240.5c-0.3-0.4,1.5-1.8,2.4-5c0.4-1.5,0.5-3.5-0.1-5.4c-0.3-0.9-0.9-1.7-1.6-2c-0.6-0.3-1.2-0.2-2,0.4
	c-0.5,0.4-1,1-1.4,1.7s-0.7,1.4-1,2.2c-0.6,1.5-0.8,2.9-0.7,4.1c0.1,0.6,0.2,1.1,0.5,1.5c0.3,0.5,0.6,0.8,0.9,1.1
	c0.7,0.6,1.5,0.8,2.1,0.7l-0.3,1.3c-0.9-1.3-1.3-2.1-1.1-2.3c0.2-0.2,1,0.3,2.2,1.2l0.9,0.7l-1.2,0.6c-1,0.4-2.5,0.4-3.7-0.3
	c-0.7-0.4-1.3-0.9-1.8-1.6c-0.5-0.7-0.9-1.6-1.1-2.5c-0.4-1.8-0.1-3.8,0.5-5.6c0.3-0.9,0.6-1.8,1.2-2.8c0.5-0.9,1.2-1.8,2.1-2.6
	c0.7-0.6,1.6-1,2.6-1.2s2,0.1,2.9,0.5c1.7,1,2.5,2.5,2.9,3.8c0.8,2.8,0.3,5.3-0.6,7.1c-0.9,1.8-2,3-2.9,3.6
	C1285.6,240.6,1285,240.7,1284.9,240.5z M595.2,308c0.4,0.8-3.9,3.6-8.4,7.9c-4.5,4.2-7.5,8.4-8.3,8c-0.4-0.2-0.1-1.6,0.9-3.6
	s2.8-4.5,5.2-6.8c2.5-2.3,5-3.9,7-4.8C593.7,307.8,595,307.6,595.2,308L595.2,308z M639.7,271.7c0.4,0.8-2.3,2.9-5.5,5.2
	c-3.2,2.3-6.1,4.2-6.7,3.5c-0.6-0.6,1.4-3.7,4.9-6.2C635.9,271.7,639.4,270.9,639.7,271.7L639.7,271.7z M698.2,238.1
	c0.3,0.9-4.9,3.7-11.4,7s-11.9,5.8-12.3,5c-0.5-0.8,4.2-4.6,10.9-7.9C692,238.8,697.9,237.3,698.2,238.1z M760.1,222.7
	c0,0.9-6.2,1.9-13.8,3.4s-13.8,2.9-14.1,2c-0.3-0.8,5.6-3.7,13.5-5.2C753.5,221.3,760.1,221.8,760.1,222.7z M825.5,218.4
	c-0.1,0.9-7.3,0.6-16.1,0.6c-8.8,0-16,0.4-16.1-0.5c-0.1-0.9,7-2.7,16.1-2.8C818.5,215.7,825.6,217.6,825.5,218.4z M901.4,231.7
	c-0.2,0.9-8.2-0.5-18-2.2c-9.7-1.7-17.8-3.1-17.7-4s8.3-0.9,18.2,0.8C893.9,228,901.6,230.9,901.4,231.7z M964.3,248.3
	c-0.3,0.9-7.9-1.4-17.2-3.7c-9.4-2.4-17-4-16.9-4.9s8.1-0.7,17.6,1.7C957.4,243.8,964.6,247.4,964.3,248.3z M1027,283
	c-0.7,0.7-7.1-4.8-16-9.9c-8.9-5.2-16.7-8.1-16.4-9c0.1-0.4,2.3-0.2,5.6,0.7c3.3,1,7.9,2.8,12.4,5.5c4.6,2.7,8.4,5.7,10.9,8.2
	C1026.1,280.9,1027.3,282.7,1027,283L1027,283z M1064,317.4c-0.7,0.6-5.2-4-11.5-8.6c-6.2-4.7-11.9-7.6-11.6-8.5
	c0.2-0.4,1.9-0.2,4.3,0.8c2.5,0.9,5.8,2.6,9.2,5.1c3.3,2.5,5.9,5.1,7.6,7.3C1063.6,315.5,1064.2,317.1,1064,317.4L1064,317.4z
	 M1088.3,358.3c-0.8,0.4-4.1-4.3-8.2-10c-4.1-5.7-7.5-10.4-6.9-11s5.2,3.2,9.5,9.1C1086.9,352.3,1089.1,357.9,1088.3,358.3
	L1088.3,358.3z M877.7,307c0.9,0.3-0.9,6.6-2.7,14.4c-1.9,7.7-3.2,14.1-4.1,14c-0.9-0.1-0.9-6.8,1.1-14.8
	C873.8,312.6,877,306.7,877.7,307L877.7,307z M917.1,228.2c0.7,0.6-2.1,4.5-5.1,9.2c-3.2,4.7-5.5,8.7-6.4,8.4
	c-0.8-0.3,0.4-5.2,3.7-10.2C912.6,230.6,916.5,227.6,917.1,228.2z M972.1,183.1c0.4,0.8-4.3,3.6-10,6.9c-5.7,3.3-10.4,6-11,5.2
	c-0.5-0.7,3.4-4.7,9.5-8.1C966.4,183.8,971.8,182.3,972.1,183.1L972.1,183.1z M1057.6,155.8c0.1,0.9-8.3,2.8-18.6,5.2
	c-10.3,2.3-18.7,4.3-18.9,3.4c-0.3-0.8,7.8-4.2,18.2-6.6C1048.7,155.3,1057.5,154.9,1057.6,155.8L1057.6,155.8z M1131.6,164.6
	c-0.3,0.9-7.5-0.8-16.5-1.6c-9-0.9-16.4-0.8-16.5-1.7c0-0.4,1.8-1.1,4.8-1.5s7.3-0.6,12-0.1c4.6,0.5,8.9,1.5,11.7,2.5
	C1130,163.2,1131.7,164.2,1131.6,164.6L1131.6,164.6z M1188.3,186.5c-0.6,0.7-5.9-2.7-12.8-6.2s-12.8-5.9-12.5-6.8
	c0.2-0.8,6.8,0.2,14,3.9C1184.2,181.1,1188.9,185.9,1188.3,186.5z M1238.2,230.8c-0.9,0.4-3.8-5.5-9.7-10.7
	c-5.7-5.3-11.8-7.7-11.5-8.6c0.1-0.4,1.9-0.4,4.4,0.5c1.3,0.4,2.8,1.1,4.4,2c1.6,0.9,3.2,2.1,4.8,3.5s2.9,3,4,4.5
	c1.1,1.5,1.9,2.9,2.5,4.2C1238.4,228.8,1238.6,230.6,1238.2,230.8z M1278.8,285.9c-0.8,0.4-4.5-5.6-9.9-12.4
	c-5.3-6.8-10.3-11.8-9.7-12.6c0.3-0.3,1.9,0.5,4.2,2.3c2.3,1.8,5.2,4.7,8.1,8.2c2.8,3.5,4.9,7.1,6.1,9.8
	C1278.8,283.8,1279.2,285.7,1278.8,285.9z M810.8,168.9c0.7,0.6-2,4.9-5.1,10.1c-3.2,5.2-5.7,9.5-6.5,9.2c-0.8-0.3,0.5-5.4,3.8-10.9
	C806.2,171.9,810.1,168.4,810.8,168.9L810.8,168.9z M861.2,118.3c0.5,0.8-6,5.5-13.2,12.3c-7.2,6.7-12.2,13-13,12.5
	c-0.4-0.3,0.5-2.2,2.4-5c1.9-2.8,4.8-6.4,8.5-9.9c3.7-3.5,7.5-6.2,10.3-7.9C859,118.6,861,117.9,861.2,118.3L861.2,118.3z
	 M909.3,92.7c0.3,0.9-5.5,4-12.7,7.8c-7.2,3.8-13.1,6.8-13.6,6c-0.5-0.7,4.8-5.1,12.1-8.9C902.5,93.8,909,91.9,909.3,92.7z
	 M966.8,80.2c0,0.9-7.3,1.4-16.1,2.5c-8.8,1.1-15.9,2.4-16.1,1.5c-0.3-0.8,6.7-3.6,15.8-4.8C959.5,78.3,966.9,79.3,966.8,80.2z
	 M1018.3,94.5c-0.6,0.7-5.9-2.8-13-5.9c-7.1-3.2-13.2-4.8-13.1-5.7c0.1-0.4,1.8-0.6,4.4-0.2c2.7,0.4,6.2,1.3,9.9,2.9
	c3.7,1.7,6.9,3.7,8.9,5.5C1017.5,92.8,1018.5,94.1,1018.3,94.5z M1080.8,123c-0.8,0.6-6.1-6.3-14.5-12.9
	c-8.2-6.7-16.1-10.4-15.8-11.3c0.2-0.4,2.4,0,5.7,1.4c3.3,1.4,7.7,3.8,12,7.3c4.3,3.5,7.7,7.2,9.7,10.2
	C1080.2,120.7,1081.1,122.7,1080.8,123L1080.8,123z M1141.6,233.6c-0.5,0.1-1.2-2.5-2.1-6.6c-0.9-4.1-2-9.8-3.7-15.8
	c-0.9-3-1.9-5.8-2.9-8.3c-0.6-1.2-1-2.4-1.6-3.5c-0.3-0.5-0.5-1.1-0.8-1.6c-0.3-0.5-0.5-1-0.8-1.4c-2-3.6-3.5-5.7-3.2-6
	c0.3-0.3,2.5,1.3,5,4.7c0.3,0.4,0.7,0.9,1,1.4c0.3,0.5,0.6,1,1,1.6c0.7,1.1,1.3,2.3,2,3.6c1.2,2.6,2.4,5.5,3.2,8.7
	c1.8,6.3,2.6,12.1,2.9,16.4C1142.1,230.9,1142,233.6,1141.6,233.6L1141.6,233.6z M1151.7,289.3c-0.9-0.1-1-7.2-2.1-15.9
	c-1-8.7-2.6-15.6-1.7-15.9c0.8-0.3,3.8,6.5,4.8,15.5C1153.9,282.1,1152.6,289.4,1151.7,289.3L1151.7,289.3z M1141.8,356.5
	c-0.9-0.4,0.7-5.3,1.2-11.5c0.5-6.2-0.3-11.3,0.6-11.5c0.4-0.1,1.2,1.1,1.8,3.2c0.6,2.1,1.1,5.2,0.8,8.6c-0.3,3.4-1.2,6.4-2.1,8.4
	C1143.1,355.6,1142.2,356.6,1141.8,356.5z"/>
</svg>
