<?xml version="1.0" encoding="UTF-8"?>
<svg id="IdentifyCustomer" xmlns="http://www.w3.org/2000/svg" viewBox="0 0 829.03 1078.01">
  <defs>
    <style>
      .cls-1 {
        fill: none;
        stroke-width: 4px;
      }

      .cls-1, .cls-2, .cls-3, .cls-4 {
        isolation: isolate;
        opacity: .68;
      }

      .cls-1, .cls-5, .cls-4 {
        stroke-miterlimit: 10;
      }

      .cls-1, .cls-3, .cls-4 {
        stroke: #03ff60;
      }

      .cls-2, .cls-3, .cls-4, .cls-6 {
        fill: #22bee6;
      }

      .cls-2, .cls-6, .cls-7, .cls-8, .cls-9 {
        stroke-width: 0px;
      }

      .cls-5, .cls-10, .cls-11 {
        stroke: #24f06f;
      }

      .cls-10 {
        stroke-miterlimit: 10;
        stroke-width: 1px;
      }

      .cls-11 {
        stroke-miterlimit: 10;
        stroke-width: 1px;
      }

      .cls-3 {
        stroke-miterlimit: 10;
        stroke-width: 1px;
      }

      .cls-7 {
        fill: #7ed2e8;
      }

      .cls-8 {
        fill: #91cad9;
      }

      .cls-9 {
        fill: #fff;
      }
    </style>
  </defs>
  <path class="cls-6" d="m155.89,271.1c-6.3,7.6-6.2,18.1-6.01,23.8.59,15.8,3.05,33.2,12.01,62.9,3.35,11.1,4.73,14.3,6.01,14.2,3.05-.3,3.54-20.2,4.04-39,.49-24,5.32-38.4-.49-54.3-1.28-3.5-4.23-11.4-8.96-11.7-2.95-.1-5.42,2.7-6.6,4.1Zm-131.76,25.9c-10.44-18.7-14.57-35.3-16.44-46.7-2.26-13.9-6.5-39.4,5.51-47.7,3.94-2.7,9.75-3.7,13.98-1.5,2.07,1.1,6.5,4.3,7.98,21.8,1.08,12.9-.1,25.6-5.51,50.7-2.17,9.8-4.14,17.8-5.51,23.4h0ZM287.35,98.6c-12.01-23.4-16.44-43.4-18.32-56.7-1.97-13.8-4.14-30.2,4.63-36.5,3.64-2.6,8.96-3.3,13-1.6,7.78,3.4,9.06,15.1,10.73,29.5,2.76,24.9-2.17,43.2-3.84,48.9-2.17,7.1-4.53,12.6-6.2,16.4h0Zm501.62,102.5c-7.39-11.5-17.13-30.6-13.79-49.7.69-4,1.97-11.4,6.89-13.2,4.83-1.8,11.42,2.6,14.57,7.8,3.15,5.2,2.26,10.7-.79,24.9-1.87,8.8-4.14,19-6.89,30.2Z"/>
  <ellipse class="cls-9" cx="159.93" cy="303.8" rx="7.09" ry="11.7"/>
  <ellipse class="cls-9" cx="27.1" cy="232.2" rx="7.2" ry="11.2"/>
  <ellipse class="cls-9" cx="282.13" cy="40.6" rx="7.48" ry="14.8"/>
  <ellipse class="cls-9" cx="645.14" cy="159.8" rx="4" ry="5.1"/>
  <path class="cls-2" d="m450.22,378.2h-185.62c-6.5,0-11.82-5.4-11.82-12v-37.5c0-6.6,5.32-12,11.82-12h185.62c6.5,0,11.82,5.4,11.82,12v37.5c0,6.6-5.32,12-11.82,12Zm-138.75,112.6h-34.47c-6.5,0-11.82-5.4-11.82-12v-58.5c0-6.6,5.32-12,11.82-12h34.47c6.5,0,11.82,5.4,11.82,12v58.5c0,6.6-5.32,12-11.82,12Z"/>
  <path class="cls-4" d="m467.65,404.9c-.1.5-3.45.1-8.67.9-2.66.3-5.71,1-9.16,1.7-3.45.8-7.29,1.7-11.52,2.3-8.37,1.3-16.25.2-21.47-1.4-5.32-1.6-8.17-3.5-8.07-3.9.2-.5,3.35.6,8.57,1.6s12.51,1.7,20.48.4c4.04-.6,7.88-1.4,11.42-2s6.79-1,9.55-1.1c5.61-.1,8.96,1.2,8.86,1.5Zm-39.68,13.9c.1.9-4.63,2.2-10.64,2.7s-10.93,0-10.93-.9,4.73-1.9,10.64-2.4c6.01-.5,10.83-.3,10.93.6h0Zm41.85,8.8c0,.9-11.13,1.5-24.82,2.3-13.69.7-24.82,1.3-24.91.4s10.93-2.9,24.72-3.6c13.79-.8,25.01.1,25.01.9h0Z"/>
  <ellipse class="cls-3" cx="425.07" cy="441.18" rx="12.21" ry="1.6" transform="translate(-4.74 4.61) rotate(-.62)"/>
  <ellipse class="cls-4" cx="439.19" cy="454.9" rx="26.98" ry="1.6"/>
  <path class="cls-1" d="m768.78,336.3h-148.6c-6.5,0-11.82-5.4-11.82-12v-8.9c0-6.6,5.32-12,11.82-12h148.6c6.5,0,11.82,5.4,11.82,12v8.9c0,6.6-5.32,12-11.82,12Z"/>
  <path class="cls-4" d="m748.1,312.5c0,.4-6.99,1.2-18.32,1.9-11.32.7-26.98,1.4-44.31,1.8s-32.99.4-44.31.2-18.41-.6-18.41-1c0-.5,6.99-.9,18.32-1.3s26.98-.8,44.31-1.2c17.33-.4,32.99-.7,44.31-.8,11.42-.2,18.41-.1,18.41.4Z"/>
  <ellipse class="cls-4" cx="639.68" cy="321.6" rx=".39" ry="1.6"/>
  <path class="cls-4" d="m683.21,322c.1.9-9.75,2.3-21.96,2.4s-22.06-1.3-21.96-2.1c.1-.9,9.85-1.1,21.96-1.1,12.11-.1,21.96-.1,21.96.8h0Zm68.54,4.9c-.1.5-3.05.2-7.78-.1-2.36-.2-5.22-.3-8.37-.4s-6.6-.1-10.24-.1c-7.29.1-13.88.2-18.61.3-4.83,0-7.78-.2-7.78-.6s2.86-1.1,7.68-1.7c4.73-.6,11.42-1.2,18.81-1.2,3.64,0,7.19.1,10.44.4,3.15.3,6.01.6,8.47,1.1,4.63.8,7.48,1.8,7.39,2.3h0Zm30.23,30.5c0,.9-16.44,2.3-36.83,1.8-20.38-.5-36.73-2.9-36.63-3.7.1-.9,16.44,0,36.73.5,20.29.5,36.73.5,36.73,1.4h0Zm-57.61,8.9c0,.9-6.4,1.6-14.28,1.6-5.12,0-9.65-.3-12.11-.8l.69-1.4c.1.4.49.7.69.8.3.2.49.3.49.4s-.1.4-.59.5-1.28,0-1.97-.7l-.98-1.1,1.67-.3c2.56-.5,6.99-.8,12.11-.8,7.88.1,14.28.9,14.28,1.8h0Zm57.7,6.9c.1.9-19.1,3-42.74,4.7-23.73,1.7-42.93,2.4-43.03,1.5s19.1-3,42.74-4.7c23.63-1.8,42.93-2.4,43.03-1.5Zm-44.02,14.1c.1.9-6.01,2.4-13.59,2.6-7.68.3-13.79-.8-13.79-1.7s6.11-1.3,13.69-1.6c7.39-.1,13.59-.2,13.69.7Zm37.52,11.3c-.1.5-4.63-.2-11.82-.4-.89,0-1.87-.1-2.86-.1h-3.05c-2.17,0-4.43.1-6.79.1-4.83.2-10.04.6-15.66,1.2-11.13,1.2-21.17,2.6-28.46,3.2-7.39.6-11.92.6-11.92.2,0-.5,4.43-1.2,11.72-2.4,7.19-1.2,17.23-2.9,28.46-4.1,5.61-.6,11.03-.9,15.85-1,2.46,0,4.83,0,6.99.2,1.08.1,2.17.1,3.15.2s1.97.2,2.86.3c7.19.8,11.52,2.3,11.52,2.6h0Zm-7.29,11.3c-.1.5-3.35,0-8.47.1h-2.07c-.69,0-1.48.1-2.17.1-1.48.1-3.15.3-4.83.4-3.45.4-7.09,1-11.03,1.6-3.94.7-7.68,1.3-11.23,1.8-3.45.5-6.6.7-9.26.8-5.32.1-8.57-.5-8.57-.9,0-.5,3.25-.7,8.37-1.4,2.56-.3,5.61-.9,9.06-1.5s7.09-1.3,11.13-2c3.94-.7,7.78-1.2,11.32-1.4,1.77-.1,3.45-.2,5.02-.1.79,0,1.58,0,2.26.1.69.1,1.48.1,2.07.2,5.42.5,8.47,1.8,8.37,2.2h0Z"/>
  <path class="cls-8" d="m329.69,385.1c1.38,7.7,4.23,18.2,10.14,29.5,7.98,15.4,18.12,25.5,24.91,31.4,5.81,18,13.49,37.9,23.73,59.1,14.28,29.6,30.03,54,44.51,73.6.2-11.7,1.18-24.9,3.54-39.2,1.48-9.1,3.35-17.6,5.32-25.3-3.45-3.2-8.17-7.9-13.69-13.9-16.44-18-28.75-31.5-34.47-50.6-2.07-7,.2-3.2-4.73-36.8-3.94-26.7-3.64-17.4-4.73-27.7-.98-8.7-1.18-15.8-3.54-16.3-2.17-.4-4.92,5.1-5.32,6-3.84,7.7-2.07,14.9-2.95,15.1-1.18.2-4.43-12.5-8.27-25.9-3.94-13.9-6.2-20.2-11.92-22.9-.79-.4-4.43-2.1-7.68-.6s-4.43,5.6-5.32,10.3c-2.07,10.5-3.74,18.8-1.18,32.6,2.17,11.9,5.81,18.7,4.73,19.3-.79.2-3.64-2.4-13.1-17.7h0Zm151.35,433.6c-5.32,10.2-11.72,25.1-14.87,44-1.97,12-2.26,22.7-1.77,31.4,13.1,30.8,26.1,61.5,39.19,92.3,3.74-2,9.35-4.4,16.64-5.4,10.64-1.5,19.2.8,23.73,2.4-2.95-15.4-5.12-27.9-6.5-36.2-4.73-27.9-5.51-37.3-10.14-52.5-4.04-13.4-8.67-23.7-11.92-30.1,2.86-3.2,6.7-7.9,10.73-13.9,8.76-13,13.2-19.7,13.1-28.3-.2-10.4-7.09-22.5-17.82-26.5-13.88-5.3-32.89,3.5-40.37,22.8h0Zm136.58,18.1c1.87,5.3,4.43,13.2,6.5,22.9,1.38,6.3,2.26,11.9,4.14,28.9,2.95,26.1,2.36,25.9,3.54,33.2,1.48,8.8,4.33,21.3,10.73,36.2,5.61-1.1,12.41-1.9,20.19-1.8,5.32.1,10.04.5,14.28,1.2-.2-8.2-.69-19.8-1.77-33.8-3.05-39.5-6.4-41.2-13.69-93.5-4.14-29.4-4.53-39.8-12.51-43.4-8.96-4.1-21.76,3-28.46,11.5-8.17,10.3-9.35,25.3-2.95,38.6h0Zm11.82-423.9c2.46,8.4,6.3,13.3,9.45,16.3,5.32,5,9.26,4.9,11.92,10.3.79,1.6,1.08,2.9,2.36,13.9.49,4.1.89,7.6,1.18,10.3,7.98,13.1,15.85,26.1,23.73,39.2,5.32,8.8,10.73,17.7,16.05,26.5.69-13.2-.2-24.3-1.18-32.6-.98-8-2.86-22-8.86-38.6-4.43-12.1-6.79-13.9-8.86-24.1-1.97-9.6-.49-11.3-2.95-22.9-.79-3.7-2.95-9.7-7.09-21.7-2.56-7.4-4.14-11.4-8.27-13.9-1.08-.6-4.43-2.4-7.68-1.8-6.4,1.2-11.82,11.4-11.32,25.3,3.15,9.4,3.35,16.6.59,18.1-2.66,1.3-7.19-2.7-9.06-4.3h0Z"/>
  <path class="cls-7" d="m525.56,307.9c-5.71,21.2-6.89,38.6-6.89,50.8,0,23.7,4.53,36.4,1.58,60.2-1.87,14.4-5.51,26-8.47,33.6,4.33-2.1,8.76-4.2,13.1-6.3.1,4.5.49,10.8,2.26,18,1.18,4.8,3.64,14.3,10.73,24.2,6.79,9.4,14.28,14.5,18.51,17.2,12.9,8.5,17.92,4.2,36.93,12.5,13.59,5.9,14.48,9.4,19.99,8.6,12.7-1.8,21.86-21.6,23.83-37.5.49-3.9.98-10.7-5.42-38.3-4.33-18.7-6.01-22-9.26-35.2-10.04-41.2-12.31-71.9-12.31-71.9-.69-8.9-1.28-22.6-10.73-32.8-2.56-2.8-5.02-4.5-10.04-7.8-10.64-7.2-18.32-12.4-29.25-13.3-3.84-.3-14.67-1-24.62,6.3-5.32,3.9-8.37,8.7-9.95,11.7h0Z"/>
  <path class="cls-6" d="m447.57,591.7c-3.45-2.1-5.12-7.2-3.64-36.9.79-15,1.97-27.5,2.86-36.4,14.77-10.3,26.19-18.6,33.68-24,6.11-3.1,10.83-6.4,14.18-9.1,5.61-4.4,8.47-6.6,9.75-9.1,1.18-2.2,1.97-4.9,4.63-6.3,1.67-.9,3.45-.9,4.63-.8,1.08,4.9,3.64,13.4,10.14,21.5,12.31,15.3,32.89,21.9,35.75,18.1,1.87-2.5-3.54-9-2.46-9.8s6.4,6.5,12.8,11.7c13.39,10.6,36.04,14.7,46.58,5.1,3.74-3.4,6.99-9.4,8.07-15.4.59-3.6,1.77-14.1,4.04-18.5,1.97-3.8,3.35-4.4,4.73-6.9,2.86-5-6.4-26.2-3.35-28.8,1.58-1.3,6.99,1.6,15.56,9.6,9.95,9.3,18.12,20.1,31.02,43.2,8.07,14.4,12.11,21.6,13.79,27.6,4.14,15,2.76,27.3,1.18,40.6-1.97,17-3.05,26.7-9.06,28.9-9.26,3.4-22.65-13.8-23.24-14.6,1.08,8.6,2.86,22.7,5.22,40.1,7.88,59.1,9.26,64.7,8.76,80.9-.69,25.4-1.48,38.1-3.45,46.8-.69,3-2.66,10.8-1.77,20.9.59,7.4,2.46,13.4,3.94,17.2,0,2.4,0,5.8-.3,9.9-.59,9-.98,14-3.05,18.2-2.26,4.5-6.5,8.1-14.57,11.3-47.07,18.9-97.49,12.7-97.49,12.7-18.61-2.3-45.2-7.5-75.63-20.6,1.97-8,5.32-19.6,10.34-33.1,4.04-10.6,7.68-18.6,17.13-37.8,22.06-44.8,21.86-41.9,24.32-49.4,5.81-18,5.91-31.7,6.11-56.5.1-17.5.1-52-13.49-58.3-1.67-.8-4.43-1.5-8.07-4.1-5.42-3.9-7.68-12.7-12.11-13.7-2.76-.6-4.63,2.1-9.45,5.9-3.84,3.1-8.67,5.6-18.32,10.5-15.16,8.2-24.22,12.8-29.74,9.4h0Zm59.08,393.6c8.37,18.2,14.48,33.2,18.81,44.2,3.25,8.2,6.2,16.5,3.94,18.1-1.97,1.4-7.09-2.7-11.32-6.5-13.39,6.6-23.24,11.4-28.66,14-15.07,7.4-23.63,11.5-23.24,16.1.2,2.3,2.46,3.9,4.43,5,43.13-3.5,69.03-4.2,84.98-3.5,4.23.2,15.85.8,18.32-4.5,1.58-3.5-1.38-7.8-3.94-12-5.81-9.6-9.35-19.6-16.35-39.6-7.39-21.1-3.74-25.8-9.85-31.1-5.22-4.6-15.36-7.7-37.12-.2h0Zm137.86-26.5c2.76,9.4,4.14,17.3,4.92,23.1,1.67,12.2,3.15,24.1-1.97,27.1-2.36,1.4-3.64-.5-7.88,0-7.39.8-12.21,7.2-19.3,16.6-3.05,4-6.99,9.9-10.83,17.6,14.08.2,28.75.1,44.02-.5,8.96-.4,17.73-.9,26.19-1.5.3-17.3-.3-35.9-1.97-55.7-.79-9.2-1.77-18.1-2.95-26.6-10.14-.1-20.19-.1-30.23-.1Z"/>
  <path class="cls-5" d="m511.87,456.7c.1,0,0,.7-.59,1.7s-1.58,2.5-3.45,3.9c-.2.1-.49.4-.89.6-.3.2-.69.4-.98.6-.69.4-1.48.6-2.26.9-.39.1-.79.2-1.28.4-.2.1-.49.1-.69.2,0-.2.1-.4.1-.6.1-.4.2-.9.3-1.3,0-.2.1-.4.1-.7.1-.3.1-.5.2-.8.49-1.7.98-3.5,1.58-5.5.39-1.7.79-3.5,1.18-5.5,1.67-7.7,2.95-16.9,3.64-27.3.69-10.4.79-21.8.69-33.8-.1-12-.2-23.6.2-34,.1-2.6.2-5.2.39-7.7s.39-4.9.59-7.2c.59-4.6.89-9,1.67-12.9.69-3.9,1.77-7.5,3.05-10.4,1.28-3,2.76-5.3,4.23-7,1.48-1.7,2.86-2.8,3.84-3.4s1.58-.8,1.67-.7c.2.3-1.97,1.5-4.53,5-1.28,1.7-2.56,4-3.54,6.9s-1.87,6.3-2.46,10.1c-.59,3.8-.89,8.2-1.28,12.7-.1,2.3-.3,4.7-.39,7.1-.1,2.5-.2,5-.2,7.6-.2,10.4-.1,21.9,0,33.9.1,12.1-.1,23.6-.98,34.1-.79,10.5-2.46,19.9-4.33,27.6-.49,1.9-.98,3.8-1.48,5.5-.3.9-.59,1.7-.79,2.5-.3,1-.39,1.1-.59,1.6-.2.5-.3.9-.49,1.3l-.1.3h.3c.2,0,.39-.1.59-.1.39-.1.79-.2,1.08-.4.2-.1.39-.2.49-.3.2-.1.3-.2.59-.3,1.77-1.1,2.86-2.4,3.64-3.2.79-.9,1.08-1.4,1.18-1.4h0Zm96.4,62.2c0,.1-.39.2-1.18.4-.39.1-.89.2-1.38.3-.59.1-1.18.2-1.97.2-2.95.3-7.39.3-12.7-.5-5.42-.8-11.72-2.7-18.32-6-3.25-1.7-6.6-3.8-9.75-6.3-.59-.4-1.08-.9-1.67-1.3-.2-.2-.39-.3-.59-.5l-.49-.5-.1-.1.1.1c.1.1.1.3.2.4.2.5.3.9.39,1.5l.3,2.7.1,1.3v1l-.3-.1c-.89-.2-1.67-.2-2.56-.5-.79-.2-1.58-.3-2.36-.5-10.04-2.3-18.71-7.5-25.21-13.5-.39-.4-.79-.7-1.18-1.1-.39-.4-.79-.8-1.08-1.2-.79-.8-1.48-1.6-2.17-2.3-.69-.8-1.28-1.6-1.97-2.4-.69-.8-1.28-1.6-1.77-2.4-1.08-1.6-2.26-3.2-3.05-4.8-.49-.8-.89-1.6-1.28-2.4-.39-.8-.69-1.6-1.08-2.3-.39-.8-.69-1.5-.98-2.2-.3-.8-.49-1.5-.79-2.2s-.49-1.4-.69-2.1c-.2-.7-.39-1.4-.59-2-.3-1.3-.69-2.5-.89-3.6-.2-1.1-.3-2.2-.49-3.1-.2-.9-.2-1.8-.2-2.5v-1.8c0-1,.1-1.5.2-1.5s.3.5.49,1.4c.1.5.2,1.1.3,1.8.1.7.2,1.5.49,2.4.2.9.49,1.9.69,3s.69,2.2,1.08,3.4c.2.6.39,1.3.69,1.9.3.6.59,1.3.79,2l.89,2.1c.39.7.69,1.4,1.08,2.1.39.7.69,1.5,1.18,2.2s.89,1.5,1.38,2.2c.89,1.5,1.97,3,3.05,4.5.49.8,1.18,1.5,1.77,2.3.59.7,1.28,1.5,1.97,2.3l2.17,2.2,1.08,1.1c.39.3.79.7,1.18,1,6.3,5.6,14.48,10.4,23.93,12.6.39.1.69.1,1.08.2v-.7l-.1-.6c0-.3-.1-.5-.2-.7-.1-.5-.2-.9-.39-1.4-.1-.5-.3-1-.49-1.5l-.3-.8-.49-1-1.08-2.3-1.38-2.7c-1.08-2-2.07-4.1-3.05-6.1l1.28,1.3.59.6.2.1.1.1.3.3,1.08,1.1c1.38,1.5,2.76,3,4.14,4.4,1.38,1.5,2.86,2.9,4.23,4.3.3.3.69.6.98.9l.89.7c.39.3.79.6,1.08.9,3.05,2.4,6.11,4.5,9.26,6.2,6.2,3.4,12.21,5.4,17.43,6.5,5.12,1.1,9.45,1.4,12.31,1.4.69,0,1.38.1,1.97,0h1.48c0-.1.39,0,.39.1h0Zm-28.75-221.8c0,.2-.79.3-2.17,0-1.38-.3-3.25-1.1-5.42-2.1-1.08-.5-2.26-1.1-3.45-1.6-1.28-.5-2.66-.9-4.04-1.3-2.95-.7-6.2-1.1-9.75-.9-3.45.2-6.79.9-9.65,1.9s-5.32,2.3-7.29,3.5c-3.94,2.5-6.01,4.7-6.3,4.4-.3-.2,1.18-3,5.02-6.2,1.97-1.5,4.53-3.2,7.58-4.4,3.05-1.3,6.6-2.1,10.44-2.4,3.84-.2,7.48.3,10.64,1.3,3.15,1,5.91,2.4,7.88,3.8,2.07,1.3,3.54,2.3,4.73,3,1.18.4,1.87.8,1.77,1h0Z"/>
  <path class="cls-5" d="m612.21,526.6c-.2-.1,1.97-4.1,5.12-11.4,3.15-7.3,7.19-18.2,9.75-32.2l1.18-6.5,1.18,6.6c.49,2.6.89,5.3,1.38,8.1l-2.46-.2c1.77-5.5,2.86-11.6,3.05-18,.2-6.5-.39-13.2-1.67-20.2-2.36-14-7.09-28.6-10.54-44.3-2.07-9.5-3.54-18.8-4.92-27.8-1.28-9-2.46-17.7-3.74-26-1.28-8.2-2.56-16.1-4.23-23.2-.79-3.6-1.87-7-3.05-10.1s-2.66-6-4.43-8.5c-3.45-5-8.07-8.3-12.41-10.3-4.43-2.1-8.47-3.2-11.82-4s-6.01-1.3-7.78-1.7c-1.77-.4-2.76-.6-2.76-.7s.98-.1,2.86.1,4.53.5,7.98,1.1c3.45.7,7.68,1.6,12.31,3.6,2.36,1,4.73,2.3,7.09,4.1,2.36,1.7,4.53,4,6.5,6.6,1.87,2.6,3.54,5.7,4.92,8.9,1.28,3.3,2.46,6.8,3.35,10.4,1.77,7.3,3.15,15.1,4.53,23.4,2.76,16.5,4.73,34.8,8.76,53.6,3.45,15.5,8.17,30.2,10.44,44.5,1.18,7.1,1.77,14.1,1.48,20.8s-1.48,13.1-3.45,18.7l-1.67,4.8-.79-5.1c-.39-2.8-.89-5.5-1.28-8.1h2.36c-2.86,14.1-7.39,25-10.93,32.3-1.77,3.6-3.35,6.4-4.43,8.2-1.08,1.7-1.77,2.6-1.87,2.5h0Zm-168.49-16.8c-.2-.4,3.35-2.5,8.96-6.1,2.76-1.8,6.11-4,9.65-6.5s7.48-5.4,11.42-8.5c7.98-6.3,15.07-12.2,20.29-16.4,5.22-4.2,8.57-6.7,8.86-6.3.3.3-2.56,3.4-7.39,8.1-4.83,4.7-11.72,10.9-19.79,17.3-4.04,3.2-8.07,6-11.82,8.4s-7.19,4.5-10.14,6c-5.91,3-9.85,4.4-10.04,4h0Zm-4.04,96.9c-.39.1-2.26-5-3.94-13.5-.2-1.1-.39-2.2-.69-3.4-.2-1.2-.39-2.4-.59-3.7-.39-2.5-.69-5.3-.98-8.1-.49-5.8-.69-12.1-.39-18.8.3-6.7.98-13,1.97-18.7.49-2.8.98-5.5,1.58-8,.3-1.2.59-2.5.89-3.6l.89-3.3c2.36-8.4,4.63-13.3,5.02-13.1.49.2-.98,5.3-2.86,13.7-.2,1.1-.49,2.2-.69,3.3s-.39,2.4-.69,3.6c-.49,2.5-.89,5.1-1.28,7.9-.79,5.6-1.38,11.8-1.67,18.4-.2,6.5-.1,12.8.2,18.4.2,2.8.39,5.5.69,8,.1,1.3.2,2.5.39,3.6.2,1.2.3,2.3.39,3.3,1.18,8.6,2.26,13.9,1.77,14h0Z"/>
  <path class="cls-5" d="m523.59,550.4c.3.3-3.74,4.4-10.73,10.3-3.54,3-7.78,6.3-12.7,9.9-4.92,3.6-10.44,7.3-16.35,11-5.91,3.7-11.72,6.9-17.04,9.7-5.32,2.8-10.24,5.1-14.48,7-8.37,3.7-13.69,5.4-13.88,5-.2-.4,4.83-2.9,12.9-7.1,4.04-2.1,8.76-4.6,13.98-7.5,5.22-2.9,10.93-6.2,16.74-9.9,5.91-3.7,11.32-7.3,16.35-10.7,4.92-3.4,9.35-6.6,13-9.3,7.39-5.3,11.92-8.7,12.21-8.4Zm-182.37-147c-.39.2-4.14-5.1-9.85-13.9-1.38-2.2-2.95-4.6-4.63-7.2-.3-.4-.59-.9-.89-1.4-.1-.2-.3-.4-.39-.6l-.2-.3v.4c.1.6.1,1.1.2,1.6l.1.4.1.8c.1.9.3,1.8.49,2.7.2.9.3,1.8.49,2.8.2.9.49,1.8.69,2.8.2.9.39,1.9.69,2.8s.59,1.9.89,2.8c2.36,7.5,5.61,14.4,9.06,20.3,3.45,6,6.89,11.1,10.04,15.2,6.2,8.4,10.64,13.1,10.34,13.5-.3.3-5.32-3.9-12.11-12-3.45-4-7.19-9.1-10.83-15.1s-7.09-13-9.55-20.9c-.3-1-.59-2-.89-2.9-.3-1-.49-2-.69-2.9-.2-1-.49-1.9-.69-2.9s-.3-1.9-.49-2.9-.39-1.9-.39-2.8c-.1-.7-.1-1.3-.2-2-.1-.8-.2-1.6-.2-2.3s-.1-1.4-.1-2.1-.1-1.5-.1-2.2c-.1-1.4-.1-2.9-.2-4.3v-1.5c0-.1-.1-.5.1-.2.39.6.69,1.2,1.08,1.7l2.07,3.3c1.38,2.3,2.76,4.6,4.04,6.7,1.58,2.7,3.05,5.2,4.33,7.4,5.02,9.2,8.07,14.9,7.68,15.2h0Zm12.21-11.4c-.39.1-1.97-5.2-4.53-13.7-1.28-4.3-2.86-9.4-4.63-15-.89-2.8-1.87-5.8-2.95-8.9-.3-.7-.49-1.5-.79-2.2l-.2-.6c-.1-.4-.3-.7-.39-1.1-.1.3-.1.6-.2.9l-.1.6c-.1.6-.2,1.1-.3,1.7-.3,1.8-.49,3.5-.79,5.2-.39,3.4-.79,6.7-.89,9.9-.3,6.3,0,12,.69,16.7,1.38,9.5,4.04,14.9,3.54,15.1-.2.1-.98-1.2-2.26-3.6-1.18-2.5-2.56-6.3-3.54-11.1-.98-4.8-1.58-10.7-1.38-17.2.1-3.3.39-6.7.69-10.2.2-1.7.39-3.5.79-5.3l.2-1.4c.1-.7.3-1.5.39-2.3.3-1.6.59-3.1.89-4.7.49-2.2.89-4.4,1.38-6.5.98,2.9,1.97,5.7,2.95,8.5.49,1.4.98,2.8,1.38,4.1.3.8.49,1.7.79,2.5.98,3.1,1.87,6.1,2.76,9,1.67,5.8,2.95,11,4.04,15.3,2.07,8.7,2.86,14.2,2.46,14.3h0Z"/>
  <path class="cls-5" d="m359.63,389.2c-.89.1-3.35-13.3-8.07-29.4-1.28-4.4-2.56-8.6-3.74-12.3-.59-1.9-1.18-3.5-1.97-4.7-.2-.3-.39-.5-.69-.8-.2-.2-.49-.4-.59-.5-.3-.2-.69-.4-.98-.2-.3.2-.3.4-.49.7-.1.1-.1.4-.2.6-.1.2-.1.4-.2.6-.2.8-.39,1.6-.49,2.2-.2,1.2-.3,1.9-.49,2-.2,0-.49-.7-.59-2-.1-.7-.1-1.5,0-2.5,0-.2.1-.5.1-.7,0-.3.1-.5.2-.9.2-.7.39-1.6.98-2.1.39-.3.89-.4,1.48-.4.3,0,.49.1.79.1.3.1.59.2.79.3.59.3.89.5,1.38.8.39.3.69.7,1.08,1,1.28,1.5,2.07,3.4,2.76,5.3,1.38,3.7,2.86,7.9,4.14,12.3,4.63,16.7,5.61,30.6,4.83,30.6Z"/>
  <path class="cls-5" d="m371.35,394.1c-.49.1-1.18-3.6-2.56-9.3-1.38-5.7-3.64-13.5-7.19-21.7-1.77-4.1-3.64-7.9-5.42-11.3-1.77-3.3-4.04-7-4.33-7.5-.1-.2-.2-.4-.3-.5l-.2-.3c-.1-.1-.1-.3-.1-.1-.1.2-.3.5-.39.7-.2.5-.39,1.1-.49,1.7,0,.1-.1.3-.1.5s0,.3-.1.5c0,.3-.1.6-.1.8-.1.4-.1.7-.2.7s-.3-.2-.39-.6c-.1-.2-.1-.5-.2-.8,0-.2-.1-.3-.1-.5s-.1-.4-.1-.7c-.1-1.1,0-2.5.39-4,.2-.8.39-1.6.69-2.5.1-.4.2,0,.39.1.1.2.3.3.39.5.3.3.59.7.89,1.1.3.4.69.8.98,1.1.2.2.3.4.49.6s.39.5.59.7c.59.8,1.08,1.6,1.67,2.4.98,1.5,2.07,3,3.05,4.7,2.07,3.4,4.04,7.3,5.81,11.5,3.54,8.5,5.61,16.6,6.4,22.5,1.08,5.9.89,9.6.49,9.7h0Zm23.44,58.7c-.2.1-1.08-1.1-2.36-3.5-1.18-2.4-2.56-6.2-3.45-11-.89-4.8-1.28-10.6-1.48-17-.1-3.2-.2-6.5-.39-9.9-.1-1.7-.3-3.4-.39-5.2-.2-1.7-.39-3.5-.79-5.2-.3-1.8-.79-3.5-1.18-5.1-.49-1.7-1.08-3.3-1.58-4.9-1.08-3.3-2.17-6.6-2.46-10-.1-.9-.1-1.7,0-2.5,0-.8.1-1.7.3-2.4.1-.7.2-1.4.2-2s-.1-1.1-.3-1.5-.49-.8-.89-1-.59-.2-.89-.2c-.39,0-1.18,1.3-1.77,2.2-2.36,4-3.45,7.7-4.04,10.2-.59,2.6-.69,4.1-.89,4.1s-.49-1.5-.3-4.3c.2-2.7.98-6.8,3.25-11.2.3-.6.59-1.1.98-1.7.2-.3.39-.6.69-.9s.79-.7,1.18-.8c.98-.4,2.17-.2,2.95.3s1.48,1.1,1.97,2c.98,1.8.69,3.6.59,5.1-.1.8-.2,1.5-.2,2.2s0,1.4.1,2.2c.3,2.9,1.38,6,2.46,9.2.59,1.6,1.18,3.3,1.67,5.1.49,1.8.98,3.6,1.28,5.5.39,1.9.59,3.7.79,5.5.1,1.8.3,3.6.39,5.3.2,3.5.2,6.9.2,10,0,6.4.2,12,.79,16.7s1.58,8.4,2.36,10.9c.89,2.3,1.38,3.7,1.18,3.8h0Zm34.37,124.2c-.2.2-1.58-1.2-4.14-3.7l-2.07-2.1c-.69-.8-1.48-1.7-2.36-2.7-1.67-1.9-3.64-4.1-5.51-6.6-.98-1.3-1.97-2.6-3.05-4s-2.07-2.9-3.15-4.4c-2.26-3-4.33-6.5-6.7-10-4.43-7.2-8.96-15.4-13.29-24.1-8.57-17.6-14.97-34.1-19.3-46.1-4.33-12-6.7-19.6-6.3-19.7.39-.2,3.54,7.1,8.47,18.9,4.92,11.8,11.52,28.1,20.09,45.5,4.33,8.7,8.76,16.8,13,24,2.17,3.6,4.23,7,6.3,10.1,1.08,1.5,1.97,3.1,2.95,4.5s1.97,2.8,2.86,4.1c1.77,2.6,3.54,4.9,5.12,6.9.79,1,1.48,1.9,2.17,2.8.69.8,1.28,1.6,1.87,2.3,2.07,2.6,3.25,4.2,3.05,4.3h0Z"/>
  <path class="cls-5" d="m440.67,512.9c0,.1-.2.3-.79.4-.59.1-1.58-.2-2.36-.9-.39-.3-.89-.7-1.28-1.2s-.89-1-1.28-1.5c-.98-1.1-1.97-2.3-3.15-3.7-4.53-5.5-10.64-13.4-16.94-22.3-12.6-17.9-21.37-33.5-20.58-33.9.79-.5,10.64,14.2,23.24,32,6.3,8.9,12.01,17,16.15,22.8.98,1.5,1.97,2.8,2.76,4,.39.6.79,1.1,1.08,1.6s.59.9.98,1.2c.59.7,1.18,1,1.58,1.2.3.2.59.2.59.3h0Zm130.77-22.1c-.3.3-4.63-4.1-10.54-12.1-.69-1-1.48-2.1-2.26-3.2-.79-1.1-1.48-2.3-2.36-3.5-1.67-2.4-3.15-5.2-4.83-8-3.25-5.8-6.4-12.3-9.26-19.4-2.86-7.1-5.02-14.1-6.7-20.5-.79-3.2-1.58-6.3-2.07-9.2-.3-1.4-.59-2.8-.79-4.2-.2-1.4-.39-2.6-.59-3.9-1.38-9.9-1.18-16.1-.79-16.1.49,0,1.18,6.1,3.05,15.8.2,1.2.49,2.5.79,3.8s.59,2.7.98,4.1c.59,2.8,1.48,5.8,2.26,9,1.77,6.3,4.04,13,6.79,20,2.86,6.9,5.91,13.4,8.96,19.1,1.58,2.8,3.05,5.6,4.53,8,.79,1.2,1.38,2.5,2.17,3.6l2.07,3.3c5.22,8.2,8.96,13.1,8.57,13.4h0Zm122.99,40.4c-.39.2-3.74-4.8-8.96-13.2-2.56-4.2-5.61-9.2-8.96-14.8s-6.89-11.8-10.73-18.2c-3.84-6.4-7.78-12.4-11.62-17.5s-7.78-9.4-11.32-12.6c-3.54-3.3-6.79-5.5-8.96-7.1-2.26-1.5-3.54-2.3-3.45-2.6.1-.2,1.58.3,4.04,1.5,2.46,1.3,6.01,3.3,9.85,6.4,3.84,3.1,8.07,7.4,12.21,12.5,4.14,5.1,8.17,11.2,12.01,17.6,3.94,6.5,7.39,12.7,10.54,18.4,3.15,5.7,6.01,10.8,8.37,15.2,4.63,8.6,7.39,14.1,6.99,14.4h0Zm-6.3,54.8c-.98-.3,2.95-13.2,3.35-29.5.49-16.4-2.66-29.4-1.77-29.7.39-.1,1.67,3,2.95,8.4.59,2.7,1.18,5.9,1.58,9.5s.59,7.6.49,11.8-.49,8.2-1.08,11.8-1.28,6.8-2.07,9.4c-1.58,5.3-3.05,8.4-3.45,8.3Zm-213.09,223.8c-.2,0,0-2.1.59-5.7.2-.9.3-1.9.49-3s.49-2.3.79-3.6c.59-2.5,1.18-5.5,2.17-8.6.39-1.6.89-3.2,1.38-5,.49-1.7,1.08-3.5,1.67-5.3,1.18-3.7,2.56-7.6,4.14-11.7,3.15-8.1,6.89-16.9,11.32-25.9,8.86-18,18.12-33.5,25.01-44.6,6.89-11.1,11.42-17.8,11.82-17.5.39.2-3.45,7.4-9.85,18.7-6.4,11.4-15.26,27.1-24.03,44.9-4.33,8.9-8.17,17.6-11.42,25.6-1.58,4-3.05,7.8-4.33,11.4-.59,1.8-1.28,3.5-1.87,5.2-.59,1.7-1.08,3.3-1.58,4.9-1.08,3.1-1.77,5.9-2.56,8.4-.39,1.2-.69,2.4-.98,3.5s-.59,2.1-.79,2.9c-1.08,3.5-1.77,5.4-1.97,5.4h0Z"/>
  <path class="cls-5" d="m673.66,812.1c.1.1-.39.7-1.48,1.7-.49.5-1.18,1.2-1.97,1.9s-1.77,1.5-2.86,2.4c-4.33,3.6-10.93,8.3-19.89,12.7-4.53,2.1-9.55,4.3-15.16,6.1-5.61,1.8-11.62,3.4-18.12,4.5-13,2.4-27.57,2.9-42.64,1.7s-29.34-4.1-42.05-7.2c-6.4-1.6-12.31-3.2-17.92-4.8-5.61-1.6-10.83-3.2-15.46-4.9s-8.86-3.6-12.31-5.6-6.2-4.1-8.27-6c-.49-.5-.98-.9-1.38-1.4s-.89-.9-1.18-1.3c-.69-.8-1.28-1.5-1.67-2.1-.79-1.2-1.18-1.9-1.08-2,.2-.2,1.97,2.4,6.3,5.8,2.17,1.7,4.92,3.6,8.37,5.4,3.45,1.8,7.48,3.5,12.21,5,4.63,1.5,9.85,3,15.46,4.5,5.61,1.5,11.62,3,17.92,4.5,12.6,2.9,26.69,5.6,41.56,6.9,14.87,1.2,29.15.8,41.85-1.4,6.4-1.1,12.31-2.5,17.82-4.1s10.44-3.6,14.97-5.6c8.96-4,15.66-8.4,20.09-11.6,1.08-.8,2.17-1.5,2.95-2.2.89-.7,1.58-1.2,2.17-1.7,1.08-.8,1.77-1.2,1.77-1.2h0Z"/>
  <path class="cls-5" d="m668.34,813.1c-.89-.3,1.67-9,1.87-20,.3-11-1.77-19.8-.89-20.1.39-.1,1.48,2,2.46,5.6.49,1.8.89,4,1.28,6.5.3,2.5.49,5.2.39,8.1-.1,2.9-.39,5.6-.79,8.1s-.98,4.6-1.58,6.4c-1.18,3.5-2.36,5.5-2.76,5.4Zm-89.61,2.3c-.39-.2,1.38-3.9,4.92-9.3,1.77-2.7,4.04-5.9,6.7-9.3,2.66-3.4,5.71-7,9.16-10.6s6.79-6.9,10.04-9.7c3.25-2.8,6.2-5.3,8.86-7.2,5.22-3.8,8.76-5.8,8.96-5.4.59.8-12.21,10.3-25.6,24.6-13.39,14.1-22.25,27.5-23.04,26.9Zm-61.05,51c-.39-.1-.3-2,.49-4.8.79-2.8,2.26-6.6,4.53-10.5,2.17-3.9,4.63-7.1,6.6-9.3,1.97-2.1,3.45-3.2,3.84-2.9.69.6-3.45,6.3-7.68,13.8-4.14,7.5-6.89,14-7.78,13.7h0Zm52.19,188.9c-.2.1-1.58-2.3-3.94-6.9-2.26-4.5-5.42-11.2-8.86-19.6-3.45-8.4-7.19-18.6-10.73-30.2-3.54-11.5-6.89-24.4-9.45-38.1-2.66-13.7-4.53-26.8-6.6-38.6-1.97-11.8-4.14-22.4-6.3-31.2-2.26-8.8-4.43-15.8-6.2-20.5-.39-1.2-.79-2.3-1.18-3.2-.3-.9-.59-1.7-.79-2.3-.39-1.3-.59-2-.49-2s.49.6,1.08,1.7c.3.6.69,1.3,1.08,2.2s.98,1.9,1.38,3.1c2.07,4.7,4.63,11.6,7.19,20.4,2.56,8.8,4.92,19.4,7.09,31.3,2.17,11.9,4.14,24.9,6.79,38.5,2.56,13.6,5.81,26.4,9.16,37.9,3.35,11.5,6.89,21.7,10.04,30.2,3.15,8.5,5.91,15.3,7.88,20,1.97,4.6,3.05,7.2,2.86,7.3h0Zm-109.7-168.4c-.39,0-.69-4-.39-10.5.1-3.2.49-7.1.98-11.4.59-4.3,1.28-8.9,2.36-13.8,1.08-4.8,2.26-9.4,3.45-13.5,1.28-4.1,2.46-7.8,3.74-10.8,2.36-6,4.23-9.6,4.63-9.4.89.4-4.73,15.3-8.67,34.4-4.14,19.2-5.12,35.1-6.11,35Zm69.03,160.8c-.2.1-1.58-1.9-3.84-5.6-1.18-1.9-2.46-4.2-4.04-6.9-1.58-2.7-3.35-5.8-5.12-9.2-3.74-6.9-8.07-15.1-12.8-24.4-4.63-9.3-9.55-19.6-14.48-30.5s-9.35-21.4-13.29-31c-3.84-9.6-7.19-18.4-9.85-25.7-1.38-3.7-2.46-7-3.54-10-.98-2.9-1.87-5.5-2.46-7.6-1.28-4.2-1.97-6.5-1.77-6.6s1.18,2.1,2.86,6.2c1.67,4.1,4.04,9.9,6.99,17.2s6.5,15.9,10.44,25.4c4.04,9.5,8.57,20,13.49,30.8,4.92,10.9,9.75,21.2,14.28,30.5,4.53,9.3,8.57,17.7,12.11,24.6,3.54,7,6.3,12.7,8.27,16.6,1.97,3.9,2.95,6.1,2.76,6.2h0Z"/>
  <path class="cls-5" d="m684.39,985.6c-.25.4-3.69-.8-9.48-2s-13.91-2.2-22.89-1.2c-4.43.4-8.62,1.3-12.31,2.4-.98.2-1.85.6-2.71.8-.86.3-1.72.6-2.46.9-1.48.6-2.83,1.3-3.94,2-2.22,1.4-3.45,3-3.94,4.2s-.49,2-.86,2c-.25,0-.74-.7-.74-2.3.12-1.5,1.23-3.7,3.57-5.6,1.11-1,2.58-1.9,4.19-2.7.86-.4,1.72-.8,2.58-1.1.86-.3,1.85-.7,2.83-1,3.82-1.3,8.37-2.3,13.17-2.8,9.6-1,18.46.4,24.25,2.3,5.91,1.7,8.99,3.8,8.74,4.1h0Zm-101.92,88.4c-.12,0-.37-.1-.62-.7-.25-.5-.12-1.4.37-2.3.49-.9,1.48-1.8,2.71-2.7,1.23-.8,2.46-1.7,3.94-2.7,5.91-4,14.4-9.3,24.5-14.3s20.06-8.6,27.57-10.3c1.85-.4,3.57-.9,5.17-1.1,1.6-.2,2.95-.3,4.19-.2,2.34.2,3.32,1,3.2,1.2s-1.23-.1-3.32.1c-1.97.1-4.8.9-8.37,2.1-7.02,2.3-16.49,6-26.46,10.9s-18.59,9.9-24.99,13.4c-1.6.9-3.08,1.6-4.31,2.3-1.23.6-2.09,1.3-2.71,1.9-.98,1.3-.62,2.3-.86,2.4h0Zm135.03-2.9c0,.4-7.39,1.3-19.2,2.2-11.94,1-28.43,2.1-46.65,3.1-18.22,1-34.96,1.3-46.9,1-12.06-.4-19.45-1.2-19.45-1.7s7.51-.4,19.45-.7c11.94-.2,28.43-.9,46.65-1.9s34.83-1.8,46.77-2.1c11.82-.3,19.33-.3,19.33.1Z"/>
  <path class="cls-5" d="m573.12,1071.7c-.89-.4-.1-3.9-.79-8.1-.59-4.2-2.36-7.4-1.67-8,.3-.3,1.28.2,2.36,1.5s2.07,3.4,2.46,6,0,4.9-.59,6.5c-.59,1.5-1.38,2.3-1.77,2.1Zm73.26-62c-.59,0-.89-9.2-4.04-23.7-1.48-7.2-3.74-15.8-6.4-25.2-2.66-9.4-5.81-19.8-8.47-30.9-2.66-11.1-4.53-21.9-5.12-31.8-.39-5-.3-9.7-.39-14,0-4.4-.1-8.4-.3-12.1-.2-3.7-.69-7-1.28-9.8-.2-.7-.3-1.4-.49-2-.2-.7-.39-1.3-.49-1.9-.3-1.2-.79-2.3-1.08-3.2-.79-1.9-1.38-3.4-1.87-4.3-.49-1-.69-1.5-.59-1.6s.49.4,1.18,1.2c.69.9,1.58,2.3,2.46,4.2.39,1,.98,2,1.38,3.2.2.6.49,1.2.69,1.9l.59,2.1c.79,2.9,1.38,6.3,1.77,10,.39,3.7.59,7.9.69,12.2.2,4.4.2,9,.59,13.9.69,9.7,2.66,20.3,5.32,31.3,2.66,11,5.71,21.3,8.17,30.9,2.56,9.5,4.63,18.2,5.81,25.6.39,1.8.59,3.6.79,5.3.2,1.7.49,3.2.59,4.7.3,3,.49,5.5.59,7.6.2,4.1.1,6.4-.1,6.4h0Zm32.3,31.5c-.2,0-.39-3-.59-8.5-.2-5.5-.39-13.4-.69-23.2-.2-4.9-.3-10.3-.59-16-.2-5.8-.49-11.9-.89-18.4-.69-12.9-1.58-27.1-2.76-42-1.18-14.9-2.56-29.1-3.94-41.9-.69-6.4-1.38-12.5-2.07-18.3-.69-5.7-1.38-11-1.97-15.9-1.28-9.7-2.26-17.6-3.05-23-.69-5.4-.98-8.5-.79-8.5s.89,2.9,1.97,8.3c.59,2.7,1.18,6,1.87,9.8.69,3.8,1.48,8.2,2.17,13.1.79,4.8,1.58,10.2,2.36,15.9.79,5.7,1.58,11.8,2.36,18.3,1.58,12.9,3.05,27.1,4.23,42,1.18,14.9,1.97,29.2,2.56,42.2.2,6.5.49,12.6.59,18.4s.2,11.1.2,16.1,0,9.3-.1,13.2c0,3.9-.1,7.3-.2,10-.2,5.3-.49,8.4-.69,8.4h0Zm-70.31,4.4c-.39-.1-.1-3.2,1.58-7.9.2-.6.49-1.2.69-1.8.3-.6.59-1.3.89-1.9.59-1.3,1.38-2.7,2.17-4.1,1.67-2.8,3.84-5.8,6.4-8.6,2.66-2.8,5.42-5.1,8.07-7,1.38-.9,2.66-1.8,3.94-2.5.69-.3,1.28-.7,1.87-1s1.18-.6,1.77-.8c4.53-2,7.58-2.4,7.68-2,.2.5-2.56,1.7-6.7,4.1-.49.3-1.08.6-1.58,1-.59.3-1.08.7-1.67,1.1-1.18.7-2.36,1.7-3.54,2.6-2.46,1.9-5.02,4.2-7.48,6.8-2.46,2.6-4.53,5.4-6.3,8-.79,1.3-1.67,2.6-2.36,3.8-.3.6-.69,1.2-.98,1.8-.3.6-.59,1.1-.89,1.7-2.07,4-3.15,6.8-3.54,6.7h0Z"/>
  <ellipse class="cls-10" cx="799.85" cy="1042.2" rx="1.6" ry="28.68" transform="translate(-249.77 1832.29) rotate(-89.47)"/>
  <path class="cls-5" d="m682.32,961.5c-.39.9-9.26-2.5-20.78-3.1-11.52-.8-20.78,1.4-20.97.5-.1-.4,2.07-1.5,5.91-2.5,1.87-.5,4.23-.9,6.79-1.2,2.56-.2,5.51-.3,8.47-.1,3.05.2,5.81.6,8.37,1.2s4.83,1.3,6.6,2c3.74,1.5,5.81,2.8,5.61,3.2h0Zm-158.34-375.2c-.49.7-6.11-2.8-11.32-8.8-5.32-6-8.07-12-7.29-12.5s4.63,4.5,9.65,10.3c5.12,5.8,9.55,10.3,8.96,11Z"/>
  <path class="cls-5" d="m528.8,693.1c-.49-.1.69-6.7,1.77-17.5.1-1.3.3-2.8.39-4.2.1-1.5.2-3,.3-4.6.3-3.2.3-6.6.49-10.1.2-7.2.1-15-.49-23.3-.59-8.2-1.58-16-2.66-23.1-.59-3.5-1.18-6.9-1.87-10-.3-1.6-.59-3.1-.89-4.5s-.69-2.8-.98-4.1c-2.56-10.5-4.53-17-4.04-17.1.39-.1,3.15,6,6.3,16.5.39,1.3.79,2.7,1.18,4.1.39,1.4.69,3,1.08,4.5.79,3.1,1.48,6.5,2.17,10.1,1.28,7.1,2.36,15,2.95,23.4.49,8.4.49,16.3.2,23.6-.2,3.6-.39,7.1-.79,10.3-.2,1.6-.3,3.2-.49,4.6-.2,1.5-.39,2.9-.59,4.3-1.77,10.7-3.74,17.2-4.04,17.1Zm128.9-124.3c-.79.2-5.02-13.7-6.4-31.5-1.48-17.8.59-32.2,1.38-32.2.98.1.39,14.4,1.87,31.9,1.38,17.5,4.14,31.6,3.15,31.8Z"/>
  <path class="cls-5" d="m663.02,795c-.2-.1.3-3.3,1.38-9.2.3-1.5.59-3.1.98-4.9.3-1.8.59-3.8.89-5.9.59-4.2,1.48-9,1.97-14.3.3-2.7.59-5.4.98-8.3.3-2.9.49-5.9.69-9.1.59-6.3.69-13,.98-20,.2-14.1-.1-29.7-1.18-45.9-1.08-16.3-2.86-31.7-4.53-45.8-.89-7-1.77-13.7-2.66-19.9-.89-6.2-1.67-12-2.46-17.3-1.58-10.6-2.86-19.2-3.64-25.1-.79-5.9-1.18-9.2-.98-9.3.2,0,.98,3.2,2.17,9.1,1.18,5.9,2.86,14.4,4.73,25,.89,5.3,1.97,11.1,2.86,17.3.98,6.2,1.97,12.9,2.95,19.9,1.87,14.1,3.74,29.6,4.83,45.9,1.08,16.4,1.28,32,.89,46.2-.39,7.1-.59,13.9-1.28,20.2-.3,3.1-.49,6.2-.89,9.1-.39,2.9-.79,5.7-1.18,8.4-.69,5.3-1.67,10.1-2.46,14.3-.39,2.1-.79,4-1.18,5.8-.49,1.8-.89,3.4-1.18,4.8-1.48,5.8-2.46,9-2.66,9h0Z"/>
  <path class="cls-5" d="m686.75,587.8c.2-.1.59.4.79,1.6.1.6.1,1.3-.1,2.1s-.59,1.7-1.18,2.6c-.59.9-1.38,1.7-2.36,2.4s-2.36,1.3-3.64,1.5c-2.76.5-5.71-.1-8.47-1.3-5.42-2.4-9.26-6.1-11.62-9-2.36-3-3.25-5.2-2.86-5.4.39-.3,1.87,1.4,4.53,3.8,1.28,1.2,2.95,2.6,4.83,3.9,1.87,1.3,4.04,2.7,6.4,3.7s4.73,1.6,6.79,1.3c1.97-.2,3.64-1.2,4.73-2.4.49-.6.98-1.2,1.18-1.7.3-.6.49-1.1.49-1.6.3-.9.2-1.5.49-1.5h0Zm-38.4-150.1c.79-.3,3.25,5.3,4.33,12.6,1.08,7.3.3,13.4-.59,13.3-.89,0-1.58-5.8-2.56-12.9-1.08-7-2.07-12.7-1.18-13h0Zm-6.89-17.4c-.3.4-3.25-1.3-7.98-4.3-1.18-.8-2.46-1.6-3.84-2.5l-.49-.3-.2-.1c-.1-.1-.2-.1-.39-.2s-.39-.2-.59-.4l-.1-.1s-.1-.1-.1,0l.1.4c.1.3.2.5.3.8.2.7.39,1.3.59,2,.3,1,.59,2,.98,3,1.28,4,2.95,7.6,4.83,10.6,1.87,3,4.04,5.4,6.01,7.2,4.04,3.5,7.48,4.4,7.29,4.9,0,.2-.98.3-2.56-.1s-3.74-1.3-6.2-2.9c-2.36-1.7-4.92-4.1-7.09-7.3s-3.94-7.1-5.32-11.2c-.39-1-.69-2.1-.98-3.1-.1-.5-.3-1-.39-1.5-.2-.8-.39-1.6-.69-2.4-.39-1.7-.89-3.3-1.28-4.9-.2-.8-.39-1.6-.59-2.3-.3-.7.3-.1.59.1s.69.5.98.7c1.28.9,2.46,1.8,3.74,2.7.59.4,1.18.9,1.77,1.3.49.4.89.7,1.38,1,1.28,1,2.46,2,3.54,2.8,4.33,3.4,6.89,5.8,6.7,6.1h0Z"/>
  <path class="cls-5" d="m647.37,368.9c.89.5-4.43,10.6-6.89,24.2-2.56,13.6-1.18,25-2.17,25.1-.39.1-1.28-2.7-1.77-7.4-.3-2.3-.39-5.1-.3-8.3.1-3.1.39-6.5,1.08-10.1.69-3.5,1.58-6.8,2.56-9.8.98-2.9,2.07-5.5,3.15-7.6,2.17-4,3.94-6.3,4.33-6.1h0Z"/>
  <path class="cls-5" d="m651.6,414.9c-.89-.1-.98-10.2-2.36-22.7-1.38-12.4-3.54-22.4-2.66-22.6.79-.3,4.43,9.5,5.91,22.3,1.38,12.7,0,23.1-.89,23h0Z"/>
  <path class="cls-5" d="m659.97,419.9c-.98-.1-.39-11.4-2.86-25.1-.59-3.4-1.28-6.6-1.97-9.5-.39-1.5-.69-2.8-1.08-4.1-.39-1.3-.59-2.5-1.08-3.4-.79-2-1.87-3.3-2.76-3.8-.89-.6-1.67-.5-1.67-.7,0-.1.1-.2.49-.4.39-.1.98-.2,1.67-.1,1.48.3,3.15,1.8,4.43,4,.3.5.59,1.1.89,1.7s.49,1.2.69,1.9c.49,1.3.89,2.7,1.38,4.2.89,3,1.67,6.3,2.26,9.8,1.18,7,1.38,13.5,1.08,18.2-.39,4.5-.98,7.3-1.48,7.3Zm8.76,3.5c-.49,0-.89-2.9-1.28-7.5s-.79-10.9-2.17-17.7c-1.28-6.8-3.45-12.6-5.51-16.6s-3.74-6.3-3.45-6.6c.3-.3,2.66,1.5,5.32,5.4,2.66,3.9,5.42,10.1,6.7,17.2,1.38,7.1,1.38,13.6,1.28,18.3-.1,4.6-.49,7.5-.89,7.5h0Z"/>
  <path class="cls-5" d="m673.95,425c-.89,0-1.28-7-3.25-15.2-1.87-8.3-4.43-14.7-3.64-15.1.39-.2,1.58,1.2,2.95,3.8,1.38,2.6,2.86,6.3,3.84,10.7.98,4.3,1.28,8.4,1.08,11.3-.1,2.7-.49,4.5-.98,4.5h0Zm21.37,110c-.49,0-1.08-6.4-2.17-16.8-.49-5.2-1.18-11.3-1.97-18.2-.89-6.8-1.67-14.3-3.05-22.1-.69-3.9-1.58-7.6-2.66-11.1s-2.36-6.8-3.64-10c-1.28-3.2-2.46-6.2-3.54-9.1-1.08-2.9-1.87-5.7-2.56-8.2-1.28-5.2-1.48-9.6-1.18-12.5.1-.7.1-1.4.2-2s.2-1,.3-1.4c.2-.8.39-1.1.49-1.1s.2.4.2,1.2v1.4c0,.6,0,1.2.1,1.9.1,2.9.59,7,2.07,11.9.79,2.4,1.67,5.1,2.86,7.9,1.18,2.8,2.46,5.8,3.74,9,1.38,3.2,2.76,6.6,3.94,10.2,1.18,3.6,2.07,7.5,2.86,11.4,1.48,7.9,2.17,15.5,2.86,22.3.69,6.9,1.08,13.1,1.28,18.3.49,10.6.3,17-.1,17h0Zm-438.69-9.2c-.2,0-.79-3.1-1.58-8.6-.79-5.6-1.77-13.7-2.86-23.7-2.26-20-5.02-47.7-7.48-78.4-2.46-30.6-4.14-58.4-5.12-78.6-.49-10.1-.79-18.2-.89-23.8-.1-5.6-.1-8.8.1-8.8s.59,3.1,1.08,8.7,1.18,13.7,1.97,23.8c1.58,20.1,3.74,47.8,6.11,78.4,2.56,30.6,4.83,58.3,6.5,78.4.89,10,1.48,18.2,1.87,23.8.39,5.7.49,8.8.3,8.8h0Zm126.14-6.4c0,.5-6.2.5-16.15.4-9.95,0-23.73,0-38.9.5s-28.85,1.4-38.8,2c-9.95.7-16.05,1.1-16.15.6-.1-.4,6.01-1.6,15.95-2.9,9.95-1.3,23.63-2.5,38.9-3s29.05-.2,39,.5c10.04.6,16.15,1.4,16.15,1.9h0Zm86.85-238.4c0,.2-3.15.2-8.86,0-1.38-.1-3.05-.1-4.73-.2-1.77,0-3.64-.1-5.61-.2-4.04-.1-8.67-.3-13.79-.4-2.56-.1-5.22-.1-7.98-.2-2.76,0-5.71-.1-8.67-.1-6.01-.1-12.41,0-19.1,0-13.49.2-28.26.6-43.82,1.4-15.56.9-30.33,2.1-43.72,3.4-6.7.7-13.1,1.3-19.01,2.1-2.95.4-5.81.7-8.67,1-2.76.4-5.42.7-7.98,1-5.02.6-9.65,1.3-13.69,1.9-1.97.3-3.84.5-5.61.8-1.67.3-3.25.5-4.73.7-5.61.8-8.76,1.2-8.86.9,0-.2,3.05-1,8.67-2.2,1.38-.3,2.95-.6,4.63-1,1.67-.3,3.54-.7,5.61-1,4.04-.7,8.57-1.6,13.59-2.4,2.56-.4,5.22-.8,7.98-1.3,2.76-.4,5.61-.8,8.67-1.2,5.91-.9,12.31-1.6,19.1-2.4,13.49-1.5,28.26-2.8,43.82-3.7,15.56-.8,30.43-1.2,44.02-1.2,6.79.1,13.2.1,19.2.3,3.05.1,5.91.1,8.67.3,2.76.1,5.42.3,7.98.4,5.12.2,9.75.6,13.79.9,2.07.2,3.94.3,5.61.4,1.77.2,3.35.3,4.73.5,5.61.9,8.76,1.3,8.76,1.5h0Zm16.74,194.2c-.2,0-.69-2.5-1.28-7.1-.69-4.6-1.48-11.3-2.36-19.5-1.77-16.5-3.74-39.4-5.32-64.7-1.58-25.3-2.26-48.2-2.56-64.8-.1-8.3-.1-15,0-19.7.1-4.6.2-7.2.49-7.2.2,0,.49,2.6.79,7.2s.69,11.3,1.08,19.6c.79,16.6,1.97,39.4,3.45,64.7,1.58,25.3,3.15,48.1,4.33,64.7.59,8.3,1.08,15,1.28,19.6.3,4.6.3,7.2.1,7.2h0Zm104.68-176.3c-.89.2-2.07-2.2-2.17-5.4-.1-3.2.98-5.7,1.77-5.6.89.1,1.28,2.6,1.38,5.4.2,3-.1,5.4-.98,5.6h0Zm202.16-18.3c0,.2-2.76.6-7.68,1-4.92.5-12.21,1-21.07,1.6-17.82,1.2-42.44,2.7-69.62,4.1-13.59.7-26.59,1.3-38.31,1.9-11.82.5-22.45,1-31.41.9s-16.25-.7-21.17-1.4-7.68-1.4-7.58-1.6c0-.2,2.76.1,7.78.4,4.92.3,12.11.6,21.07.4,8.86-.2,19.5-.9,31.22-1.6,11.82-.7,24.72-1.4,38.31-2.1,27.18-1.4,51.8-2.5,69.62-3.1,8.96-.3,16.15-.5,21.17-.6s7.68-.2,7.68.1h0Zm5.02,178.6c-.2,0-.59-2.2-1.18-6.3s-1.28-10-1.97-17.3c-1.48-14.6-2.95-34.9-3.74-57.3-.79-22.4-.79-42.7-.49-57.4.2-7.3.39-13.3.69-17.4.3-4.1.49-6.4.69-6.4s.39,2.3.49,6.4.2,10,.3,17.4c.2,14.7.59,34.9,1.38,57.3.79,22.4,1.97,42.6,2.86,57.2.39,7.3.79,13.2.98,17.3.2,4.2.2,6.5,0,6.5h0Zm-18.81-2.6c0,.5-4.92,1-12.9,1.7s-19.01,1.7-31.22,2.7c-12.21.9-23.24,1.6-31.31,1.9-8.07.3-13,.3-13-.2,0-.4,4.92-1.2,12.9-2.1,7.98-.9,19.01-1.9,31.22-2.9,12.21-1,23.34-1.6,31.31-1.7,7.98-.1,12.9.2,13,.6Zm-612.2-79.9c-.2,0,0-3.3.49-9.3s1.28-14.6,2.46-25.3c.59-5.3,1.18-11.2,1.77-17.4.59-6.3,1.28-12.9,1.38-19.9.2-7-.2-14.4-1.67-21.8-.69-3.7-1.67-7.5-3.64-10.4-.98-1.5-2.17-2.7-3.74-3.4-1.48-.8-3.25-1.1-4.73-.8-1.48.3-2.76,1.3-3.74,2.8-.98,1.4-1.77,3.3-2.46,5.1-1.48,3.6-2.66,7.2-3.45,10.9-.89,3.7-1.38,7.4-1.67,11s-.39,7.2-.2,10.7c.59,14,4.04,26.3,7.58,36.2,3.64,10,7.29,17.8,9.75,23.2,2.56,5.4,3.94,8.4,3.74,8.5s-1.97-2.7-4.83-8-6.89-13-10.83-23c-1.97-5-3.84-10.6-5.42-16.8-1.58-6.2-2.66-12.9-3.05-20.1-.2-3.6-.2-7.3.1-11.1.3-3.8.79-7.6,1.67-11.4s2.07-7.7,3.54-11.5c.79-1.9,1.58-3.8,2.86-5.7.59-.9,1.38-1.8,2.36-2.6.98-.7,2.17-1.3,3.35-1.6,4.92-1,9.45,1.9,11.82,5.6,1.18,1.8,2.07,3.8,2.66,5.8.59,2,.98,3.9,1.38,5.8,1.48,7.7,1.77,15.3,1.48,22.5s-.98,13.9-1.67,20.2c-.79,6.3-1.58,12.1-2.17,17.4-1.38,10.6-2.56,19.2-3.45,25.1-.89,6.1-1.48,9.4-1.67,9.3h0ZM23.94,298.8c-.2-.1.39-3.1,1.67-8.7,1.18-5.5,3.15-13.5,5.02-23.4.98-4.9,1.87-10.4,2.56-16.3.69-5.9,1.18-12.2,1.28-18.8,0-3.3-.1-6.7-.3-10.1-.2-1.7-.3-3.5-.49-5.2s-.59-3.4-1.08-5.1c-.89-3.3-2.36-6.6-4.73-8.9-2.36-2.3-5.71-3.2-8.96-2.3-3.25.9-6.01,3.2-8.17,6-1.08,1.4-2.07,2.9-2.76,4.4-.39.8-.69,1.6-1.08,2.4-.39.8-.59,1.7-.89,2.5-1.08,3.3-1.87,6.7-2.17,10.1l-.1,1.3-.1,1.3c0,.8-.1,1.7-.1,2.5,0,1.7,0,3.3.1,5,.39,6.5,1.58,12.7,3.05,18.4,1.38,5.7,3.05,11,4.63,15.8,3.05,9.6,6.5,17,9.35,21.8s4.92,7.2,4.63,7.4c-.1.1-2.46-2-5.71-6.7s-6.99-12.1-10.44-21.7c-1.67-4.8-3.54-10-5.12-15.8-1.58-5.8-2.95-12.1-3.35-18.9-.2-1.7-.2-3.4-.2-5.2,0-.9.1-1.8.1-2.7l.1-1.3.1-1.3c.3-3.6,1.08-7.2,2.26-10.8.3-.9.59-1.8.98-2.7.39-.9.79-1.7,1.18-2.6.89-1.8,1.87-3.4,3.15-5,1.18-1.6,2.66-3,4.23-4.3,1.67-1.2,3.54-2.3,5.61-2.8,2.07-.6,4.33-.6,6.4,0,2.07.5,4.04,1.7,5.51,3.1,3.05,3,4.63,6.7,5.61,10.4.49,1.8.89,3.7,1.08,5.5.3,1.9.3,3.6.49,5.4.2,3.5.3,7,.2,10.4-.1,6.8-.79,13.2-1.58,19.1-.89,5.9-1.87,11.4-3.05,16.4-2.17,9.9-4.43,17.8-6.11,23.2-1.67,5.3-2.66,8.2-2.86,8.2h0ZM288.83,103c-.2-.1.49-3.1,1.67-8.5s2.86-13.2,4.23-23c.69-4.9,1.38-10.3,1.87-16,.49-5.8.79-11.9.49-18.4-.39-6.4-1.48-13.1-4.04-19.5-1.28-3.2-3.05-6.3-5.12-9-2.07-2.6-4.92-4.8-7.98-4.8s-5.81,2.2-7.68,5c-.98,1.4-1.67,2.9-2.36,4.5-.3.8-.59,1.6-.79,2.5-.3.8-.49,1.7-.69,2.5-1.77,6.7-1.97,13.5-1.48,19.9.3,3.2.69,6.3,1.18,9.4.49,3,1.08,6,1.77,8.8,1.28,5.6,2.76,10.9,4.23,15.5,2.86,9.4,6.2,16.6,8.96,21.4,2.76,4.8,4.73,7.1,4.43,7.3-.1.1-.69-.5-1.67-1.5-.49-.5-1.08-1.3-1.77-2.1-.59-.9-1.38-1.8-2.17-3-3.15-4.6-6.89-11.9-10.14-21.3-1.58-4.7-3.15-9.9-4.63-15.6-.69-2.8-1.38-5.8-1.97-8.9s-.98-6.3-1.28-9.6c-.49-6.6-.39-13.8,1.38-21,.2-.9.39-1.8.79-2.7.3-.9.49-1.8.89-2.7.69-1.8,1.58-3.5,2.66-5.2,1.08-1.6,2.46-3.2,4.14-4.4,1.67-1.2,3.84-2,6.11-2.1,2.26,0,4.33.8,6.11,1.9s3.15,2.6,4.43,4.1c2.36,3.1,4.14,6.4,5.61,9.8,2.76,6.9,3.84,13.9,4.14,20.6s-.2,13-.79,18.8c-.59,5.8-1.38,11.2-2.26,16.1-1.67,9.8-3.74,17.6-5.32,23-1.67,5.4-2.76,8.3-2.95,8.2h0Zm499.35,99.6c-.2-.1.39-2,1.48-5.6,1.08-3.5,2.66-8.6,4.33-14.9.79-3.2,1.77-6.6,2.46-10.4.69-3.7,1.18-7.8,1.08-12s-.98-8.6-3.05-12.4c-1.08-1.9-2.46-3.7-4.14-4.9-1.67-1.3-3.74-2.1-5.91-2.2-1.08-.1-2.17.1-3.05.3-.98.3-1.87.8-2.66,1.4-.79.7-1.38,1.4-1.97,2.3-.49.9-.89,1.9-1.18,2.9-.59,2.1-.79,4.3-.79,6.5s.2,4.3.39,6.5c.79,8.6,2.17,16.3,3.64,22.6.69,3.2,1.38,6.1,2.17,8.5.79,2.4,1.77,4.4,2.76,5.8.98,1.5,1.97,2.4,2.66,3s1.18.9,1.08,1c0,.1-.59,0-1.48-.5s-2.07-1.3-3.35-2.8c-1.28-1.4-2.46-3.5-3.45-6s-1.87-5.4-2.76-8.6c-1.77-6.4-3.35-14.2-4.33-22.9-.49-4.3-.98-9.2.3-14.2.39-1.2.79-2.5,1.48-3.7s1.58-2.3,2.66-3.2,2.36-1.6,3.74-2,2.76-.6,4.23-.5c2.86.2,5.51,1.2,7.68,2.9,2.17,1.6,3.74,3.8,5.02,6,2.36,4.5,3.15,9.4,3.25,13.9.1,4.5-.59,8.7-1.48,12.6-.89,3.8-1.87,7.3-2.86,10.5-1.97,6.3-3.94,11.3-5.32,14.7-1.48,3.6-2.46,5.4-2.66,5.4h0ZM58.11,276.8c.69.6-1.38,4.4-3.84,9s-4.63,8.4-5.42,8c-.79-.3,0-4.8,2.66-9.6,2.56-4.9,5.91-7.9,6.6-7.4Z"/>
  <path class="cls-5" d="m13.7,241.6c.2-.2.79.5,2.17.7.69.1,1.48.1,2.46-.2.89-.3,1.87-.8,2.76-1.6.39-.4.79-.9,1.08-1.5s.49-1.2.69-1.9c.3-1.4.3-3,.1-4.7-.1-.9-.3-1.7-.49-2.6s-.49-1.7-.79-2.6c-.69-1.6-1.77-3.3-3.05-4.1-1.28-.8-2.76-.6-3.84.3-1.08.9-1.87,2.6-2.36,4.2-.89,3.3-.89,6.5-.39,9.1s1.48,4.4,2.56,5.3,1.87,1.2,1.87,1.5c0,.2-.98.4-2.56-.4-1.58-.7-3.25-2.9-4.14-5.8-.79-2.9-1.18-6.5-.2-10.4.49-1.9,1.28-4.1,3.15-5.8.98-.9,2.26-1.5,3.54-1.6,1.38-.2,2.86.2,3.94.9,1.18.7,2.07,1.7,2.76,2.6.69,1,1.18,2,1.58,3,.39,1,.69,2.1.89,3.1s.3,2,.39,3c.2,2,0,3.9-.49,5.7-.3.9-.69,1.7-1.08,2.5-.49.7-1.08,1.4-1.67,1.9-2.56,2-5.42,2-6.99,1.3-1.67-.8-2.07-1.8-1.87-1.9h0Zm143.97,69c.2-.1.79.6,1.87,1.9.49.6.98,1.4,1.67,2.2.1.1.2.2.3.4l.1.2s0,.1.1.1l.1-.1c.3-.2.59-.4.79-.7l.2-.2c.1-.1.2-.3.3-.4.2-.3.3-.6.39-.9.3-.6.49-1.4.59-2.1.1-.8.2-1.6.2-2.5v-2.8c-.1-1.9-.2-3.9-.49-5.9s-.59-4.2-1.38-5.8c-.2-.4-.39-.8-.69-1.1-.2-.3-.49-.5-.89-.7-.69-.4-1.38-.5-1.87-.4s-.98.5-1.38,1.2-.79,1.5-1.08,2.4c-1.18,3.4-1.38,6.8-1.08,9.6.3,2.8.98,5,1.58,6.5s.98,2.3.79,2.5c-.2.1-.89-.5-1.87-1.9s-2.07-3.7-2.66-6.7c-.59-3-.69-6.9.59-10.9.39-1,.69-2,1.28-3.1.59-1,1.67-2.2,3.25-2.6s3.05,0,4.23.7c.59.4,1.18.8,1.67,1.4.49.5.79,1.1,1.08,1.7.59,1.2.89,2.4,1.08,3.6.2,1.1.39,2.2.49,3.3.2,2.2.3,4.3.3,6.3,0,1-.1,2-.1,2.9-.1,1-.2,1.9-.49,2.9-.2.9-.49,1.8-.89,2.6-.2.4-.39.8-.69,1.2-.1.2-.3.4-.39.5l-.59.6c-.79.8-1.77,1.1-2.56,1.4l-.3.1c-.1,0-.1-.2-.2-.2-.1-.2-.2-.4-.39-.5-.2-.3-.49-.7-.69-1.1-.49-.8-.59-1.2-.89-1.7-.2-.5-.39-.9-.59-1.2-.69-1.7-.98-2.6-.79-2.7h0ZM281.74,53c.1,0,.2.3.39.6s.69.7,1.48.9c.69.2,1.77.1,2.46-.6.79-.7,1.28-1.9,1.58-3.4.49-3.1.89-7.1.39-11.3-.2-2.1-.69-4.2-1.58-6.2-.39-1-.98-2-1.58-2.9-.69-.9-1.38-1.8-2.17-2.2-.79-.5-1.58-.6-2.26-.4s-1.48.8-2.07,1.6c-.59.8-1.08,1.7-1.38,2.7-.3,1-.59,1.9-.59,2.9-.39,4.2.2,8,1.08,11.1,1.87,6.2,4.63,9.3,4.23,9.7-.2.1-.98-.5-2.26-1.9s-2.86-3.8-4.14-7-2.17-7.4-1.87-12.1c.1-2.4.89-5,2.46-7.3.79-1.1,1.97-2.2,3.64-2.7s3.54-.1,4.83.8c1.38.9,2.26,2,3.05,3.1s1.48,2.3,1.87,3.5c.98,2.4,1.48,4.9,1.67,7.2.2,2.3.1,4.5-.2,6.5-.2,2-.59,3.8-.98,5.6-.49,1.7-1.28,3.4-2.66,4.3-.69.5-1.48.7-2.17.7s-1.28-.2-1.77-.4c-.98-.5-1.58-1.3-1.58-1.9-.2-.6,0-.9.1-.9h0Z"/>
  <ellipse class="cls-11" cx="644.09" cy="164.95" rx="1.28" ry="1.6"/>
  <path class="cls-5" d="m785.42,167c-.3-.4,1.48-1.8,2.36-5,.39-1.5.49-3.5-.1-5.4-.3-.9-.89-1.7-1.58-2-.59-.3-1.18-.2-1.97.4-.49.4-.98,1-1.38,1.7s-.69,1.4-.98,2.2c-.59,1.5-.79,2.9-.69,4.1.1.6.2,1.1.49,1.5.3.5.59.8.89,1.1.69.6,1.48.8,2.07.7l-.3,1.3c-.89-1.3-1.28-2.1-1.08-2.3.2-.2.98.3,2.17,1.2l.89.7-1.18.6c-.98.4-2.46.4-3.74-.3-.69-.4-1.28-.9-1.77-1.6-.49-.7-.89-1.6-1.08-2.5-.39-1.8-.1-3.8.49-5.6.3-.9.59-1.8,1.18-2.8.49-.9,1.18-1.8,2.07-2.6.69-.6,1.58-1,2.56-1.2s1.97.1,2.86.5c1.67,1,2.46,2.5,2.86,3.8.79,2.8.3,5.3-.59,7.1s-1.97,3-2.86,3.6c-.89.9-1.48,1-1.58.8ZM95.72,234.5c.39.8-3.94,3.6-8.37,7.9-4.53,4.2-7.48,8.4-8.27,8-.39-.2-.1-1.6.89-3.6s2.76-4.5,5.22-6.8,5.02-3.9,6.99-4.8c2.07-.9,3.35-1.1,3.54-.7h0Zm44.51-36.3c.39.8-2.26,2.9-5.51,5.2-3.25,2.3-6.11,4.2-6.7,3.5-.59-.6,1.38-3.7,4.92-6.2,3.45-2.5,6.99-3.3,7.29-2.5h0Zm58.49-33.6c.3.9-4.92,3.7-11.42,7s-11.92,5.8-12.31,5c-.49-.8,4.23-4.6,10.93-7.9,6.6-3.4,12.51-4.9,12.8-4.1Zm61.84-15.4c0,.9-6.2,1.9-13.79,3.4s-13.79,2.9-14.08,2c-.3-.8,5.61-3.7,13.49-5.2,7.78-1.6,14.38-1.1,14.38-.2Zm65.48-4.3c-.1.9-7.29.6-16.15.6s-15.95.4-16.15-.5c-.1-.9,6.99-2.7,16.15-2.8,9.06,0,16.25,1.9,16.15,2.7Zm75.82,13.3c-.2.9-8.17-.5-18.02-2.2-9.75-1.7-17.82-3.1-17.73-4s8.27-.9,18.22.8c10.04,1.7,17.73,4.6,17.53,5.4Zm62.92,16.6c-.3.9-7.88-1.4-17.23-3.7-9.35-2.4-17.04-4-16.94-4.9s8.07-.7,17.63,1.7c9.65,2.4,16.84,6,16.54,6.9Zm62.73,34.7c-.69.7-7.09-4.8-15.95-9.9-8.86-5.2-16.74-8.1-16.44-9,.1-.4,2.26-.2,5.61.7,3.35,1,7.88,2.8,12.41,5.5,4.63,2.7,8.37,5.7,10.93,8.2,2.56,2.4,3.74,4.2,3.45,4.5h0Zm36.93,34.4c-.69.6-5.22-4-11.52-8.6-6.2-4.7-11.92-7.6-11.62-8.5.2-.4,1.87-.2,4.33.8,2.46.9,5.81,2.6,9.16,5.1,3.35,2.5,5.91,5.1,7.58,7.3,1.67,2,2.36,3.6,2.07,3.9h0Zm24.32,40.9c-.79.4-4.14-4.3-8.17-10-4.14-5.7-7.48-10.4-6.89-11s5.22,3.2,9.45,9.1c4.23,5.9,6.4,11.5,5.61,11.9h0Zm-210.53-51.3c.89.3-.89,6.6-2.66,14.4-1.87,7.7-3.25,14.1-4.14,14s-.89-6.8,1.08-14.8c1.77-8,4.92-13.9,5.71-13.6h0Zm39.39-78.8c.69.6-2.07,4.5-5.12,9.2-3.15,4.7-5.51,8.7-6.4,8.4-.79-.3.39-5.2,3.74-10.2,3.25-5,7.19-8,7.78-7.4Zm54.95-45.1c.39.8-4.33,3.6-10.04,6.9-5.71,3.3-10.44,6-11.03,5.2-.49-.7,3.45-4.7,9.45-8.1,5.91-3.3,11.32-4.8,11.62-4h0Zm85.47-27.3c.1.9-8.27,2.8-18.61,5.2-10.34,2.3-18.71,4.3-18.91,3.4-.3-.8,7.78-4.2,18.22-6.6,10.44-2.5,19.2-2.9,19.3-2h0Zm74.05,8.8c-.3.9-7.48-.8-16.54-1.6-8.96-.9-16.44-.8-16.54-1.7,0-.4,1.77-1.1,4.83-1.5s7.29-.6,12.01-.1c4.63.5,8.86,1.5,11.72,2.5,2.95,1,4.63,2,4.53,2.4h0Zm56.72,21.9c-.59.7-5.91-2.7-12.8-6.2s-12.8-5.9-12.51-6.8c.2-.8,6.79.2,13.98,3.9,7.19,3.7,11.92,8.5,11.32,9.1Zm49.93,44.3c-.89.4-3.84-5.5-9.65-10.7-5.71-5.3-11.82-7.7-11.52-8.6.1-.4,1.87-.4,4.43.5,1.28.4,2.76,1.1,4.43,2,1.58.9,3.25,2.1,4.83,3.5s2.86,3,4.04,4.5c1.08,1.5,1.87,2.9,2.46,4.2,1.18,2.6,1.38,4.4.98,4.6Zm40.57,55.1c-.79.4-4.53-5.6-9.95-12.4-5.32-6.8-10.34-11.8-9.75-12.6.3-.3,1.87.5,4.23,2.3,2.26,1.8,5.22,4.7,8.07,8.2,2.76,3.5,4.92,7.1,6.11,9.8,1.28,2.6,1.67,4.5,1.28,4.7Zm-468.04-117c.69.6-1.97,4.9-5.12,10.1-3.15,5.2-5.71,9.5-6.5,9.2s.49-5.4,3.84-10.9c3.25-5.4,7.09-8.9,7.78-8.4h0Zm50.42-50.6c.49.8-6.01,5.5-13.2,12.3-7.19,6.7-12.21,13-13,12.5-.39-.3.49-2.2,2.36-5,1.87-2.8,4.83-6.4,8.47-9.9,3.74-3.5,7.48-6.2,10.34-7.9,2.86-1.7,4.83-2.4,5.02-2h0Zm48.05-25.6c.3.9-5.51,4-12.7,7.8-7.19,3.8-13.1,6.8-13.59,6-.49-.7,4.83-5.1,12.11-8.9,7.39-3.8,13.88-5.7,14.18-4.9Zm57.51-12.5c0,.9-7.29,1.4-16.05,2.5s-15.85,2.4-16.15,1.5c-.3-.8,6.7-3.6,15.76-4.8,9.16-1.1,16.54-.1,16.44.8Zm51.5,14.3c-.59.7-5.91-2.8-13-5.9-7.09-3.2-13.2-4.8-13.1-5.7.1-.4,1.77-.6,4.43-.2s6.2,1.3,9.95,2.9c3.74,1.7,6.89,3.7,8.86,5.5,2.07,1.7,3.05,3,2.86,3.4Zm62.53,28.5c-.79.6-6.11-6.3-14.48-12.9-8.17-6.7-16.05-10.4-15.76-11.3.2-.4,2.36,0,5.71,1.4s7.68,3.8,12.01,7.3c4.33,3.5,7.68,7.2,9.75,10.2,2.17,3,3.05,5,2.76,5.3h0Zm60.86,110.6c-.49.1-1.18-2.5-2.07-6.6s-1.97-9.8-3.74-15.8c-.89-3-1.87-5.8-2.86-8.3-.59-1.2-.98-2.4-1.58-3.5-.3-.5-.49-1.1-.79-1.6s-.49-1-.79-1.4c-1.97-3.6-3.54-5.7-3.15-6,.3-.3,2.46,1.3,5.02,4.7.3.4.69.9.98,1.4s.59,1,.98,1.6c.69,1.1,1.28,2.3,1.97,3.6,1.18,2.6,2.36,5.5,3.25,8.7,1.77,6.3,2.56,12.1,2.86,16.4.39,4.1.3,6.8-.1,6.8h0Zm10.04,55.7c-.89-.1-.98-7.2-2.07-15.9-.98-8.7-2.56-15.6-1.67-15.9.79-.3,3.84,6.5,4.83,15.5,1.08,9.1-.2,16.4-1.08,16.3h0Zm-9.85,67.2c-.89-.4.69-5.3,1.18-11.5.49-6.2-.3-11.3.59-11.5.39-.1,1.18,1.1,1.77,3.2.59,2.1,1.08,5.2.79,8.6-.3,3.4-1.18,6.4-2.07,8.4-.98,1.9-1.87,2.9-2.26,2.8Z"/>
</svg>